<mxfile host="app.diagrams.net" modified="2024-04-30T12:29:48.788Z" agent="Mozilla/5.0 (Windows NT 10.0; Win64; x64) AppleWebKit/537.36 (KHTML, like Gecko) Chrome/124.0.0.0 Safari/537.36 Edg/124.0.0.0" etag="hX9_RVno6hpOUnSXuIas" version="24.2.7" type="github">
  <diagram name="第 1 页" id="5nrdYvSMYSeaeXki6Im1">
    <mxGraphModel dx="488" dy="276" grid="1" gridSize="10" guides="1" tooltips="1" connect="1" arrows="1" fold="1" page="1" pageScale="1" pageWidth="827" pageHeight="1169" math="0" shadow="0">
      <root>
        <mxCell id="0" />
        <mxCell id="1" parent="0" />
        <mxCell id="8xzKFLjRtHm6hBmf5HE1-1" value="" style="endArrow=none;dashed=1;html=1;dashPattern=1 3;strokeWidth=2;rounded=0;" edge="1" parent="1">
          <mxGeometry width="50" height="50" relative="1" as="geometry">
            <mxPoint x="99.92" y="200" as="sourcePoint" />
            <mxPoint x="99.92" y="90" as="targetPoint" />
          </mxGeometry>
        </mxCell>
        <mxCell id="8xzKFLjRtHm6hBmf5HE1-2" value="" style="endArrow=none;dashed=1;html=1;dashPattern=1 3;strokeWidth=2;rounded=0;" edge="1" parent="1">
          <mxGeometry width="50" height="50" relative="1" as="geometry">
            <mxPoint x="139.92" y="200" as="sourcePoint" />
            <mxPoint x="139.92" y="90" as="targetPoint" />
          </mxGeometry>
        </mxCell>
        <mxCell id="8xzKFLjRtHm6hBmf5HE1-3" value="" style="endArrow=none;dashed=1;html=1;dashPattern=1 3;strokeWidth=2;rounded=0;" edge="1" parent="1">
          <mxGeometry width="50" height="50" relative="1" as="geometry">
            <mxPoint x="179.92" y="200" as="sourcePoint" />
            <mxPoint x="179.92" y="90" as="targetPoint" />
          </mxGeometry>
        </mxCell>
        <mxCell id="8xzKFLjRtHm6hBmf5HE1-4" value="thr0" style="text;html=1;align=center;verticalAlign=middle;whiteSpace=wrap;rounded=0;" vertex="1" parent="1">
          <mxGeometry x="90" y="70" width="60" height="30" as="geometry" />
        </mxCell>
        <mxCell id="8xzKFLjRtHm6hBmf5HE1-5" value="thr1" style="text;html=1;align=center;verticalAlign=middle;whiteSpace=wrap;rounded=0;" vertex="1" parent="1">
          <mxGeometry x="130" y="70" width="60" height="30" as="geometry" />
        </mxCell>
        <mxCell id="8xzKFLjRtHm6hBmf5HE1-6" value="" style="endArrow=none;dashed=1;html=1;dashPattern=1 3;strokeWidth=2;rounded=0;" edge="1" parent="1">
          <mxGeometry width="50" height="50" relative="1" as="geometry">
            <mxPoint x="219.92" y="200" as="sourcePoint" />
            <mxPoint x="219.92" y="90" as="targetPoint" />
          </mxGeometry>
        </mxCell>
        <mxCell id="8xzKFLjRtHm6hBmf5HE1-7" value="thr2" style="text;html=1;align=center;verticalAlign=middle;whiteSpace=wrap;rounded=0;" vertex="1" parent="1">
          <mxGeometry x="170" y="70" width="60" height="30" as="geometry" />
        </mxCell>
        <mxCell id="8xzKFLjRtHm6hBmf5HE1-8" value="..." style="text;html=1;align=center;verticalAlign=middle;whiteSpace=wrap;rounded=0;" vertex="1" parent="1">
          <mxGeometry x="209.92" y="100" width="60" height="30" as="geometry" />
        </mxCell>
        <mxCell id="8xzKFLjRtHm6hBmf5HE1-9" value="..." style="text;html=1;align=center;verticalAlign=middle;whiteSpace=wrap;rounded=0;" vertex="1" parent="1">
          <mxGeometry x="209.92" y="163" width="60" height="30" as="geometry" />
        </mxCell>
        <mxCell id="8xzKFLjRtHm6hBmf5HE1-10" value="" style="endArrow=none;dashed=1;html=1;dashPattern=1 3;strokeWidth=2;rounded=0;" edge="1" parent="1">
          <mxGeometry width="50" height="50" relative="1" as="geometry">
            <mxPoint x="259.92" y="200" as="sourcePoint" />
            <mxPoint x="259.92" y="90" as="targetPoint" />
          </mxGeometry>
        </mxCell>
        <mxCell id="8xzKFLjRtHm6hBmf5HE1-11" value="" style="endArrow=none;dashed=1;html=1;dashPattern=1 3;strokeWidth=2;rounded=0;" edge="1" parent="1">
          <mxGeometry width="50" height="50" relative="1" as="geometry">
            <mxPoint x="299.92" y="200" as="sourcePoint" />
            <mxPoint x="299.92" y="90" as="targetPoint" />
          </mxGeometry>
        </mxCell>
        <mxCell id="8xzKFLjRtHm6hBmf5HE1-12" value="thr31" style="text;html=1;align=center;verticalAlign=middle;whiteSpace=wrap;rounded=0;" vertex="1" parent="1">
          <mxGeometry x="250" y="70" width="60" height="30" as="geometry" />
        </mxCell>
        <mxCell id="8xzKFLjRtHm6hBmf5HE1-13" value="" style="triangle;whiteSpace=wrap;html=1;fillColor=#d5e8d4;strokeColor=#82b366;" vertex="1" parent="1">
          <mxGeometry x="104.92" y="100" width="30" height="20" as="geometry" />
        </mxCell>
        <mxCell id="8xzKFLjRtHm6hBmf5HE1-14" value="" style="triangle;whiteSpace=wrap;html=1;rotation=30;fillColor=#d5e8d4;strokeColor=#82b366;" vertex="1" parent="1">
          <mxGeometry x="157.42" y="105" width="1" height="10" as="geometry" />
        </mxCell>
        <mxCell id="8xzKFLjRtHm6hBmf5HE1-15" value="" style="triangle;whiteSpace=wrap;html=1;rotation=-90;fillColor=#d5e8d4;strokeColor=#82b366;" vertex="1" parent="1">
          <mxGeometry x="187.42" y="105" width="25" height="10" as="geometry" />
        </mxCell>
        <mxCell id="8xzKFLjRtHm6hBmf5HE1-16" value="" style="triangle;whiteSpace=wrap;html=1;rotation=55;fillColor=#d5e8d4;strokeColor=#82b366;" vertex="1" parent="1">
          <mxGeometry x="277.92" y="96" width="10" height="28" as="geometry" />
        </mxCell>
        <mxCell id="8xzKFLjRtHm6hBmf5HE1-17" value="" style="rounded=0;whiteSpace=wrap;html=1;strokeWidth=0.5;fillColor=#f8cecc;strokeColor=#b85450;" vertex="1" parent="1">
          <mxGeometry x="111.92" y="174" width="2" height="2" as="geometry" />
        </mxCell>
        <mxCell id="8xzKFLjRtHm6hBmf5HE1-19" value="" style="rounded=0;whiteSpace=wrap;html=1;strokeWidth=0.5;" vertex="1" parent="1">
          <mxGeometry x="113.92" y="174" width="2" height="2" as="geometry" />
        </mxCell>
        <mxCell id="8xzKFLjRtHm6hBmf5HE1-20" value="" style="rounded=0;whiteSpace=wrap;html=1;strokeWidth=0.5;" vertex="1" parent="1">
          <mxGeometry x="115.92" y="174" width="2" height="2" as="geometry" />
        </mxCell>
        <mxCell id="8xzKFLjRtHm6hBmf5HE1-21" value="" style="rounded=0;whiteSpace=wrap;html=1;strokeWidth=0.5;" vertex="1" parent="1">
          <mxGeometry x="117.92" y="174" width="2" height="2" as="geometry" />
        </mxCell>
        <mxCell id="8xzKFLjRtHm6hBmf5HE1-22" value="" style="rounded=0;whiteSpace=wrap;html=1;strokeWidth=0.5;" vertex="1" parent="1">
          <mxGeometry x="119.92" y="174" width="2" height="2" as="geometry" />
        </mxCell>
        <mxCell id="8xzKFLjRtHm6hBmf5HE1-23" value="" style="rounded=0;whiteSpace=wrap;html=1;strokeWidth=0.5;" vertex="1" parent="1">
          <mxGeometry x="121.92" y="174" width="2" height="2" as="geometry" />
        </mxCell>
        <mxCell id="8xzKFLjRtHm6hBmf5HE1-24" value="" style="rounded=0;whiteSpace=wrap;html=1;strokeWidth=0.5;" vertex="1" parent="1">
          <mxGeometry x="123.92" y="174" width="2" height="2" as="geometry" />
        </mxCell>
        <mxCell id="8xzKFLjRtHm6hBmf5HE1-25" value="" style="rounded=0;whiteSpace=wrap;html=1;strokeWidth=0.5;" vertex="1" parent="1">
          <mxGeometry x="125.92" y="174" width="2" height="2" as="geometry" />
        </mxCell>
        <mxCell id="8xzKFLjRtHm6hBmf5HE1-26" value="" style="rounded=0;whiteSpace=wrap;html=1;strokeWidth=0.5;fillColor=#f8cecc;strokeColor=#b85450;" vertex="1" parent="1">
          <mxGeometry x="111.92" y="176" width="2" height="2" as="geometry" />
        </mxCell>
        <mxCell id="8xzKFLjRtHm6hBmf5HE1-27" value="" style="rounded=0;whiteSpace=wrap;html=1;strokeWidth=0.5;fillColor=#f8cecc;strokeColor=#b85450;" vertex="1" parent="1">
          <mxGeometry x="113.92" y="176" width="2" height="2" as="geometry" />
        </mxCell>
        <mxCell id="8xzKFLjRtHm6hBmf5HE1-28" value="" style="rounded=0;whiteSpace=wrap;html=1;strokeWidth=0.5;" vertex="1" parent="1">
          <mxGeometry x="115.92" y="176" width="2" height="2" as="geometry" />
        </mxCell>
        <mxCell id="8xzKFLjRtHm6hBmf5HE1-29" value="" style="rounded=0;whiteSpace=wrap;html=1;strokeWidth=0.5;" vertex="1" parent="1">
          <mxGeometry x="117.92" y="176" width="2" height="2" as="geometry" />
        </mxCell>
        <mxCell id="8xzKFLjRtHm6hBmf5HE1-30" value="" style="rounded=0;whiteSpace=wrap;html=1;strokeWidth=0.5;" vertex="1" parent="1">
          <mxGeometry x="119.92" y="176" width="2" height="2" as="geometry" />
        </mxCell>
        <mxCell id="8xzKFLjRtHm6hBmf5HE1-31" value="" style="rounded=0;whiteSpace=wrap;html=1;strokeWidth=0.5;" vertex="1" parent="1">
          <mxGeometry x="121.92" y="176" width="2" height="2" as="geometry" />
        </mxCell>
        <mxCell id="8xzKFLjRtHm6hBmf5HE1-32" value="" style="rounded=0;whiteSpace=wrap;html=1;strokeWidth=0.5;" vertex="1" parent="1">
          <mxGeometry x="123.92" y="176" width="2" height="2" as="geometry" />
        </mxCell>
        <mxCell id="8xzKFLjRtHm6hBmf5HE1-33" value="" style="rounded=0;whiteSpace=wrap;html=1;strokeWidth=0.5;" vertex="1" parent="1">
          <mxGeometry x="125.92" y="176" width="2" height="2" as="geometry" />
        </mxCell>
        <mxCell id="8xzKFLjRtHm6hBmf5HE1-34" value="" style="rounded=0;whiteSpace=wrap;html=1;strokeWidth=0.5;fillColor=#f8cecc;strokeColor=#b85450;" vertex="1" parent="1">
          <mxGeometry x="111.92" y="178" width="2" height="2" as="geometry" />
        </mxCell>
        <mxCell id="8xzKFLjRtHm6hBmf5HE1-35" value="" style="rounded=0;whiteSpace=wrap;html=1;strokeWidth=0.5;fillColor=#f8cecc;strokeColor=#b85450;" vertex="1" parent="1">
          <mxGeometry x="113.92" y="178" width="2" height="2" as="geometry" />
        </mxCell>
        <mxCell id="8xzKFLjRtHm6hBmf5HE1-36" value="" style="rounded=0;whiteSpace=wrap;html=1;strokeWidth=0.5;fillColor=#f8cecc;strokeColor=#b85450;" vertex="1" parent="1">
          <mxGeometry x="115.92" y="178" width="2" height="2" as="geometry" />
        </mxCell>
        <mxCell id="8xzKFLjRtHm6hBmf5HE1-37" value="" style="rounded=0;whiteSpace=wrap;html=1;strokeWidth=0.5;fillColor=#f8cecc;strokeColor=#b85450;" vertex="1" parent="1">
          <mxGeometry x="117.92" y="178" width="2" height="2" as="geometry" />
        </mxCell>
        <mxCell id="8xzKFLjRtHm6hBmf5HE1-38" value="" style="rounded=0;whiteSpace=wrap;html=1;strokeWidth=0.5;" vertex="1" parent="1">
          <mxGeometry x="119.92" y="178" width="2" height="2" as="geometry" />
        </mxCell>
        <mxCell id="8xzKFLjRtHm6hBmf5HE1-39" value="" style="rounded=0;whiteSpace=wrap;html=1;strokeWidth=0.5;" vertex="1" parent="1">
          <mxGeometry x="121.92" y="178" width="2" height="2" as="geometry" />
        </mxCell>
        <mxCell id="8xzKFLjRtHm6hBmf5HE1-40" value="" style="rounded=0;whiteSpace=wrap;html=1;strokeWidth=0.5;" vertex="1" parent="1">
          <mxGeometry x="123.92" y="178" width="2" height="2" as="geometry" />
        </mxCell>
        <mxCell id="8xzKFLjRtHm6hBmf5HE1-41" value="" style="rounded=0;whiteSpace=wrap;html=1;strokeWidth=0.5;" vertex="1" parent="1">
          <mxGeometry x="125.92" y="178" width="2" height="2" as="geometry" />
        </mxCell>
        <mxCell id="8xzKFLjRtHm6hBmf5HE1-42" value="" style="rounded=0;whiteSpace=wrap;html=1;strokeWidth=0.5;fillColor=#f8cecc;strokeColor=#b85450;" vertex="1" parent="1">
          <mxGeometry x="111.92" y="180" width="2" height="2" as="geometry" />
        </mxCell>
        <mxCell id="8xzKFLjRtHm6hBmf5HE1-43" value="" style="rounded=0;whiteSpace=wrap;html=1;strokeWidth=0.5;fillColor=#f8cecc;strokeColor=#b85450;" vertex="1" parent="1">
          <mxGeometry x="113.92" y="180" width="2" height="2" as="geometry" />
        </mxCell>
        <mxCell id="8xzKFLjRtHm6hBmf5HE1-44" value="" style="rounded=0;whiteSpace=wrap;html=1;strokeWidth=0.5;fillColor=#f8cecc;strokeColor=#b85450;" vertex="1" parent="1">
          <mxGeometry x="115.92" y="180" width="2" height="2" as="geometry" />
        </mxCell>
        <mxCell id="8xzKFLjRtHm6hBmf5HE1-45" value="" style="rounded=0;whiteSpace=wrap;html=1;strokeWidth=0.5;fillColor=#f8cecc;strokeColor=#b85450;" vertex="1" parent="1">
          <mxGeometry x="117.92" y="180" width="2" height="2" as="geometry" />
        </mxCell>
        <mxCell id="8xzKFLjRtHm6hBmf5HE1-46" value="" style="rounded=0;whiteSpace=wrap;html=1;strokeWidth=0.5;fillColor=#f8cecc;strokeColor=#b85450;" vertex="1" parent="1">
          <mxGeometry x="119.92" y="180" width="2" height="2" as="geometry" />
        </mxCell>
        <mxCell id="8xzKFLjRtHm6hBmf5HE1-47" value="" style="rounded=0;whiteSpace=wrap;html=1;strokeWidth=0.5;fillColor=#f8cecc;strokeColor=#b85450;" vertex="1" parent="1">
          <mxGeometry x="121.92" y="180" width="2" height="2" as="geometry" />
        </mxCell>
        <mxCell id="8xzKFLjRtHm6hBmf5HE1-48" value="" style="rounded=0;whiteSpace=wrap;html=1;strokeWidth=0.5;fillColor=#f8cecc;strokeColor=#b85450;" vertex="1" parent="1">
          <mxGeometry x="123.92" y="180" width="2" height="2" as="geometry" />
        </mxCell>
        <mxCell id="8xzKFLjRtHm6hBmf5HE1-49" value="" style="rounded=0;whiteSpace=wrap;html=1;strokeWidth=0.5;" vertex="1" parent="1">
          <mxGeometry x="125.92" y="180" width="2" height="2" as="geometry" />
        </mxCell>
        <mxCell id="8xzKFLjRtHm6hBmf5HE1-50" value="" style="rounded=0;whiteSpace=wrap;html=1;strokeWidth=0.5;fillColor=#f8cecc;strokeColor=#b85450;" vertex="1" parent="1">
          <mxGeometry x="111.92" y="182" width="2" height="2" as="geometry" />
        </mxCell>
        <mxCell id="8xzKFLjRtHm6hBmf5HE1-51" value="" style="rounded=0;whiteSpace=wrap;html=1;strokeWidth=0.5;fillColor=#f8cecc;strokeColor=#b85450;" vertex="1" parent="1">
          <mxGeometry x="113.92" y="182" width="2" height="2" as="geometry" />
        </mxCell>
        <mxCell id="8xzKFLjRtHm6hBmf5HE1-52" value="" style="rounded=0;whiteSpace=wrap;html=1;strokeWidth=0.5;fillColor=#f8cecc;strokeColor=#b85450;" vertex="1" parent="1">
          <mxGeometry x="115.92" y="182" width="2" height="2" as="geometry" />
        </mxCell>
        <mxCell id="8xzKFLjRtHm6hBmf5HE1-53" value="" style="rounded=0;whiteSpace=wrap;html=1;strokeWidth=0.5;fillColor=#f8cecc;strokeColor=#b85450;" vertex="1" parent="1">
          <mxGeometry x="117.92" y="182" width="2" height="2" as="geometry" />
        </mxCell>
        <mxCell id="8xzKFLjRtHm6hBmf5HE1-54" value="" style="rounded=0;whiteSpace=wrap;html=1;strokeWidth=0.5;fillColor=#f8cecc;strokeColor=#b85450;" vertex="1" parent="1">
          <mxGeometry x="119.92" y="182" width="2" height="2" as="geometry" />
        </mxCell>
        <mxCell id="8xzKFLjRtHm6hBmf5HE1-55" value="" style="rounded=0;whiteSpace=wrap;html=1;strokeWidth=0.5;fillColor=#f8cecc;strokeColor=#b85450;" vertex="1" parent="1">
          <mxGeometry x="121.92" y="182" width="2" height="2" as="geometry" />
        </mxCell>
        <mxCell id="8xzKFLjRtHm6hBmf5HE1-56" value="" style="rounded=0;whiteSpace=wrap;html=1;strokeWidth=0.5;" vertex="1" parent="1">
          <mxGeometry x="123.92" y="182" width="2" height="2" as="geometry" />
        </mxCell>
        <mxCell id="8xzKFLjRtHm6hBmf5HE1-57" value="" style="rounded=0;whiteSpace=wrap;html=1;strokeWidth=0.5;" vertex="1" parent="1">
          <mxGeometry x="125.92" y="182" width="2" height="2" as="geometry" />
        </mxCell>
        <mxCell id="8xzKFLjRtHm6hBmf5HE1-58" value="" style="rounded=0;whiteSpace=wrap;html=1;strokeWidth=0.5;fillColor=#f8cecc;strokeColor=#b85450;" vertex="1" parent="1">
          <mxGeometry x="111.92" y="184" width="2" height="2" as="geometry" />
        </mxCell>
        <mxCell id="8xzKFLjRtHm6hBmf5HE1-59" value="" style="rounded=0;whiteSpace=wrap;html=1;strokeWidth=0.5;fillColor=#f8cecc;strokeColor=#b85450;" vertex="1" parent="1">
          <mxGeometry x="113.92" y="184" width="2" height="2" as="geometry" />
        </mxCell>
        <mxCell id="8xzKFLjRtHm6hBmf5HE1-60" value="" style="rounded=0;whiteSpace=wrap;html=1;strokeWidth=0.5;fillColor=#f8cecc;strokeColor=#b85450;" vertex="1" parent="1">
          <mxGeometry x="115.92" y="184" width="2" height="2" as="geometry" />
        </mxCell>
        <mxCell id="8xzKFLjRtHm6hBmf5HE1-61" value="" style="rounded=0;whiteSpace=wrap;html=1;strokeWidth=0.5;fillColor=#f8cecc;strokeColor=#b85450;" vertex="1" parent="1">
          <mxGeometry x="117.92" y="184" width="2" height="2" as="geometry" />
        </mxCell>
        <mxCell id="8xzKFLjRtHm6hBmf5HE1-62" value="" style="rounded=0;whiteSpace=wrap;html=1;strokeWidth=0.5;" vertex="1" parent="1">
          <mxGeometry x="119.92" y="184" width="2" height="2" as="geometry" />
        </mxCell>
        <mxCell id="8xzKFLjRtHm6hBmf5HE1-63" value="" style="rounded=0;whiteSpace=wrap;html=1;strokeWidth=0.5;" vertex="1" parent="1">
          <mxGeometry x="121.92" y="184" width="2" height="2" as="geometry" />
        </mxCell>
        <mxCell id="8xzKFLjRtHm6hBmf5HE1-64" value="" style="rounded=0;whiteSpace=wrap;html=1;strokeWidth=0.5;" vertex="1" parent="1">
          <mxGeometry x="123.92" y="184" width="2" height="2" as="geometry" />
        </mxCell>
        <mxCell id="8xzKFLjRtHm6hBmf5HE1-65" value="" style="rounded=0;whiteSpace=wrap;html=1;strokeWidth=0.5;" vertex="1" parent="1">
          <mxGeometry x="125.92" y="184" width="2" height="2" as="geometry" />
        </mxCell>
        <mxCell id="8xzKFLjRtHm6hBmf5HE1-66" value="" style="rounded=0;whiteSpace=wrap;html=1;strokeWidth=0.5;fillColor=#f8cecc;strokeColor=#b85450;" vertex="1" parent="1">
          <mxGeometry x="111.92" y="186" width="2" height="2" as="geometry" />
        </mxCell>
        <mxCell id="8xzKFLjRtHm6hBmf5HE1-67" value="" style="rounded=0;whiteSpace=wrap;html=1;strokeWidth=0.5;fillColor=#f8cecc;strokeColor=#b85450;" vertex="1" parent="1">
          <mxGeometry x="113.92" y="186" width="2" height="2" as="geometry" />
        </mxCell>
        <mxCell id="8xzKFLjRtHm6hBmf5HE1-68" value="" style="rounded=0;whiteSpace=wrap;html=1;strokeWidth=0.5;" vertex="1" parent="1">
          <mxGeometry x="115.92" y="186" width="2" height="2" as="geometry" />
        </mxCell>
        <mxCell id="8xzKFLjRtHm6hBmf5HE1-69" value="" style="rounded=0;whiteSpace=wrap;html=1;strokeWidth=0.5;" vertex="1" parent="1">
          <mxGeometry x="117.92" y="186" width="2" height="2" as="geometry" />
        </mxCell>
        <mxCell id="8xzKFLjRtHm6hBmf5HE1-70" value="" style="rounded=0;whiteSpace=wrap;html=1;strokeWidth=0.5;" vertex="1" parent="1">
          <mxGeometry x="119.92" y="186" width="2" height="2" as="geometry" />
        </mxCell>
        <mxCell id="8xzKFLjRtHm6hBmf5HE1-71" value="" style="rounded=0;whiteSpace=wrap;html=1;strokeWidth=0.5;" vertex="1" parent="1">
          <mxGeometry x="121.92" y="186" width="2" height="2" as="geometry" />
        </mxCell>
        <mxCell id="8xzKFLjRtHm6hBmf5HE1-72" value="" style="rounded=0;whiteSpace=wrap;html=1;strokeWidth=0.5;" vertex="1" parent="1">
          <mxGeometry x="123.92" y="186" width="2" height="2" as="geometry" />
        </mxCell>
        <mxCell id="8xzKFLjRtHm6hBmf5HE1-73" value="" style="rounded=0;whiteSpace=wrap;html=1;strokeWidth=0.5;" vertex="1" parent="1">
          <mxGeometry x="125.92" y="186" width="2" height="2" as="geometry" />
        </mxCell>
        <mxCell id="8xzKFLjRtHm6hBmf5HE1-74" value="" style="rounded=0;whiteSpace=wrap;html=1;strokeWidth=0.5;fillColor=#f8cecc;strokeColor=#b85450;" vertex="1" parent="1">
          <mxGeometry x="111.92" y="188" width="2" height="2" as="geometry" />
        </mxCell>
        <mxCell id="8xzKFLjRtHm6hBmf5HE1-75" value="" style="rounded=0;whiteSpace=wrap;html=1;strokeWidth=0.5;" vertex="1" parent="1">
          <mxGeometry x="113.92" y="188" width="2" height="2" as="geometry" />
        </mxCell>
        <mxCell id="8xzKFLjRtHm6hBmf5HE1-76" value="" style="rounded=0;whiteSpace=wrap;html=1;strokeWidth=0.5;" vertex="1" parent="1">
          <mxGeometry x="115.92" y="188" width="2" height="2" as="geometry" />
        </mxCell>
        <mxCell id="8xzKFLjRtHm6hBmf5HE1-77" value="" style="rounded=0;whiteSpace=wrap;html=1;strokeWidth=0.5;" vertex="1" parent="1">
          <mxGeometry x="117.92" y="188" width="2" height="2" as="geometry" />
        </mxCell>
        <mxCell id="8xzKFLjRtHm6hBmf5HE1-78" value="" style="rounded=0;whiteSpace=wrap;html=1;strokeWidth=0.5;" vertex="1" parent="1">
          <mxGeometry x="119.92" y="188" width="2" height="2" as="geometry" />
        </mxCell>
        <mxCell id="8xzKFLjRtHm6hBmf5HE1-79" value="" style="rounded=0;whiteSpace=wrap;html=1;strokeWidth=0.5;" vertex="1" parent="1">
          <mxGeometry x="121.92" y="188" width="2" height="2" as="geometry" />
        </mxCell>
        <mxCell id="8xzKFLjRtHm6hBmf5HE1-80" value="" style="rounded=0;whiteSpace=wrap;html=1;strokeWidth=0.5;" vertex="1" parent="1">
          <mxGeometry x="123.92" y="188" width="2" height="2" as="geometry" />
        </mxCell>
        <mxCell id="8xzKFLjRtHm6hBmf5HE1-81" value="" style="rounded=0;whiteSpace=wrap;html=1;strokeWidth=0.5;" vertex="1" parent="1">
          <mxGeometry x="125.92" y="188" width="2" height="2" as="geometry" />
        </mxCell>
        <mxCell id="8xzKFLjRtHm6hBmf5HE1-82" value="" style="rounded=0;whiteSpace=wrap;html=1;strokeWidth=0.5;" vertex="1" parent="1">
          <mxGeometry x="151.92" y="175" width="2" height="2" as="geometry" />
        </mxCell>
        <mxCell id="8xzKFLjRtHm6hBmf5HE1-83" value="" style="rounded=0;whiteSpace=wrap;html=1;strokeWidth=0.5;" vertex="1" parent="1">
          <mxGeometry x="153.92" y="175" width="2" height="2" as="geometry" />
        </mxCell>
        <mxCell id="8xzKFLjRtHm6hBmf5HE1-84" value="" style="rounded=0;whiteSpace=wrap;html=1;strokeWidth=0.5;" vertex="1" parent="1">
          <mxGeometry x="155.92" y="175" width="2" height="2" as="geometry" />
        </mxCell>
        <mxCell id="8xzKFLjRtHm6hBmf5HE1-85" value="" style="rounded=0;whiteSpace=wrap;html=1;strokeWidth=0.5;" vertex="1" parent="1">
          <mxGeometry x="157.92" y="175" width="2" height="2" as="geometry" />
        </mxCell>
        <mxCell id="8xzKFLjRtHm6hBmf5HE1-86" value="" style="rounded=0;whiteSpace=wrap;html=1;strokeWidth=0.5;" vertex="1" parent="1">
          <mxGeometry x="159.92" y="175" width="2" height="2" as="geometry" />
        </mxCell>
        <mxCell id="8xzKFLjRtHm6hBmf5HE1-87" value="" style="rounded=0;whiteSpace=wrap;html=1;strokeWidth=0.5;" vertex="1" parent="1">
          <mxGeometry x="161.92" y="175" width="2" height="2" as="geometry" />
        </mxCell>
        <mxCell id="8xzKFLjRtHm6hBmf5HE1-88" value="" style="rounded=0;whiteSpace=wrap;html=1;strokeWidth=0.5;" vertex="1" parent="1">
          <mxGeometry x="163.92" y="175" width="2" height="2" as="geometry" />
        </mxCell>
        <mxCell id="8xzKFLjRtHm6hBmf5HE1-89" value="" style="rounded=0;whiteSpace=wrap;html=1;strokeWidth=0.5;" vertex="1" parent="1">
          <mxGeometry x="165.92" y="175" width="2" height="2" as="geometry" />
        </mxCell>
        <mxCell id="8xzKFLjRtHm6hBmf5HE1-90" value="" style="rounded=0;whiteSpace=wrap;html=1;strokeWidth=0.5;" vertex="1" parent="1">
          <mxGeometry x="151.92" y="177" width="2" height="2" as="geometry" />
        </mxCell>
        <mxCell id="8xzKFLjRtHm6hBmf5HE1-91" value="" style="rounded=0;whiteSpace=wrap;html=1;strokeWidth=0.5;" vertex="1" parent="1">
          <mxGeometry x="153.92" y="177" width="2" height="2" as="geometry" />
        </mxCell>
        <mxCell id="8xzKFLjRtHm6hBmf5HE1-92" value="" style="rounded=0;whiteSpace=wrap;html=1;strokeWidth=0.5;" vertex="1" parent="1">
          <mxGeometry x="155.92" y="177" width="2" height="2" as="geometry" />
        </mxCell>
        <mxCell id="8xzKFLjRtHm6hBmf5HE1-93" value="" style="rounded=0;whiteSpace=wrap;html=1;strokeWidth=0.5;" vertex="1" parent="1">
          <mxGeometry x="157.92" y="177" width="2" height="2" as="geometry" />
        </mxCell>
        <mxCell id="8xzKFLjRtHm6hBmf5HE1-94" value="" style="rounded=0;whiteSpace=wrap;html=1;strokeWidth=0.5;" vertex="1" parent="1">
          <mxGeometry x="159.92" y="177" width="2" height="2" as="geometry" />
        </mxCell>
        <mxCell id="8xzKFLjRtHm6hBmf5HE1-95" value="" style="rounded=0;whiteSpace=wrap;html=1;strokeWidth=0.5;" vertex="1" parent="1">
          <mxGeometry x="161.92" y="177" width="2" height="2" as="geometry" />
        </mxCell>
        <mxCell id="8xzKFLjRtHm6hBmf5HE1-96" value="" style="rounded=0;whiteSpace=wrap;html=1;strokeWidth=0.5;" vertex="1" parent="1">
          <mxGeometry x="163.92" y="177" width="2" height="2" as="geometry" />
        </mxCell>
        <mxCell id="8xzKFLjRtHm6hBmf5HE1-97" value="" style="rounded=0;whiteSpace=wrap;html=1;strokeWidth=0.5;" vertex="1" parent="1">
          <mxGeometry x="165.92" y="177" width="2" height="2" as="geometry" />
        </mxCell>
        <mxCell id="8xzKFLjRtHm6hBmf5HE1-98" value="" style="rounded=0;whiteSpace=wrap;html=1;strokeWidth=0.5;" vertex="1" parent="1">
          <mxGeometry x="151.92" y="179" width="2" height="2" as="geometry" />
        </mxCell>
        <mxCell id="8xzKFLjRtHm6hBmf5HE1-99" value="" style="rounded=0;whiteSpace=wrap;html=1;strokeWidth=0.5;" vertex="1" parent="1">
          <mxGeometry x="153.92" y="179" width="2" height="2" as="geometry" />
        </mxCell>
        <mxCell id="8xzKFLjRtHm6hBmf5HE1-100" value="" style="rounded=0;whiteSpace=wrap;html=1;strokeWidth=0.5;" vertex="1" parent="1">
          <mxGeometry x="155.92" y="179" width="2" height="2" as="geometry" />
        </mxCell>
        <mxCell id="8xzKFLjRtHm6hBmf5HE1-101" value="" style="rounded=0;whiteSpace=wrap;html=1;strokeWidth=0.5;" vertex="1" parent="1">
          <mxGeometry x="157.92" y="179" width="2" height="2" as="geometry" />
        </mxCell>
        <mxCell id="8xzKFLjRtHm6hBmf5HE1-102" value="" style="rounded=0;whiteSpace=wrap;html=1;strokeWidth=0.5;" vertex="1" parent="1">
          <mxGeometry x="159.92" y="179" width="2" height="2" as="geometry" />
        </mxCell>
        <mxCell id="8xzKFLjRtHm6hBmf5HE1-103" value="" style="rounded=0;whiteSpace=wrap;html=1;strokeWidth=0.5;" vertex="1" parent="1">
          <mxGeometry x="161.92" y="179" width="2" height="2" as="geometry" />
        </mxCell>
        <mxCell id="8xzKFLjRtHm6hBmf5HE1-104" value="" style="rounded=0;whiteSpace=wrap;html=1;strokeWidth=0.5;" vertex="1" parent="1">
          <mxGeometry x="163.92" y="179" width="2" height="2" as="geometry" />
        </mxCell>
        <mxCell id="8xzKFLjRtHm6hBmf5HE1-105" value="" style="rounded=0;whiteSpace=wrap;html=1;strokeWidth=0.5;" vertex="1" parent="1">
          <mxGeometry x="165.92" y="179" width="2" height="2" as="geometry" />
        </mxCell>
        <mxCell id="8xzKFLjRtHm6hBmf5HE1-106" value="" style="rounded=0;whiteSpace=wrap;html=1;strokeWidth=0.5;" vertex="1" parent="1">
          <mxGeometry x="151.92" y="181" width="2" height="2" as="geometry" />
        </mxCell>
        <mxCell id="8xzKFLjRtHm6hBmf5HE1-107" value="" style="rounded=0;whiteSpace=wrap;html=1;strokeWidth=0.5;" vertex="1" parent="1">
          <mxGeometry x="153.92" y="181" width="2" height="2" as="geometry" />
        </mxCell>
        <mxCell id="8xzKFLjRtHm6hBmf5HE1-108" value="" style="rounded=0;whiteSpace=wrap;html=1;strokeWidth=0.5;" vertex="1" parent="1">
          <mxGeometry x="155.92" y="181" width="2" height="2" as="geometry" />
        </mxCell>
        <mxCell id="8xzKFLjRtHm6hBmf5HE1-109" value="" style="rounded=0;whiteSpace=wrap;html=1;strokeWidth=0.5;" vertex="1" parent="1">
          <mxGeometry x="157.92" y="181" width="2" height="2" as="geometry" />
        </mxCell>
        <mxCell id="8xzKFLjRtHm6hBmf5HE1-110" value="" style="rounded=0;whiteSpace=wrap;html=1;strokeWidth=0.5;" vertex="1" parent="1">
          <mxGeometry x="159.92" y="181" width="2" height="2" as="geometry" />
        </mxCell>
        <mxCell id="8xzKFLjRtHm6hBmf5HE1-111" value="" style="rounded=0;whiteSpace=wrap;html=1;strokeWidth=0.5;" vertex="1" parent="1">
          <mxGeometry x="161.92" y="181" width="2" height="2" as="geometry" />
        </mxCell>
        <mxCell id="8xzKFLjRtHm6hBmf5HE1-112" value="" style="rounded=0;whiteSpace=wrap;html=1;strokeWidth=0.5;" vertex="1" parent="1">
          <mxGeometry x="163.92" y="181" width="2" height="2" as="geometry" />
        </mxCell>
        <mxCell id="8xzKFLjRtHm6hBmf5HE1-113" value="" style="rounded=0;whiteSpace=wrap;html=1;strokeWidth=0.5;" vertex="1" parent="1">
          <mxGeometry x="165.92" y="181" width="2" height="2" as="geometry" />
        </mxCell>
        <mxCell id="8xzKFLjRtHm6hBmf5HE1-114" value="" style="rounded=0;whiteSpace=wrap;html=1;strokeWidth=0.5;" vertex="1" parent="1">
          <mxGeometry x="151.92" y="183" width="2" height="2" as="geometry" />
        </mxCell>
        <mxCell id="8xzKFLjRtHm6hBmf5HE1-115" value="" style="rounded=0;whiteSpace=wrap;html=1;strokeWidth=0.5;" vertex="1" parent="1">
          <mxGeometry x="153.92" y="183" width="2" height="2" as="geometry" />
        </mxCell>
        <mxCell id="8xzKFLjRtHm6hBmf5HE1-116" value="" style="rounded=0;whiteSpace=wrap;html=1;strokeWidth=0.5;" vertex="1" parent="1">
          <mxGeometry x="155.92" y="183" width="2" height="2" as="geometry" />
        </mxCell>
        <mxCell id="8xzKFLjRtHm6hBmf5HE1-117" value="" style="rounded=0;whiteSpace=wrap;html=1;strokeWidth=0.5;" vertex="1" parent="1">
          <mxGeometry x="157.92" y="183" width="2" height="2" as="geometry" />
        </mxCell>
        <mxCell id="8xzKFLjRtHm6hBmf5HE1-118" value="" style="rounded=0;whiteSpace=wrap;html=1;strokeWidth=0.5;" vertex="1" parent="1">
          <mxGeometry x="159.92" y="183" width="2" height="2" as="geometry" />
        </mxCell>
        <mxCell id="8xzKFLjRtHm6hBmf5HE1-119" value="" style="rounded=0;whiteSpace=wrap;html=1;strokeWidth=0.5;" vertex="1" parent="1">
          <mxGeometry x="161.92" y="183" width="2" height="2" as="geometry" />
        </mxCell>
        <mxCell id="8xzKFLjRtHm6hBmf5HE1-120" value="" style="rounded=0;whiteSpace=wrap;html=1;strokeWidth=0.5;" vertex="1" parent="1">
          <mxGeometry x="163.92" y="183" width="2" height="2" as="geometry" />
        </mxCell>
        <mxCell id="8xzKFLjRtHm6hBmf5HE1-121" value="" style="rounded=0;whiteSpace=wrap;html=1;strokeWidth=0.5;" vertex="1" parent="1">
          <mxGeometry x="165.92" y="183" width="2" height="2" as="geometry" />
        </mxCell>
        <mxCell id="8xzKFLjRtHm6hBmf5HE1-122" value="" style="rounded=0;whiteSpace=wrap;html=1;strokeWidth=0.5;" vertex="1" parent="1">
          <mxGeometry x="151.92" y="185" width="2" height="2" as="geometry" />
        </mxCell>
        <mxCell id="8xzKFLjRtHm6hBmf5HE1-123" value="" style="rounded=0;whiteSpace=wrap;html=1;strokeWidth=0.5;" vertex="1" parent="1">
          <mxGeometry x="153.92" y="185" width="2" height="2" as="geometry" />
        </mxCell>
        <mxCell id="8xzKFLjRtHm6hBmf5HE1-124" value="" style="rounded=0;whiteSpace=wrap;html=1;strokeWidth=0.5;" vertex="1" parent="1">
          <mxGeometry x="155.92" y="185" width="2" height="2" as="geometry" />
        </mxCell>
        <mxCell id="8xzKFLjRtHm6hBmf5HE1-125" value="" style="rounded=0;whiteSpace=wrap;html=1;strokeWidth=0.5;" vertex="1" parent="1">
          <mxGeometry x="157.92" y="185" width="2" height="2" as="geometry" />
        </mxCell>
        <mxCell id="8xzKFLjRtHm6hBmf5HE1-126" value="" style="rounded=0;whiteSpace=wrap;html=1;strokeWidth=0.5;" vertex="1" parent="1">
          <mxGeometry x="159.92" y="185" width="2" height="2" as="geometry" />
        </mxCell>
        <mxCell id="8xzKFLjRtHm6hBmf5HE1-127" value="" style="rounded=0;whiteSpace=wrap;html=1;strokeWidth=0.5;" vertex="1" parent="1">
          <mxGeometry x="161.92" y="185" width="2" height="2" as="geometry" />
        </mxCell>
        <mxCell id="8xzKFLjRtHm6hBmf5HE1-128" value="" style="rounded=0;whiteSpace=wrap;html=1;strokeWidth=0.5;" vertex="1" parent="1">
          <mxGeometry x="163.92" y="185" width="2" height="2" as="geometry" />
        </mxCell>
        <mxCell id="8xzKFLjRtHm6hBmf5HE1-129" value="" style="rounded=0;whiteSpace=wrap;html=1;strokeWidth=0.5;" vertex="1" parent="1">
          <mxGeometry x="165.92" y="185" width="2" height="2" as="geometry" />
        </mxCell>
        <mxCell id="8xzKFLjRtHm6hBmf5HE1-130" value="" style="rounded=0;whiteSpace=wrap;html=1;strokeWidth=0.5;" vertex="1" parent="1">
          <mxGeometry x="151.92" y="187" width="2" height="2" as="geometry" />
        </mxCell>
        <mxCell id="8xzKFLjRtHm6hBmf5HE1-131" value="" style="rounded=0;whiteSpace=wrap;html=1;strokeWidth=0.5;" vertex="1" parent="1">
          <mxGeometry x="153.92" y="187" width="2" height="2" as="geometry" />
        </mxCell>
        <mxCell id="8xzKFLjRtHm6hBmf5HE1-132" value="" style="rounded=0;whiteSpace=wrap;html=1;strokeWidth=0.5;" vertex="1" parent="1">
          <mxGeometry x="155.92" y="187" width="2" height="2" as="geometry" />
        </mxCell>
        <mxCell id="8xzKFLjRtHm6hBmf5HE1-133" value="" style="rounded=0;whiteSpace=wrap;html=1;strokeWidth=0.5;" vertex="1" parent="1">
          <mxGeometry x="157.92" y="187" width="2" height="2" as="geometry" />
        </mxCell>
        <mxCell id="8xzKFLjRtHm6hBmf5HE1-134" value="" style="rounded=0;whiteSpace=wrap;html=1;strokeWidth=0.5;" vertex="1" parent="1">
          <mxGeometry x="159.92" y="187" width="2" height="2" as="geometry" />
        </mxCell>
        <mxCell id="8xzKFLjRtHm6hBmf5HE1-135" value="" style="rounded=0;whiteSpace=wrap;html=1;strokeWidth=0.5;" vertex="1" parent="1">
          <mxGeometry x="161.92" y="187" width="2" height="2" as="geometry" />
        </mxCell>
        <mxCell id="8xzKFLjRtHm6hBmf5HE1-136" value="" style="rounded=0;whiteSpace=wrap;html=1;strokeWidth=0.5;" vertex="1" parent="1">
          <mxGeometry x="163.92" y="187" width="2" height="2" as="geometry" />
        </mxCell>
        <mxCell id="8xzKFLjRtHm6hBmf5HE1-137" value="" style="rounded=0;whiteSpace=wrap;html=1;strokeWidth=0.5;" vertex="1" parent="1">
          <mxGeometry x="165.92" y="187" width="2" height="2" as="geometry" />
        </mxCell>
        <mxCell id="8xzKFLjRtHm6hBmf5HE1-138" value="" style="rounded=0;whiteSpace=wrap;html=1;strokeWidth=0.5;" vertex="1" parent="1">
          <mxGeometry x="151.92" y="189" width="2" height="2" as="geometry" />
        </mxCell>
        <mxCell id="8xzKFLjRtHm6hBmf5HE1-139" value="" style="rounded=0;whiteSpace=wrap;html=1;strokeWidth=0.5;" vertex="1" parent="1">
          <mxGeometry x="153.92" y="189" width="2" height="2" as="geometry" />
        </mxCell>
        <mxCell id="8xzKFLjRtHm6hBmf5HE1-140" value="" style="rounded=0;whiteSpace=wrap;html=1;strokeWidth=0.5;" vertex="1" parent="1">
          <mxGeometry x="155.92" y="189" width="2" height="2" as="geometry" />
        </mxCell>
        <mxCell id="8xzKFLjRtHm6hBmf5HE1-141" value="" style="rounded=0;whiteSpace=wrap;html=1;strokeWidth=0.5;" vertex="1" parent="1">
          <mxGeometry x="157.92" y="189" width="2" height="2" as="geometry" />
        </mxCell>
        <mxCell id="8xzKFLjRtHm6hBmf5HE1-142" value="" style="rounded=0;whiteSpace=wrap;html=1;strokeWidth=0.5;" vertex="1" parent="1">
          <mxGeometry x="159.92" y="189" width="2" height="2" as="geometry" />
        </mxCell>
        <mxCell id="8xzKFLjRtHm6hBmf5HE1-143" value="" style="rounded=0;whiteSpace=wrap;html=1;strokeWidth=0.5;" vertex="1" parent="1">
          <mxGeometry x="161.92" y="189" width="2" height="2" as="geometry" />
        </mxCell>
        <mxCell id="8xzKFLjRtHm6hBmf5HE1-144" value="" style="rounded=0;whiteSpace=wrap;html=1;strokeWidth=0.5;" vertex="1" parent="1">
          <mxGeometry x="163.92" y="189" width="2" height="2" as="geometry" />
        </mxCell>
        <mxCell id="8xzKFLjRtHm6hBmf5HE1-145" value="" style="rounded=0;whiteSpace=wrap;html=1;strokeWidth=0.5;" vertex="1" parent="1">
          <mxGeometry x="165.92" y="189" width="2" height="2" as="geometry" />
        </mxCell>
        <mxCell id="8xzKFLjRtHm6hBmf5HE1-146" value="" style="rounded=0;whiteSpace=wrap;html=1;strokeWidth=0.5;" vertex="1" parent="1">
          <mxGeometry x="191.92" y="175" width="2" height="2" as="geometry" />
        </mxCell>
        <mxCell id="8xzKFLjRtHm6hBmf5HE1-147" value="" style="rounded=0;whiteSpace=wrap;html=1;strokeWidth=0.5;" vertex="1" parent="1">
          <mxGeometry x="193.92" y="175" width="2" height="2" as="geometry" />
        </mxCell>
        <mxCell id="8xzKFLjRtHm6hBmf5HE1-148" value="" style="rounded=0;whiteSpace=wrap;html=1;strokeWidth=0.5;" vertex="1" parent="1">
          <mxGeometry x="195.92" y="175" width="2" height="2" as="geometry" />
        </mxCell>
        <mxCell id="8xzKFLjRtHm6hBmf5HE1-149" value="" style="rounded=0;whiteSpace=wrap;html=1;strokeWidth=0.5;fillColor=#f8cecc;strokeColor=#b85450;" vertex="1" parent="1">
          <mxGeometry x="197.92" y="175" width="2" height="2" as="geometry" />
        </mxCell>
        <mxCell id="8xzKFLjRtHm6hBmf5HE1-150" value="" style="rounded=0;whiteSpace=wrap;html=1;strokeWidth=0.5;" vertex="1" parent="1">
          <mxGeometry x="199.92" y="175" width="2" height="2" as="geometry" />
        </mxCell>
        <mxCell id="8xzKFLjRtHm6hBmf5HE1-151" value="" style="rounded=0;whiteSpace=wrap;html=1;strokeWidth=0.5;" vertex="1" parent="1">
          <mxGeometry x="201.92" y="175" width="2" height="2" as="geometry" />
        </mxCell>
        <mxCell id="8xzKFLjRtHm6hBmf5HE1-152" value="" style="rounded=0;whiteSpace=wrap;html=1;strokeWidth=0.5;" vertex="1" parent="1">
          <mxGeometry x="203.92" y="175" width="2" height="2" as="geometry" />
        </mxCell>
        <mxCell id="8xzKFLjRtHm6hBmf5HE1-153" value="" style="rounded=0;whiteSpace=wrap;html=1;strokeWidth=0.5;" vertex="1" parent="1">
          <mxGeometry x="205.92" y="175" width="2" height="2" as="geometry" />
        </mxCell>
        <mxCell id="8xzKFLjRtHm6hBmf5HE1-154" value="" style="rounded=0;whiteSpace=wrap;html=1;strokeWidth=0.5;" vertex="1" parent="1">
          <mxGeometry x="191.92" y="177" width="2" height="2" as="geometry" />
        </mxCell>
        <mxCell id="8xzKFLjRtHm6hBmf5HE1-155" value="" style="rounded=0;whiteSpace=wrap;html=1;strokeWidth=0.5;" vertex="1" parent="1">
          <mxGeometry x="193.92" y="177" width="2" height="2" as="geometry" />
        </mxCell>
        <mxCell id="8xzKFLjRtHm6hBmf5HE1-156" value="" style="rounded=0;whiteSpace=wrap;html=1;strokeWidth=0.5;" vertex="1" parent="1">
          <mxGeometry x="195.92" y="177" width="2" height="2" as="geometry" />
        </mxCell>
        <mxCell id="8xzKFLjRtHm6hBmf5HE1-157" value="" style="rounded=0;whiteSpace=wrap;html=1;strokeWidth=0.5;fillColor=#f8cecc;strokeColor=#b85450;" vertex="1" parent="1">
          <mxGeometry x="197.92" y="177" width="2" height="2" as="geometry" />
        </mxCell>
        <mxCell id="8xzKFLjRtHm6hBmf5HE1-158" value="" style="rounded=0;whiteSpace=wrap;html=1;strokeWidth=0.5;fillColor=#f8cecc;strokeColor=#b85450;" vertex="1" parent="1">
          <mxGeometry x="199.92" y="177" width="2" height="2" as="geometry" />
        </mxCell>
        <mxCell id="8xzKFLjRtHm6hBmf5HE1-159" value="" style="rounded=0;whiteSpace=wrap;html=1;strokeWidth=0.5;" vertex="1" parent="1">
          <mxGeometry x="201.92" y="177" width="2" height="2" as="geometry" />
        </mxCell>
        <mxCell id="8xzKFLjRtHm6hBmf5HE1-160" value="" style="rounded=0;whiteSpace=wrap;html=1;strokeWidth=0.5;" vertex="1" parent="1">
          <mxGeometry x="203.92" y="177" width="2" height="2" as="geometry" />
        </mxCell>
        <mxCell id="8xzKFLjRtHm6hBmf5HE1-161" value="" style="rounded=0;whiteSpace=wrap;html=1;strokeWidth=0.5;" vertex="1" parent="1">
          <mxGeometry x="205.92" y="177" width="2" height="2" as="geometry" />
        </mxCell>
        <mxCell id="8xzKFLjRtHm6hBmf5HE1-162" value="" style="rounded=0;whiteSpace=wrap;html=1;strokeWidth=0.5;" vertex="1" parent="1">
          <mxGeometry x="191.92" y="179" width="2" height="2" as="geometry" />
        </mxCell>
        <mxCell id="8xzKFLjRtHm6hBmf5HE1-163" value="" style="rounded=0;whiteSpace=wrap;html=1;strokeWidth=0.5;" vertex="1" parent="1">
          <mxGeometry x="193.92" y="179" width="2" height="2" as="geometry" />
        </mxCell>
        <mxCell id="8xzKFLjRtHm6hBmf5HE1-164" value="" style="rounded=0;whiteSpace=wrap;html=1;strokeWidth=0.5;" vertex="1" parent="1">
          <mxGeometry x="195.92" y="179" width="2" height="2" as="geometry" />
        </mxCell>
        <mxCell id="8xzKFLjRtHm6hBmf5HE1-165" value="" style="rounded=0;whiteSpace=wrap;html=1;strokeWidth=0.5;fillColor=#f8cecc;strokeColor=#b85450;" vertex="1" parent="1">
          <mxGeometry x="197.92" y="179" width="2" height="2" as="geometry" />
        </mxCell>
        <mxCell id="8xzKFLjRtHm6hBmf5HE1-166" value="" style="rounded=0;whiteSpace=wrap;html=1;strokeWidth=0.5;fillColor=#f8cecc;strokeColor=#b85450;" vertex="1" parent="1">
          <mxGeometry x="199.92" y="179" width="2" height="2" as="geometry" />
        </mxCell>
        <mxCell id="8xzKFLjRtHm6hBmf5HE1-167" value="" style="rounded=0;whiteSpace=wrap;html=1;strokeWidth=0.5;" vertex="1" parent="1">
          <mxGeometry x="201.92" y="179" width="2" height="2" as="geometry" />
        </mxCell>
        <mxCell id="8xzKFLjRtHm6hBmf5HE1-168" value="" style="rounded=0;whiteSpace=wrap;html=1;strokeWidth=0.5;" vertex="1" parent="1">
          <mxGeometry x="203.92" y="179" width="2" height="2" as="geometry" />
        </mxCell>
        <mxCell id="8xzKFLjRtHm6hBmf5HE1-169" value="" style="rounded=0;whiteSpace=wrap;html=1;strokeWidth=0.5;" vertex="1" parent="1">
          <mxGeometry x="205.92" y="179" width="2" height="2" as="geometry" />
        </mxCell>
        <mxCell id="8xzKFLjRtHm6hBmf5HE1-170" value="" style="rounded=0;whiteSpace=wrap;html=1;strokeWidth=0.5;" vertex="1" parent="1">
          <mxGeometry x="191.92" y="181" width="2" height="2" as="geometry" />
        </mxCell>
        <mxCell id="8xzKFLjRtHm6hBmf5HE1-171" value="" style="rounded=0;whiteSpace=wrap;html=1;strokeWidth=0.5;" vertex="1" parent="1">
          <mxGeometry x="193.92" y="181" width="2" height="2" as="geometry" />
        </mxCell>
        <mxCell id="8xzKFLjRtHm6hBmf5HE1-172" value="" style="rounded=0;whiteSpace=wrap;html=1;strokeWidth=0.5;fillColor=#f8cecc;strokeColor=#b85450;" vertex="1" parent="1">
          <mxGeometry x="195.92" y="181" width="2" height="2" as="geometry" />
        </mxCell>
        <mxCell id="8xzKFLjRtHm6hBmf5HE1-173" value="" style="rounded=0;whiteSpace=wrap;html=1;strokeWidth=0.5;fillColor=#f8cecc;strokeColor=#b85450;" vertex="1" parent="1">
          <mxGeometry x="197.92" y="181" width="2" height="2" as="geometry" />
        </mxCell>
        <mxCell id="8xzKFLjRtHm6hBmf5HE1-174" value="" style="rounded=0;whiteSpace=wrap;html=1;strokeWidth=0.5;fillColor=#f8cecc;strokeColor=#b85450;" vertex="1" parent="1">
          <mxGeometry x="199.92" y="181" width="2" height="2" as="geometry" />
        </mxCell>
        <mxCell id="8xzKFLjRtHm6hBmf5HE1-175" value="" style="rounded=0;whiteSpace=wrap;html=1;strokeWidth=0.5;fillColor=#f8cecc;strokeColor=#b85450;" vertex="1" parent="1">
          <mxGeometry x="201.92" y="181" width="2" height="2" as="geometry" />
        </mxCell>
        <mxCell id="8xzKFLjRtHm6hBmf5HE1-176" value="" style="rounded=0;whiteSpace=wrap;html=1;strokeWidth=0.5;" vertex="1" parent="1">
          <mxGeometry x="203.92" y="181" width="2" height="2" as="geometry" />
        </mxCell>
        <mxCell id="8xzKFLjRtHm6hBmf5HE1-177" value="" style="rounded=0;whiteSpace=wrap;html=1;strokeWidth=0.5;" vertex="1" parent="1">
          <mxGeometry x="205.92" y="181" width="2" height="2" as="geometry" />
        </mxCell>
        <mxCell id="8xzKFLjRtHm6hBmf5HE1-178" value="" style="rounded=0;whiteSpace=wrap;html=1;strokeWidth=0.5;" vertex="1" parent="1">
          <mxGeometry x="191.92" y="183" width="2" height="2" as="geometry" />
        </mxCell>
        <mxCell id="8xzKFLjRtHm6hBmf5HE1-179" value="" style="rounded=0;whiteSpace=wrap;html=1;strokeWidth=0.5;" vertex="1" parent="1">
          <mxGeometry x="193.92" y="183" width="2" height="2" as="geometry" />
        </mxCell>
        <mxCell id="8xzKFLjRtHm6hBmf5HE1-180" value="" style="rounded=0;whiteSpace=wrap;html=1;strokeWidth=0.5;fillColor=#f8cecc;strokeColor=#b85450;" vertex="1" parent="1">
          <mxGeometry x="195.92" y="183" width="2" height="2" as="geometry" />
        </mxCell>
        <mxCell id="8xzKFLjRtHm6hBmf5HE1-181" value="" style="rounded=0;whiteSpace=wrap;html=1;strokeWidth=0.5;fillColor=#f8cecc;strokeColor=#b85450;" vertex="1" parent="1">
          <mxGeometry x="197.92" y="183" width="2" height="2" as="geometry" />
        </mxCell>
        <mxCell id="8xzKFLjRtHm6hBmf5HE1-182" value="" style="rounded=0;whiteSpace=wrap;html=1;strokeWidth=0.5;fillColor=#f8cecc;strokeColor=#b85450;" vertex="1" parent="1">
          <mxGeometry x="199.92" y="183" width="2" height="2" as="geometry" />
        </mxCell>
        <mxCell id="8xzKFLjRtHm6hBmf5HE1-183" value="" style="rounded=0;whiteSpace=wrap;html=1;strokeWidth=0.5;fillColor=#f8cecc;strokeColor=#b85450;" vertex="1" parent="1">
          <mxGeometry x="201.92" y="183" width="2" height="2" as="geometry" />
        </mxCell>
        <mxCell id="8xzKFLjRtHm6hBmf5HE1-184" value="" style="rounded=0;whiteSpace=wrap;html=1;strokeWidth=0.5;" vertex="1" parent="1">
          <mxGeometry x="203.92" y="183" width="2" height="2" as="geometry" />
        </mxCell>
        <mxCell id="8xzKFLjRtHm6hBmf5HE1-185" value="" style="rounded=0;whiteSpace=wrap;html=1;strokeWidth=0.5;" vertex="1" parent="1">
          <mxGeometry x="205.92" y="183" width="2" height="2" as="geometry" />
        </mxCell>
        <mxCell id="8xzKFLjRtHm6hBmf5HE1-186" value="" style="rounded=0;whiteSpace=wrap;html=1;strokeWidth=0.5;" vertex="1" parent="1">
          <mxGeometry x="191.92" y="185" width="2" height="2" as="geometry" />
        </mxCell>
        <mxCell id="8xzKFLjRtHm6hBmf5HE1-187" value="" style="rounded=0;whiteSpace=wrap;html=1;strokeWidth=0.5;fillColor=#f8cecc;strokeColor=#b85450;" vertex="1" parent="1">
          <mxGeometry x="193.92" y="185" width="2" height="2" as="geometry" />
        </mxCell>
        <mxCell id="8xzKFLjRtHm6hBmf5HE1-188" value="" style="rounded=0;whiteSpace=wrap;html=1;strokeWidth=0.5;fillColor=#f8cecc;strokeColor=#b85450;" vertex="1" parent="1">
          <mxGeometry x="195.92" y="185" width="2" height="2" as="geometry" />
        </mxCell>
        <mxCell id="8xzKFLjRtHm6hBmf5HE1-189" value="" style="rounded=0;whiteSpace=wrap;html=1;strokeWidth=0.5;fillColor=#f8cecc;strokeColor=#b85450;" vertex="1" parent="1">
          <mxGeometry x="197.92" y="185" width="2" height="2" as="geometry" />
        </mxCell>
        <mxCell id="8xzKFLjRtHm6hBmf5HE1-190" value="" style="rounded=0;whiteSpace=wrap;html=1;strokeWidth=0.5;fillColor=#f8cecc;strokeColor=#b85450;" vertex="1" parent="1">
          <mxGeometry x="199.92" y="185" width="2" height="2" as="geometry" />
        </mxCell>
        <mxCell id="8xzKFLjRtHm6hBmf5HE1-191" value="" style="rounded=0;whiteSpace=wrap;html=1;strokeWidth=0.5;fillColor=#f8cecc;strokeColor=#b85450;" vertex="1" parent="1">
          <mxGeometry x="201.92" y="185" width="2" height="2" as="geometry" />
        </mxCell>
        <mxCell id="8xzKFLjRtHm6hBmf5HE1-192" value="" style="rounded=0;whiteSpace=wrap;html=1;strokeWidth=0.5;fillColor=#f8cecc;strokeColor=#b85450;" vertex="1" parent="1">
          <mxGeometry x="203.92" y="185" width="2" height="2" as="geometry" />
        </mxCell>
        <mxCell id="8xzKFLjRtHm6hBmf5HE1-193" value="" style="rounded=0;whiteSpace=wrap;html=1;strokeWidth=0.5;" vertex="1" parent="1">
          <mxGeometry x="205.92" y="185" width="2" height="2" as="geometry" />
        </mxCell>
        <mxCell id="8xzKFLjRtHm6hBmf5HE1-194" value="" style="rounded=0;whiteSpace=wrap;html=1;strokeWidth=0.5;" vertex="1" parent="1">
          <mxGeometry x="191.92" y="187" width="2" height="2" as="geometry" />
        </mxCell>
        <mxCell id="8xzKFLjRtHm6hBmf5HE1-195" value="" style="rounded=0;whiteSpace=wrap;html=1;strokeWidth=0.5;fillColor=#f8cecc;strokeColor=#b85450;" vertex="1" parent="1">
          <mxGeometry x="193.92" y="187" width="2" height="2" as="geometry" />
        </mxCell>
        <mxCell id="8xzKFLjRtHm6hBmf5HE1-196" value="" style="rounded=0;whiteSpace=wrap;html=1;strokeWidth=0.5;fillColor=#f8cecc;strokeColor=#b85450;" vertex="1" parent="1">
          <mxGeometry x="195.92" y="187" width="2" height="2" as="geometry" />
        </mxCell>
        <mxCell id="8xzKFLjRtHm6hBmf5HE1-197" value="" style="rounded=0;whiteSpace=wrap;html=1;strokeWidth=0.5;fillColor=#f8cecc;strokeColor=#b85450;" vertex="1" parent="1">
          <mxGeometry x="197.92" y="187" width="2" height="2" as="geometry" />
        </mxCell>
        <mxCell id="8xzKFLjRtHm6hBmf5HE1-198" value="" style="rounded=0;whiteSpace=wrap;html=1;strokeWidth=0.5;fillColor=#f8cecc;strokeColor=#b85450;" vertex="1" parent="1">
          <mxGeometry x="199.92" y="187" width="2" height="2" as="geometry" />
        </mxCell>
        <mxCell id="8xzKFLjRtHm6hBmf5HE1-199" value="" style="rounded=0;whiteSpace=wrap;html=1;strokeWidth=0.5;fillColor=#f8cecc;strokeColor=#b85450;" vertex="1" parent="1">
          <mxGeometry x="201.92" y="187" width="2" height="2" as="geometry" />
        </mxCell>
        <mxCell id="8xzKFLjRtHm6hBmf5HE1-200" value="" style="rounded=0;whiteSpace=wrap;html=1;strokeWidth=0.5;fillColor=#f8cecc;strokeColor=#b85450;" vertex="1" parent="1">
          <mxGeometry x="203.92" y="187" width="2" height="2" as="geometry" />
        </mxCell>
        <mxCell id="8xzKFLjRtHm6hBmf5HE1-201" value="" style="rounded=0;whiteSpace=wrap;html=1;strokeWidth=0.5;" vertex="1" parent="1">
          <mxGeometry x="205.92" y="187" width="2" height="2" as="geometry" />
        </mxCell>
        <mxCell id="8xzKFLjRtHm6hBmf5HE1-202" value="" style="rounded=0;whiteSpace=wrap;html=1;strokeWidth=0.5;fillColor=#f8cecc;strokeColor=#b85450;" vertex="1" parent="1">
          <mxGeometry x="191.92" y="189" width="2" height="2" as="geometry" />
        </mxCell>
        <mxCell id="8xzKFLjRtHm6hBmf5HE1-203" value="" style="rounded=0;whiteSpace=wrap;html=1;strokeWidth=0.5;fillColor=#f8cecc;strokeColor=#b85450;" vertex="1" parent="1">
          <mxGeometry x="193.92" y="189" width="2" height="2" as="geometry" />
        </mxCell>
        <mxCell id="8xzKFLjRtHm6hBmf5HE1-204" value="" style="rounded=0;whiteSpace=wrap;html=1;strokeWidth=0.5;fillColor=#f8cecc;strokeColor=#b85450;" vertex="1" parent="1">
          <mxGeometry x="195.92" y="189" width="2" height="2" as="geometry" />
        </mxCell>
        <mxCell id="8xzKFLjRtHm6hBmf5HE1-205" value="" style="rounded=0;whiteSpace=wrap;html=1;strokeWidth=0.5;fillColor=#f8cecc;strokeColor=#b85450;" vertex="1" parent="1">
          <mxGeometry x="197.92" y="189" width="2" height="2" as="geometry" />
        </mxCell>
        <mxCell id="8xzKFLjRtHm6hBmf5HE1-206" value="" style="rounded=0;whiteSpace=wrap;html=1;strokeWidth=0.5;fillColor=#f8cecc;strokeColor=#b85450;" vertex="1" parent="1">
          <mxGeometry x="199.92" y="189" width="2" height="2" as="geometry" />
        </mxCell>
        <mxCell id="8xzKFLjRtHm6hBmf5HE1-207" value="" style="rounded=0;whiteSpace=wrap;html=1;strokeWidth=0.5;fillColor=#f8cecc;strokeColor=#b85450;" vertex="1" parent="1">
          <mxGeometry x="201.92" y="189" width="2" height="2" as="geometry" />
        </mxCell>
        <mxCell id="8xzKFLjRtHm6hBmf5HE1-208" value="" style="rounded=0;whiteSpace=wrap;html=1;strokeWidth=0.5;fillColor=#f8cecc;strokeColor=#b85450;" vertex="1" parent="1">
          <mxGeometry x="203.92" y="189" width="2" height="2" as="geometry" />
        </mxCell>
        <mxCell id="8xzKFLjRtHm6hBmf5HE1-209" value="" style="rounded=0;whiteSpace=wrap;html=1;strokeWidth=0.5;fillColor=#f8cecc;strokeColor=#b85450;" vertex="1" parent="1">
          <mxGeometry x="205.92" y="189" width="2" height="2" as="geometry" />
        </mxCell>
        <mxCell id="8xzKFLjRtHm6hBmf5HE1-210" value="" style="rounded=0;whiteSpace=wrap;html=1;strokeWidth=0.5;" vertex="1" parent="1">
          <mxGeometry x="271.92" y="175" width="2" height="2" as="geometry" />
        </mxCell>
        <mxCell id="8xzKFLjRtHm6hBmf5HE1-211" value="" style="rounded=0;whiteSpace=wrap;html=1;strokeWidth=0.5;" vertex="1" parent="1">
          <mxGeometry x="273.92" y="175" width="2" height="2" as="geometry" />
        </mxCell>
        <mxCell id="8xzKFLjRtHm6hBmf5HE1-212" value="" style="rounded=0;whiteSpace=wrap;html=1;strokeWidth=0.5;" vertex="1" parent="1">
          <mxGeometry x="275.92" y="175" width="2" height="2" as="geometry" />
        </mxCell>
        <mxCell id="8xzKFLjRtHm6hBmf5HE1-213" value="" style="rounded=0;whiteSpace=wrap;html=1;strokeWidth=0.5;" vertex="1" parent="1">
          <mxGeometry x="277.92" y="175" width="2" height="2" as="geometry" />
        </mxCell>
        <mxCell id="8xzKFLjRtHm6hBmf5HE1-214" value="" style="rounded=0;whiteSpace=wrap;html=1;strokeWidth=0.5;" vertex="1" parent="1">
          <mxGeometry x="279.92" y="175" width="2" height="2" as="geometry" />
        </mxCell>
        <mxCell id="8xzKFLjRtHm6hBmf5HE1-215" value="" style="rounded=0;whiteSpace=wrap;html=1;strokeWidth=0.5;fillColor=#f8cecc;strokeColor=#b85450;" vertex="1" parent="1">
          <mxGeometry x="281.92" y="175" width="2" height="2" as="geometry" />
        </mxCell>
        <mxCell id="8xzKFLjRtHm6hBmf5HE1-216" value="" style="rounded=0;whiteSpace=wrap;html=1;strokeWidth=0.5;" vertex="1" parent="1">
          <mxGeometry x="283.92" y="175" width="2" height="2" as="geometry" />
        </mxCell>
        <mxCell id="8xzKFLjRtHm6hBmf5HE1-217" value="" style="rounded=0;whiteSpace=wrap;html=1;strokeWidth=0.5;" vertex="1" parent="1">
          <mxGeometry x="285.92" y="175" width="2" height="2" as="geometry" />
        </mxCell>
        <mxCell id="8xzKFLjRtHm6hBmf5HE1-218" value="" style="rounded=0;whiteSpace=wrap;html=1;strokeWidth=0.5;" vertex="1" parent="1">
          <mxGeometry x="271.92" y="177" width="2" height="2" as="geometry" />
        </mxCell>
        <mxCell id="8xzKFLjRtHm6hBmf5HE1-219" value="" style="rounded=0;whiteSpace=wrap;html=1;strokeWidth=0.5;" vertex="1" parent="1">
          <mxGeometry x="273.92" y="177" width="2" height="2" as="geometry" />
        </mxCell>
        <mxCell id="8xzKFLjRtHm6hBmf5HE1-220" value="" style="rounded=0;whiteSpace=wrap;html=1;strokeWidth=0.5;" vertex="1" parent="1">
          <mxGeometry x="275.92" y="177" width="2" height="2" as="geometry" />
        </mxCell>
        <mxCell id="8xzKFLjRtHm6hBmf5HE1-221" value="" style="rounded=0;whiteSpace=wrap;html=1;strokeWidth=0.5;" vertex="1" parent="1">
          <mxGeometry x="277.92" y="177" width="2" height="2" as="geometry" />
        </mxCell>
        <mxCell id="8xzKFLjRtHm6hBmf5HE1-222" value="" style="rounded=0;whiteSpace=wrap;html=1;strokeWidth=0.5;fillColor=#f8cecc;strokeColor=#b85450;" vertex="1" parent="1">
          <mxGeometry x="279.92" y="177" width="2" height="2" as="geometry" />
        </mxCell>
        <mxCell id="8xzKFLjRtHm6hBmf5HE1-223" value="" style="rounded=0;whiteSpace=wrap;html=1;strokeWidth=0.5;fillColor=#f8cecc;strokeColor=#b85450;" vertex="1" parent="1">
          <mxGeometry x="281.92" y="177" width="2" height="2" as="geometry" />
        </mxCell>
        <mxCell id="8xzKFLjRtHm6hBmf5HE1-224" value="" style="rounded=0;whiteSpace=wrap;html=1;strokeWidth=0.5;" vertex="1" parent="1">
          <mxGeometry x="283.92" y="177" width="2" height="2" as="geometry" />
        </mxCell>
        <mxCell id="8xzKFLjRtHm6hBmf5HE1-225" value="" style="rounded=0;whiteSpace=wrap;html=1;strokeWidth=0.5;" vertex="1" parent="1">
          <mxGeometry x="285.92" y="177" width="2" height="2" as="geometry" />
        </mxCell>
        <mxCell id="8xzKFLjRtHm6hBmf5HE1-226" value="" style="rounded=0;whiteSpace=wrap;html=1;strokeWidth=0.5;" vertex="1" parent="1">
          <mxGeometry x="271.92" y="179" width="2" height="2" as="geometry" />
        </mxCell>
        <mxCell id="8xzKFLjRtHm6hBmf5HE1-227" value="" style="rounded=0;whiteSpace=wrap;html=1;strokeWidth=0.5;" vertex="1" parent="1">
          <mxGeometry x="273.92" y="179" width="2" height="2" as="geometry" />
        </mxCell>
        <mxCell id="8xzKFLjRtHm6hBmf5HE1-228" value="" style="rounded=0;whiteSpace=wrap;html=1;strokeWidth=0.5;" vertex="1" parent="1">
          <mxGeometry x="275.92" y="179" width="2" height="2" as="geometry" />
        </mxCell>
        <mxCell id="8xzKFLjRtHm6hBmf5HE1-229" value="" style="rounded=0;whiteSpace=wrap;html=1;strokeWidth=0.5;fillColor=#f8cecc;strokeColor=#b85450;" vertex="1" parent="1">
          <mxGeometry x="277.92" y="179" width="2" height="2" as="geometry" />
        </mxCell>
        <mxCell id="8xzKFLjRtHm6hBmf5HE1-230" value="" style="rounded=0;whiteSpace=wrap;html=1;strokeWidth=0.5;fillColor=#f8cecc;strokeColor=#b85450;" vertex="1" parent="1">
          <mxGeometry x="279.92" y="179" width="2" height="2" as="geometry" />
        </mxCell>
        <mxCell id="8xzKFLjRtHm6hBmf5HE1-231" value="" style="rounded=0;whiteSpace=wrap;html=1;strokeWidth=0.5;fillColor=#f8cecc;strokeColor=#b85450;" vertex="1" parent="1">
          <mxGeometry x="281.92" y="179" width="2" height="2" as="geometry" />
        </mxCell>
        <mxCell id="8xzKFLjRtHm6hBmf5HE1-232" value="" style="rounded=0;whiteSpace=wrap;html=1;strokeWidth=0.5;" vertex="1" parent="1">
          <mxGeometry x="283.92" y="179" width="2" height="2" as="geometry" />
        </mxCell>
        <mxCell id="8xzKFLjRtHm6hBmf5HE1-233" value="" style="rounded=0;whiteSpace=wrap;html=1;strokeWidth=0.5;" vertex="1" parent="1">
          <mxGeometry x="285.92" y="179" width="2" height="2" as="geometry" />
        </mxCell>
        <mxCell id="8xzKFLjRtHm6hBmf5HE1-234" value="" style="rounded=0;whiteSpace=wrap;html=1;strokeWidth=0.5;" vertex="1" parent="1">
          <mxGeometry x="271.92" y="181" width="2" height="2" as="geometry" />
        </mxCell>
        <mxCell id="8xzKFLjRtHm6hBmf5HE1-235" value="" style="rounded=0;whiteSpace=wrap;html=1;strokeWidth=0.5;" vertex="1" parent="1">
          <mxGeometry x="273.92" y="181" width="2" height="2" as="geometry" />
        </mxCell>
        <mxCell id="8xzKFLjRtHm6hBmf5HE1-236" value="" style="rounded=0;whiteSpace=wrap;html=1;strokeWidth=0.5;fillColor=#f8cecc;strokeColor=#b85450;" vertex="1" parent="1">
          <mxGeometry x="275.92" y="181" width="2" height="2" as="geometry" />
        </mxCell>
        <mxCell id="8xzKFLjRtHm6hBmf5HE1-237" value="" style="rounded=0;whiteSpace=wrap;html=1;strokeWidth=0.5;fillColor=#f8cecc;strokeColor=#b85450;" vertex="1" parent="1">
          <mxGeometry x="277.92" y="181" width="2" height="2" as="geometry" />
        </mxCell>
        <mxCell id="8xzKFLjRtHm6hBmf5HE1-238" value="" style="rounded=0;whiteSpace=wrap;html=1;strokeWidth=0.5;fillColor=#f8cecc;strokeColor=#b85450;" vertex="1" parent="1">
          <mxGeometry x="279.92" y="181" width="2" height="2" as="geometry" />
        </mxCell>
        <mxCell id="8xzKFLjRtHm6hBmf5HE1-239" value="" style="rounded=0;whiteSpace=wrap;html=1;strokeWidth=0.5;fillColor=#f8cecc;strokeColor=#b85450;" vertex="1" parent="1">
          <mxGeometry x="281.92" y="181" width="2" height="2" as="geometry" />
        </mxCell>
        <mxCell id="8xzKFLjRtHm6hBmf5HE1-240" value="" style="rounded=0;whiteSpace=wrap;html=1;strokeWidth=0.5;" vertex="1" parent="1">
          <mxGeometry x="283.92" y="181" width="2" height="2" as="geometry" />
        </mxCell>
        <mxCell id="8xzKFLjRtHm6hBmf5HE1-241" value="" style="rounded=0;whiteSpace=wrap;html=1;strokeWidth=0.5;" vertex="1" parent="1">
          <mxGeometry x="285.92" y="181" width="2" height="2" as="geometry" />
        </mxCell>
        <mxCell id="8xzKFLjRtHm6hBmf5HE1-242" value="" style="rounded=0;whiteSpace=wrap;html=1;strokeWidth=0.5;" vertex="1" parent="1">
          <mxGeometry x="271.92" y="183" width="2" height="2" as="geometry" />
        </mxCell>
        <mxCell id="8xzKFLjRtHm6hBmf5HE1-243" value="" style="rounded=0;whiteSpace=wrap;html=1;strokeWidth=0.5;fillColor=#f8cecc;strokeColor=#b85450;" vertex="1" parent="1">
          <mxGeometry x="273.92" y="183" width="2" height="2" as="geometry" />
        </mxCell>
        <mxCell id="8xzKFLjRtHm6hBmf5HE1-244" value="" style="rounded=0;whiteSpace=wrap;html=1;strokeWidth=0.5;fillColor=#f8cecc;strokeColor=#b85450;" vertex="1" parent="1">
          <mxGeometry x="275.92" y="183" width="2" height="2" as="geometry" />
        </mxCell>
        <mxCell id="8xzKFLjRtHm6hBmf5HE1-245" value="" style="rounded=0;whiteSpace=wrap;html=1;strokeWidth=0.5;fillColor=#f8cecc;strokeColor=#b85450;" vertex="1" parent="1">
          <mxGeometry x="277.92" y="183" width="2" height="2" as="geometry" />
        </mxCell>
        <mxCell id="8xzKFLjRtHm6hBmf5HE1-246" value="" style="rounded=0;whiteSpace=wrap;html=1;strokeWidth=0.5;fillColor=#f8cecc;strokeColor=#b85450;" vertex="1" parent="1">
          <mxGeometry x="279.92" y="183" width="2" height="2" as="geometry" />
        </mxCell>
        <mxCell id="8xzKFLjRtHm6hBmf5HE1-247" value="" style="rounded=0;whiteSpace=wrap;html=1;strokeWidth=0.5;fillColor=#f8cecc;strokeColor=#b85450;" vertex="1" parent="1">
          <mxGeometry x="281.92" y="183" width="2" height="2" as="geometry" />
        </mxCell>
        <mxCell id="8xzKFLjRtHm6hBmf5HE1-248" value="" style="rounded=0;whiteSpace=wrap;html=1;strokeWidth=0.5;" vertex="1" parent="1">
          <mxGeometry x="283.92" y="183" width="2" height="2" as="geometry" />
        </mxCell>
        <mxCell id="8xzKFLjRtHm6hBmf5HE1-249" value="" style="rounded=0;whiteSpace=wrap;html=1;strokeWidth=0.5;" vertex="1" parent="1">
          <mxGeometry x="285.92" y="183" width="2" height="2" as="geometry" />
        </mxCell>
        <mxCell id="8xzKFLjRtHm6hBmf5HE1-250" value="" style="rounded=0;whiteSpace=wrap;html=1;strokeWidth=0.5;fillColor=#f8cecc;strokeColor=#b85450;" vertex="1" parent="1">
          <mxGeometry x="271.92" y="185" width="2" height="2" as="geometry" />
        </mxCell>
        <mxCell id="8xzKFLjRtHm6hBmf5HE1-251" value="" style="rounded=0;whiteSpace=wrap;html=1;strokeWidth=0.5;fillColor=#f8cecc;strokeColor=#b85450;" vertex="1" parent="1">
          <mxGeometry x="273.92" y="185" width="2" height="2" as="geometry" />
        </mxCell>
        <mxCell id="8xzKFLjRtHm6hBmf5HE1-252" value="" style="rounded=0;whiteSpace=wrap;html=1;strokeWidth=0.5;fillColor=#f8cecc;strokeColor=#b85450;" vertex="1" parent="1">
          <mxGeometry x="275.92" y="185" width="2" height="2" as="geometry" />
        </mxCell>
        <mxCell id="8xzKFLjRtHm6hBmf5HE1-253" value="" style="rounded=0;whiteSpace=wrap;html=1;strokeWidth=0.5;fillColor=#f8cecc;strokeColor=#b85450;" vertex="1" parent="1">
          <mxGeometry x="277.92" y="185" width="2" height="2" as="geometry" />
        </mxCell>
        <mxCell id="8xzKFLjRtHm6hBmf5HE1-254" value="" style="rounded=0;whiteSpace=wrap;html=1;strokeWidth=0.5;fillColor=#f8cecc;strokeColor=#b85450;" vertex="1" parent="1">
          <mxGeometry x="279.92" y="185" width="2" height="2" as="geometry" />
        </mxCell>
        <mxCell id="8xzKFLjRtHm6hBmf5HE1-255" value="" style="rounded=0;whiteSpace=wrap;html=1;strokeWidth=0.5;fillColor=#f8cecc;strokeColor=#b85450;" vertex="1" parent="1">
          <mxGeometry x="281.92" y="185" width="2" height="2" as="geometry" />
        </mxCell>
        <mxCell id="8xzKFLjRtHm6hBmf5HE1-256" value="" style="rounded=0;whiteSpace=wrap;html=1;strokeWidth=0.5;" vertex="1" parent="1">
          <mxGeometry x="283.92" y="185" width="2" height="2" as="geometry" />
        </mxCell>
        <mxCell id="8xzKFLjRtHm6hBmf5HE1-257" value="" style="rounded=0;whiteSpace=wrap;html=1;strokeWidth=0.5;" vertex="1" parent="1">
          <mxGeometry x="285.92" y="185" width="2" height="2" as="geometry" />
        </mxCell>
        <mxCell id="8xzKFLjRtHm6hBmf5HE1-258" value="" style="rounded=0;whiteSpace=wrap;html=1;strokeWidth=0.5;" vertex="1" parent="1">
          <mxGeometry x="271.92" y="187" width="2" height="2" as="geometry" />
        </mxCell>
        <mxCell id="8xzKFLjRtHm6hBmf5HE1-259" value="" style="rounded=0;whiteSpace=wrap;html=1;strokeWidth=0.5;" vertex="1" parent="1">
          <mxGeometry x="273.92" y="187" width="2" height="2" as="geometry" />
        </mxCell>
        <mxCell id="8xzKFLjRtHm6hBmf5HE1-260" value="" style="rounded=0;whiteSpace=wrap;html=1;strokeWidth=0.5;" vertex="1" parent="1">
          <mxGeometry x="275.92" y="187" width="2" height="2" as="geometry" />
        </mxCell>
        <mxCell id="8xzKFLjRtHm6hBmf5HE1-261" value="" style="rounded=0;whiteSpace=wrap;html=1;strokeWidth=0.5;" vertex="1" parent="1">
          <mxGeometry x="277.92" y="187" width="2" height="2" as="geometry" />
        </mxCell>
        <mxCell id="8xzKFLjRtHm6hBmf5HE1-262" value="" style="rounded=0;whiteSpace=wrap;html=1;strokeWidth=0.5;" vertex="1" parent="1">
          <mxGeometry x="279.92" y="187" width="2" height="2" as="geometry" />
        </mxCell>
        <mxCell id="8xzKFLjRtHm6hBmf5HE1-263" value="" style="rounded=0;whiteSpace=wrap;html=1;strokeWidth=0.5;" vertex="1" parent="1">
          <mxGeometry x="281.92" y="187" width="2" height="2" as="geometry" />
        </mxCell>
        <mxCell id="8xzKFLjRtHm6hBmf5HE1-264" value="" style="rounded=0;whiteSpace=wrap;html=1;strokeWidth=0.5;" vertex="1" parent="1">
          <mxGeometry x="283.92" y="187" width="2" height="2" as="geometry" />
        </mxCell>
        <mxCell id="8xzKFLjRtHm6hBmf5HE1-265" value="" style="rounded=0;whiteSpace=wrap;html=1;strokeWidth=0.5;" vertex="1" parent="1">
          <mxGeometry x="285.92" y="187" width="2" height="2" as="geometry" />
        </mxCell>
        <mxCell id="8xzKFLjRtHm6hBmf5HE1-266" value="" style="rounded=0;whiteSpace=wrap;html=1;strokeWidth=0.5;" vertex="1" parent="1">
          <mxGeometry x="271.92" y="189" width="2" height="2" as="geometry" />
        </mxCell>
        <mxCell id="8xzKFLjRtHm6hBmf5HE1-267" value="" style="rounded=0;whiteSpace=wrap;html=1;strokeWidth=0.5;" vertex="1" parent="1">
          <mxGeometry x="273.92" y="189" width="2" height="2" as="geometry" />
        </mxCell>
        <mxCell id="8xzKFLjRtHm6hBmf5HE1-268" value="" style="rounded=0;whiteSpace=wrap;html=1;strokeWidth=0.5;" vertex="1" parent="1">
          <mxGeometry x="275.92" y="189" width="2" height="2" as="geometry" />
        </mxCell>
        <mxCell id="8xzKFLjRtHm6hBmf5HE1-269" value="" style="rounded=0;whiteSpace=wrap;html=1;strokeWidth=0.5;" vertex="1" parent="1">
          <mxGeometry x="277.92" y="189" width="2" height="2" as="geometry" />
        </mxCell>
        <mxCell id="8xzKFLjRtHm6hBmf5HE1-270" value="" style="rounded=0;whiteSpace=wrap;html=1;strokeWidth=0.5;" vertex="1" parent="1">
          <mxGeometry x="279.92" y="189" width="2" height="2" as="geometry" />
        </mxCell>
        <mxCell id="8xzKFLjRtHm6hBmf5HE1-271" value="" style="rounded=0;whiteSpace=wrap;html=1;strokeWidth=0.5;" vertex="1" parent="1">
          <mxGeometry x="281.92" y="189" width="2" height="2" as="geometry" />
        </mxCell>
        <mxCell id="8xzKFLjRtHm6hBmf5HE1-272" value="" style="rounded=0;whiteSpace=wrap;html=1;strokeWidth=0.5;" vertex="1" parent="1">
          <mxGeometry x="283.92" y="189" width="2" height="2" as="geometry" />
        </mxCell>
        <mxCell id="8xzKFLjRtHm6hBmf5HE1-273" value="" style="rounded=0;whiteSpace=wrap;html=1;strokeWidth=0.5;" vertex="1" parent="1">
          <mxGeometry x="285.92" y="189" width="2" height="2" as="geometry" />
        </mxCell>
        <mxCell id="8xzKFLjRtHm6hBmf5HE1-274" value="" style="rounded=0;whiteSpace=wrap;html=1;fillColor=#fff2cc;strokeColor=#d6b656;" vertex="1" parent="1">
          <mxGeometry x="90" y="230" width="220" height="30" as="geometry" />
        </mxCell>
        <mxCell id="8xzKFLjRtHm6hBmf5HE1-275" value="coverage&lt;div&gt;mask&lt;/div&gt;" style="text;html=1;align=center;verticalAlign=middle;whiteSpace=wrap;rounded=0;" vertex="1" parent="1">
          <mxGeometry x="30" y="230" width="60" height="30" as="geometry" />
        </mxCell>
        <mxCell id="8xzKFLjRtHm6hBmf5HE1-276" value="" style="rounded=0;whiteSpace=wrap;html=1;strokeWidth=0.5;fillColor=#f8cecc;strokeColor=#b85450;" vertex="1" parent="1">
          <mxGeometry x="112" y="237" width="2" height="2" as="geometry" />
        </mxCell>
        <mxCell id="8xzKFLjRtHm6hBmf5HE1-277" value="" style="rounded=0;whiteSpace=wrap;html=1;strokeWidth=0.5;" vertex="1" parent="1">
          <mxGeometry x="114" y="237" width="2" height="2" as="geometry" />
        </mxCell>
        <mxCell id="8xzKFLjRtHm6hBmf5HE1-278" value="" style="rounded=0;whiteSpace=wrap;html=1;strokeWidth=0.5;" vertex="1" parent="1">
          <mxGeometry x="116" y="237" width="2" height="2" as="geometry" />
        </mxCell>
        <mxCell id="8xzKFLjRtHm6hBmf5HE1-279" value="" style="rounded=0;whiteSpace=wrap;html=1;strokeWidth=0.5;" vertex="1" parent="1">
          <mxGeometry x="118" y="237" width="2" height="2" as="geometry" />
        </mxCell>
        <mxCell id="8xzKFLjRtHm6hBmf5HE1-280" value="" style="rounded=0;whiteSpace=wrap;html=1;strokeWidth=0.5;" vertex="1" parent="1">
          <mxGeometry x="120" y="237" width="2" height="2" as="geometry" />
        </mxCell>
        <mxCell id="8xzKFLjRtHm6hBmf5HE1-281" value="" style="rounded=0;whiteSpace=wrap;html=1;strokeWidth=0.5;" vertex="1" parent="1">
          <mxGeometry x="122" y="237" width="2" height="2" as="geometry" />
        </mxCell>
        <mxCell id="8xzKFLjRtHm6hBmf5HE1-282" value="" style="rounded=0;whiteSpace=wrap;html=1;strokeWidth=0.5;" vertex="1" parent="1">
          <mxGeometry x="124" y="237" width="2" height="2" as="geometry" />
        </mxCell>
        <mxCell id="8xzKFLjRtHm6hBmf5HE1-283" value="" style="rounded=0;whiteSpace=wrap;html=1;strokeWidth=0.5;" vertex="1" parent="1">
          <mxGeometry x="126" y="237" width="2" height="2" as="geometry" />
        </mxCell>
        <mxCell id="8xzKFLjRtHm6hBmf5HE1-284" value="" style="rounded=0;whiteSpace=wrap;html=1;strokeWidth=0.5;fillColor=#f8cecc;strokeColor=#b85450;" vertex="1" parent="1">
          <mxGeometry x="112" y="239" width="2" height="2" as="geometry" />
        </mxCell>
        <mxCell id="8xzKFLjRtHm6hBmf5HE1-285" value="" style="rounded=0;whiteSpace=wrap;html=1;strokeWidth=0.5;fillColor=#f8cecc;strokeColor=#b85450;" vertex="1" parent="1">
          <mxGeometry x="114" y="239" width="2" height="2" as="geometry" />
        </mxCell>
        <mxCell id="8xzKFLjRtHm6hBmf5HE1-286" value="" style="rounded=0;whiteSpace=wrap;html=1;strokeWidth=0.5;" vertex="1" parent="1">
          <mxGeometry x="116" y="239" width="2" height="2" as="geometry" />
        </mxCell>
        <mxCell id="8xzKFLjRtHm6hBmf5HE1-287" value="" style="rounded=0;whiteSpace=wrap;html=1;strokeWidth=0.5;" vertex="1" parent="1">
          <mxGeometry x="118" y="239" width="2" height="2" as="geometry" />
        </mxCell>
        <mxCell id="8xzKFLjRtHm6hBmf5HE1-288" value="" style="rounded=0;whiteSpace=wrap;html=1;strokeWidth=0.5;" vertex="1" parent="1">
          <mxGeometry x="120" y="239" width="2" height="2" as="geometry" />
        </mxCell>
        <mxCell id="8xzKFLjRtHm6hBmf5HE1-289" value="" style="rounded=0;whiteSpace=wrap;html=1;strokeWidth=0.5;" vertex="1" parent="1">
          <mxGeometry x="122" y="239" width="2" height="2" as="geometry" />
        </mxCell>
        <mxCell id="8xzKFLjRtHm6hBmf5HE1-290" value="" style="rounded=0;whiteSpace=wrap;html=1;strokeWidth=0.5;" vertex="1" parent="1">
          <mxGeometry x="124" y="239" width="2" height="2" as="geometry" />
        </mxCell>
        <mxCell id="8xzKFLjRtHm6hBmf5HE1-291" value="" style="rounded=0;whiteSpace=wrap;html=1;strokeWidth=0.5;" vertex="1" parent="1">
          <mxGeometry x="126" y="239" width="2" height="2" as="geometry" />
        </mxCell>
        <mxCell id="8xzKFLjRtHm6hBmf5HE1-292" value="" style="rounded=0;whiteSpace=wrap;html=1;strokeWidth=0.5;fillColor=#f8cecc;strokeColor=#b85450;" vertex="1" parent="1">
          <mxGeometry x="112" y="241" width="2" height="2" as="geometry" />
        </mxCell>
        <mxCell id="8xzKFLjRtHm6hBmf5HE1-293" value="" style="rounded=0;whiteSpace=wrap;html=1;strokeWidth=0.5;fillColor=#f8cecc;strokeColor=#b85450;" vertex="1" parent="1">
          <mxGeometry x="114" y="241" width="2" height="2" as="geometry" />
        </mxCell>
        <mxCell id="8xzKFLjRtHm6hBmf5HE1-294" value="" style="rounded=0;whiteSpace=wrap;html=1;strokeWidth=0.5;fillColor=#f8cecc;strokeColor=#b85450;" vertex="1" parent="1">
          <mxGeometry x="116" y="241" width="2" height="2" as="geometry" />
        </mxCell>
        <mxCell id="8xzKFLjRtHm6hBmf5HE1-295" value="" style="rounded=0;whiteSpace=wrap;html=1;strokeWidth=0.5;fillColor=#f8cecc;strokeColor=#b85450;" vertex="1" parent="1">
          <mxGeometry x="118" y="241" width="2" height="2" as="geometry" />
        </mxCell>
        <mxCell id="8xzKFLjRtHm6hBmf5HE1-296" value="" style="rounded=0;whiteSpace=wrap;html=1;strokeWidth=0.5;" vertex="1" parent="1">
          <mxGeometry x="120" y="241" width="2" height="2" as="geometry" />
        </mxCell>
        <mxCell id="8xzKFLjRtHm6hBmf5HE1-297" value="" style="rounded=0;whiteSpace=wrap;html=1;strokeWidth=0.5;" vertex="1" parent="1">
          <mxGeometry x="122" y="241" width="2" height="2" as="geometry" />
        </mxCell>
        <mxCell id="8xzKFLjRtHm6hBmf5HE1-298" value="" style="rounded=0;whiteSpace=wrap;html=1;strokeWidth=0.5;" vertex="1" parent="1">
          <mxGeometry x="124" y="241" width="2" height="2" as="geometry" />
        </mxCell>
        <mxCell id="8xzKFLjRtHm6hBmf5HE1-299" value="" style="rounded=0;whiteSpace=wrap;html=1;strokeWidth=0.5;" vertex="1" parent="1">
          <mxGeometry x="126" y="241" width="2" height="2" as="geometry" />
        </mxCell>
        <mxCell id="8xzKFLjRtHm6hBmf5HE1-300" value="" style="rounded=0;whiteSpace=wrap;html=1;strokeWidth=0.5;fillColor=#f8cecc;strokeColor=#b85450;" vertex="1" parent="1">
          <mxGeometry x="112" y="243" width="2" height="2" as="geometry" />
        </mxCell>
        <mxCell id="8xzKFLjRtHm6hBmf5HE1-301" value="" style="rounded=0;whiteSpace=wrap;html=1;strokeWidth=0.5;fillColor=#f8cecc;strokeColor=#b85450;" vertex="1" parent="1">
          <mxGeometry x="114" y="243" width="2" height="2" as="geometry" />
        </mxCell>
        <mxCell id="8xzKFLjRtHm6hBmf5HE1-302" value="" style="rounded=0;whiteSpace=wrap;html=1;strokeWidth=0.5;fillColor=#f8cecc;strokeColor=#b85450;" vertex="1" parent="1">
          <mxGeometry x="116" y="243" width="2" height="2" as="geometry" />
        </mxCell>
        <mxCell id="8xzKFLjRtHm6hBmf5HE1-303" value="" style="rounded=0;whiteSpace=wrap;html=1;strokeWidth=0.5;fillColor=#f8cecc;strokeColor=#b85450;" vertex="1" parent="1">
          <mxGeometry x="118" y="243" width="2" height="2" as="geometry" />
        </mxCell>
        <mxCell id="8xzKFLjRtHm6hBmf5HE1-304" value="" style="rounded=0;whiteSpace=wrap;html=1;strokeWidth=0.5;fillColor=#f8cecc;strokeColor=#b85450;" vertex="1" parent="1">
          <mxGeometry x="120" y="243" width="2" height="2" as="geometry" />
        </mxCell>
        <mxCell id="8xzKFLjRtHm6hBmf5HE1-305" value="" style="rounded=0;whiteSpace=wrap;html=1;strokeWidth=0.5;fillColor=#f8cecc;strokeColor=#b85450;" vertex="1" parent="1">
          <mxGeometry x="122" y="243" width="2" height="2" as="geometry" />
        </mxCell>
        <mxCell id="8xzKFLjRtHm6hBmf5HE1-306" value="" style="rounded=0;whiteSpace=wrap;html=1;strokeWidth=0.5;fillColor=#f8cecc;strokeColor=#b85450;" vertex="1" parent="1">
          <mxGeometry x="124" y="243" width="2" height="2" as="geometry" />
        </mxCell>
        <mxCell id="8xzKFLjRtHm6hBmf5HE1-307" value="" style="rounded=0;whiteSpace=wrap;html=1;strokeWidth=0.5;" vertex="1" parent="1">
          <mxGeometry x="126" y="243" width="2" height="2" as="geometry" />
        </mxCell>
        <mxCell id="8xzKFLjRtHm6hBmf5HE1-308" value="" style="rounded=0;whiteSpace=wrap;html=1;strokeWidth=0.5;fillColor=#f8cecc;strokeColor=#b85450;" vertex="1" parent="1">
          <mxGeometry x="112" y="245" width="2" height="2" as="geometry" />
        </mxCell>
        <mxCell id="8xzKFLjRtHm6hBmf5HE1-309" value="" style="rounded=0;whiteSpace=wrap;html=1;strokeWidth=0.5;fillColor=#f8cecc;strokeColor=#b85450;" vertex="1" parent="1">
          <mxGeometry x="114" y="245" width="2" height="2" as="geometry" />
        </mxCell>
        <mxCell id="8xzKFLjRtHm6hBmf5HE1-310" value="" style="rounded=0;whiteSpace=wrap;html=1;strokeWidth=0.5;fillColor=#f8cecc;strokeColor=#b85450;" vertex="1" parent="1">
          <mxGeometry x="116" y="245" width="2" height="2" as="geometry" />
        </mxCell>
        <mxCell id="8xzKFLjRtHm6hBmf5HE1-311" value="" style="rounded=0;whiteSpace=wrap;html=1;strokeWidth=0.5;fillColor=#f8cecc;strokeColor=#b85450;" vertex="1" parent="1">
          <mxGeometry x="118" y="245" width="2" height="2" as="geometry" />
        </mxCell>
        <mxCell id="8xzKFLjRtHm6hBmf5HE1-312" value="" style="rounded=0;whiteSpace=wrap;html=1;strokeWidth=0.5;fillColor=#f8cecc;strokeColor=#b85450;" vertex="1" parent="1">
          <mxGeometry x="120" y="245" width="2" height="2" as="geometry" />
        </mxCell>
        <mxCell id="8xzKFLjRtHm6hBmf5HE1-313" value="" style="rounded=0;whiteSpace=wrap;html=1;strokeWidth=0.5;fillColor=#f8cecc;strokeColor=#b85450;" vertex="1" parent="1">
          <mxGeometry x="122" y="245" width="2" height="2" as="geometry" />
        </mxCell>
        <mxCell id="8xzKFLjRtHm6hBmf5HE1-314" value="" style="rounded=0;whiteSpace=wrap;html=1;strokeWidth=0.5;" vertex="1" parent="1">
          <mxGeometry x="124" y="245" width="2" height="2" as="geometry" />
        </mxCell>
        <mxCell id="8xzKFLjRtHm6hBmf5HE1-315" value="" style="rounded=0;whiteSpace=wrap;html=1;strokeWidth=0.5;" vertex="1" parent="1">
          <mxGeometry x="126" y="245" width="2" height="2" as="geometry" />
        </mxCell>
        <mxCell id="8xzKFLjRtHm6hBmf5HE1-316" value="" style="rounded=0;whiteSpace=wrap;html=1;strokeWidth=0.5;fillColor=#f8cecc;strokeColor=#b85450;" vertex="1" parent="1">
          <mxGeometry x="112" y="247" width="2" height="2" as="geometry" />
        </mxCell>
        <mxCell id="8xzKFLjRtHm6hBmf5HE1-317" value="" style="rounded=0;whiteSpace=wrap;html=1;strokeWidth=0.5;fillColor=#f8cecc;strokeColor=#b85450;" vertex="1" parent="1">
          <mxGeometry x="114" y="247" width="2" height="2" as="geometry" />
        </mxCell>
        <mxCell id="8xzKFLjRtHm6hBmf5HE1-318" value="" style="rounded=0;whiteSpace=wrap;html=1;strokeWidth=0.5;fillColor=#f8cecc;strokeColor=#b85450;" vertex="1" parent="1">
          <mxGeometry x="116" y="247" width="2" height="2" as="geometry" />
        </mxCell>
        <mxCell id="8xzKFLjRtHm6hBmf5HE1-319" value="" style="rounded=0;whiteSpace=wrap;html=1;strokeWidth=0.5;fillColor=#f8cecc;strokeColor=#b85450;" vertex="1" parent="1">
          <mxGeometry x="118" y="247" width="2" height="2" as="geometry" />
        </mxCell>
        <mxCell id="8xzKFLjRtHm6hBmf5HE1-320" value="" style="rounded=0;whiteSpace=wrap;html=1;strokeWidth=0.5;" vertex="1" parent="1">
          <mxGeometry x="120" y="247" width="2" height="2" as="geometry" />
        </mxCell>
        <mxCell id="8xzKFLjRtHm6hBmf5HE1-321" value="" style="rounded=0;whiteSpace=wrap;html=1;strokeWidth=0.5;" vertex="1" parent="1">
          <mxGeometry x="122" y="247" width="2" height="2" as="geometry" />
        </mxCell>
        <mxCell id="8xzKFLjRtHm6hBmf5HE1-322" value="" style="rounded=0;whiteSpace=wrap;html=1;strokeWidth=0.5;" vertex="1" parent="1">
          <mxGeometry x="124" y="247" width="2" height="2" as="geometry" />
        </mxCell>
        <mxCell id="8xzKFLjRtHm6hBmf5HE1-323" value="" style="rounded=0;whiteSpace=wrap;html=1;strokeWidth=0.5;" vertex="1" parent="1">
          <mxGeometry x="126" y="247" width="2" height="2" as="geometry" />
        </mxCell>
        <mxCell id="8xzKFLjRtHm6hBmf5HE1-324" value="" style="rounded=0;whiteSpace=wrap;html=1;strokeWidth=0.5;fillColor=#f8cecc;strokeColor=#b85450;" vertex="1" parent="1">
          <mxGeometry x="112" y="249" width="2" height="2" as="geometry" />
        </mxCell>
        <mxCell id="8xzKFLjRtHm6hBmf5HE1-325" value="" style="rounded=0;whiteSpace=wrap;html=1;strokeWidth=0.5;fillColor=#f8cecc;strokeColor=#b85450;" vertex="1" parent="1">
          <mxGeometry x="114" y="249" width="2" height="2" as="geometry" />
        </mxCell>
        <mxCell id="8xzKFLjRtHm6hBmf5HE1-326" value="" style="rounded=0;whiteSpace=wrap;html=1;strokeWidth=0.5;" vertex="1" parent="1">
          <mxGeometry x="116" y="249" width="2" height="2" as="geometry" />
        </mxCell>
        <mxCell id="8xzKFLjRtHm6hBmf5HE1-327" value="" style="rounded=0;whiteSpace=wrap;html=1;strokeWidth=0.5;" vertex="1" parent="1">
          <mxGeometry x="118" y="249" width="2" height="2" as="geometry" />
        </mxCell>
        <mxCell id="8xzKFLjRtHm6hBmf5HE1-328" value="" style="rounded=0;whiteSpace=wrap;html=1;strokeWidth=0.5;" vertex="1" parent="1">
          <mxGeometry x="120" y="249" width="2" height="2" as="geometry" />
        </mxCell>
        <mxCell id="8xzKFLjRtHm6hBmf5HE1-329" value="" style="rounded=0;whiteSpace=wrap;html=1;strokeWidth=0.5;" vertex="1" parent="1">
          <mxGeometry x="122" y="249" width="2" height="2" as="geometry" />
        </mxCell>
        <mxCell id="8xzKFLjRtHm6hBmf5HE1-330" value="" style="rounded=0;whiteSpace=wrap;html=1;strokeWidth=0.5;" vertex="1" parent="1">
          <mxGeometry x="124" y="249" width="2" height="2" as="geometry" />
        </mxCell>
        <mxCell id="8xzKFLjRtHm6hBmf5HE1-331" value="" style="rounded=0;whiteSpace=wrap;html=1;strokeWidth=0.5;" vertex="1" parent="1">
          <mxGeometry x="126" y="249" width="2" height="2" as="geometry" />
        </mxCell>
        <mxCell id="8xzKFLjRtHm6hBmf5HE1-332" value="" style="rounded=0;whiteSpace=wrap;html=1;strokeWidth=0.5;fillColor=#f8cecc;strokeColor=#b85450;" vertex="1" parent="1">
          <mxGeometry x="112" y="251" width="2" height="2" as="geometry" />
        </mxCell>
        <mxCell id="8xzKFLjRtHm6hBmf5HE1-333" value="" style="rounded=0;whiteSpace=wrap;html=1;strokeWidth=0.5;" vertex="1" parent="1">
          <mxGeometry x="114" y="251" width="2" height="2" as="geometry" />
        </mxCell>
        <mxCell id="8xzKFLjRtHm6hBmf5HE1-334" value="" style="rounded=0;whiteSpace=wrap;html=1;strokeWidth=0.5;" vertex="1" parent="1">
          <mxGeometry x="116" y="251" width="2" height="2" as="geometry" />
        </mxCell>
        <mxCell id="8xzKFLjRtHm6hBmf5HE1-335" value="" style="rounded=0;whiteSpace=wrap;html=1;strokeWidth=0.5;" vertex="1" parent="1">
          <mxGeometry x="118" y="251" width="2" height="2" as="geometry" />
        </mxCell>
        <mxCell id="8xzKFLjRtHm6hBmf5HE1-336" value="" style="rounded=0;whiteSpace=wrap;html=1;strokeWidth=0.5;" vertex="1" parent="1">
          <mxGeometry x="120" y="251" width="2" height="2" as="geometry" />
        </mxCell>
        <mxCell id="8xzKFLjRtHm6hBmf5HE1-337" value="" style="rounded=0;whiteSpace=wrap;html=1;strokeWidth=0.5;" vertex="1" parent="1">
          <mxGeometry x="122" y="251" width="2" height="2" as="geometry" />
        </mxCell>
        <mxCell id="8xzKFLjRtHm6hBmf5HE1-338" value="" style="rounded=0;whiteSpace=wrap;html=1;strokeWidth=0.5;" vertex="1" parent="1">
          <mxGeometry x="124" y="251" width="2" height="2" as="geometry" />
        </mxCell>
        <mxCell id="8xzKFLjRtHm6hBmf5HE1-339" value="" style="rounded=0;whiteSpace=wrap;html=1;strokeWidth=0.5;" vertex="1" parent="1">
          <mxGeometry x="126" y="251" width="2" height="2" as="geometry" />
        </mxCell>
        <mxCell id="8xzKFLjRtHm6hBmf5HE1-340" value="" style="rounded=0;whiteSpace=wrap;html=1;strokeWidth=0.5;" vertex="1" parent="1">
          <mxGeometry x="152" y="238" width="2" height="2" as="geometry" />
        </mxCell>
        <mxCell id="8xzKFLjRtHm6hBmf5HE1-341" value="" style="rounded=0;whiteSpace=wrap;html=1;strokeWidth=0.5;" vertex="1" parent="1">
          <mxGeometry x="154" y="238" width="2" height="2" as="geometry" />
        </mxCell>
        <mxCell id="8xzKFLjRtHm6hBmf5HE1-342" value="" style="rounded=0;whiteSpace=wrap;html=1;strokeWidth=0.5;" vertex="1" parent="1">
          <mxGeometry x="156" y="238" width="2" height="2" as="geometry" />
        </mxCell>
        <mxCell id="8xzKFLjRtHm6hBmf5HE1-343" value="" style="rounded=0;whiteSpace=wrap;html=1;strokeWidth=0.5;fillColor=#f8cecc;strokeColor=#b85450;" vertex="1" parent="1">
          <mxGeometry x="158" y="238" width="2" height="2" as="geometry" />
        </mxCell>
        <mxCell id="8xzKFLjRtHm6hBmf5HE1-344" value="" style="rounded=0;whiteSpace=wrap;html=1;strokeWidth=0.5;" vertex="1" parent="1">
          <mxGeometry x="160" y="238" width="2" height="2" as="geometry" />
        </mxCell>
        <mxCell id="8xzKFLjRtHm6hBmf5HE1-345" value="" style="rounded=0;whiteSpace=wrap;html=1;strokeWidth=0.5;" vertex="1" parent="1">
          <mxGeometry x="162" y="238" width="2" height="2" as="geometry" />
        </mxCell>
        <mxCell id="8xzKFLjRtHm6hBmf5HE1-346" value="" style="rounded=0;whiteSpace=wrap;html=1;strokeWidth=0.5;" vertex="1" parent="1">
          <mxGeometry x="164" y="238" width="2" height="2" as="geometry" />
        </mxCell>
        <mxCell id="8xzKFLjRtHm6hBmf5HE1-347" value="" style="rounded=0;whiteSpace=wrap;html=1;strokeWidth=0.5;" vertex="1" parent="1">
          <mxGeometry x="166" y="238" width="2" height="2" as="geometry" />
        </mxCell>
        <mxCell id="8xzKFLjRtHm6hBmf5HE1-348" value="" style="rounded=0;whiteSpace=wrap;html=1;strokeWidth=0.5;" vertex="1" parent="1">
          <mxGeometry x="152" y="240" width="2" height="2" as="geometry" />
        </mxCell>
        <mxCell id="8xzKFLjRtHm6hBmf5HE1-349" value="" style="rounded=0;whiteSpace=wrap;html=1;strokeWidth=0.5;" vertex="1" parent="1">
          <mxGeometry x="154" y="240" width="2" height="2" as="geometry" />
        </mxCell>
        <mxCell id="8xzKFLjRtHm6hBmf5HE1-350" value="" style="rounded=0;whiteSpace=wrap;html=1;strokeWidth=0.5;" vertex="1" parent="1">
          <mxGeometry x="156" y="240" width="2" height="2" as="geometry" />
        </mxCell>
        <mxCell id="8xzKFLjRtHm6hBmf5HE1-351" value="" style="rounded=0;whiteSpace=wrap;html=1;strokeWidth=0.5;fillColor=#f8cecc;strokeColor=#b85450;" vertex="1" parent="1">
          <mxGeometry x="158" y="240" width="2" height="2" as="geometry" />
        </mxCell>
        <mxCell id="8xzKFLjRtHm6hBmf5HE1-352" value="" style="rounded=0;whiteSpace=wrap;html=1;strokeWidth=0.5;fillColor=#f8cecc;strokeColor=#b85450;" vertex="1" parent="1">
          <mxGeometry x="160" y="240" width="2" height="2" as="geometry" />
        </mxCell>
        <mxCell id="8xzKFLjRtHm6hBmf5HE1-353" value="" style="rounded=0;whiteSpace=wrap;html=1;strokeWidth=0.5;" vertex="1" parent="1">
          <mxGeometry x="162" y="240" width="2" height="2" as="geometry" />
        </mxCell>
        <mxCell id="8xzKFLjRtHm6hBmf5HE1-354" value="" style="rounded=0;whiteSpace=wrap;html=1;strokeWidth=0.5;" vertex="1" parent="1">
          <mxGeometry x="164" y="240" width="2" height="2" as="geometry" />
        </mxCell>
        <mxCell id="8xzKFLjRtHm6hBmf5HE1-355" value="" style="rounded=0;whiteSpace=wrap;html=1;strokeWidth=0.5;" vertex="1" parent="1">
          <mxGeometry x="166" y="240" width="2" height="2" as="geometry" />
        </mxCell>
        <mxCell id="8xzKFLjRtHm6hBmf5HE1-356" value="" style="rounded=0;whiteSpace=wrap;html=1;strokeWidth=0.5;" vertex="1" parent="1">
          <mxGeometry x="152" y="242" width="2" height="2" as="geometry" />
        </mxCell>
        <mxCell id="8xzKFLjRtHm6hBmf5HE1-357" value="" style="rounded=0;whiteSpace=wrap;html=1;strokeWidth=0.5;" vertex="1" parent="1">
          <mxGeometry x="154" y="242" width="2" height="2" as="geometry" />
        </mxCell>
        <mxCell id="8xzKFLjRtHm6hBmf5HE1-358" value="" style="rounded=0;whiteSpace=wrap;html=1;strokeWidth=0.5;" vertex="1" parent="1">
          <mxGeometry x="156" y="242" width="2" height="2" as="geometry" />
        </mxCell>
        <mxCell id="8xzKFLjRtHm6hBmf5HE1-359" value="" style="rounded=0;whiteSpace=wrap;html=1;strokeWidth=0.5;fillColor=#f8cecc;strokeColor=#b85450;" vertex="1" parent="1">
          <mxGeometry x="158" y="242" width="2" height="2" as="geometry" />
        </mxCell>
        <mxCell id="8xzKFLjRtHm6hBmf5HE1-360" value="" style="rounded=0;whiteSpace=wrap;html=1;strokeWidth=0.5;fillColor=#f8cecc;strokeColor=#b85450;" vertex="1" parent="1">
          <mxGeometry x="160" y="242" width="2" height="2" as="geometry" />
        </mxCell>
        <mxCell id="8xzKFLjRtHm6hBmf5HE1-361" value="" style="rounded=0;whiteSpace=wrap;html=1;strokeWidth=0.5;" vertex="1" parent="1">
          <mxGeometry x="162" y="242" width="2" height="2" as="geometry" />
        </mxCell>
        <mxCell id="8xzKFLjRtHm6hBmf5HE1-362" value="" style="rounded=0;whiteSpace=wrap;html=1;strokeWidth=0.5;" vertex="1" parent="1">
          <mxGeometry x="164" y="242" width="2" height="2" as="geometry" />
        </mxCell>
        <mxCell id="8xzKFLjRtHm6hBmf5HE1-363" value="" style="rounded=0;whiteSpace=wrap;html=1;strokeWidth=0.5;" vertex="1" parent="1">
          <mxGeometry x="166" y="242" width="2" height="2" as="geometry" />
        </mxCell>
        <mxCell id="8xzKFLjRtHm6hBmf5HE1-364" value="" style="rounded=0;whiteSpace=wrap;html=1;strokeWidth=0.5;" vertex="1" parent="1">
          <mxGeometry x="152" y="244" width="2" height="2" as="geometry" />
        </mxCell>
        <mxCell id="8xzKFLjRtHm6hBmf5HE1-365" value="" style="rounded=0;whiteSpace=wrap;html=1;strokeWidth=0.5;" vertex="1" parent="1">
          <mxGeometry x="154" y="244" width="2" height="2" as="geometry" />
        </mxCell>
        <mxCell id="8xzKFLjRtHm6hBmf5HE1-366" value="" style="rounded=0;whiteSpace=wrap;html=1;strokeWidth=0.5;fillColor=#f8cecc;strokeColor=#b85450;" vertex="1" parent="1">
          <mxGeometry x="156" y="244" width="2" height="2" as="geometry" />
        </mxCell>
        <mxCell id="8xzKFLjRtHm6hBmf5HE1-367" value="" style="rounded=0;whiteSpace=wrap;html=1;strokeWidth=0.5;fillColor=#f8cecc;strokeColor=#b85450;" vertex="1" parent="1">
          <mxGeometry x="158" y="244" width="2" height="2" as="geometry" />
        </mxCell>
        <mxCell id="8xzKFLjRtHm6hBmf5HE1-368" value="" style="rounded=0;whiteSpace=wrap;html=1;strokeWidth=0.5;fillColor=#f8cecc;strokeColor=#b85450;" vertex="1" parent="1">
          <mxGeometry x="160" y="244" width="2" height="2" as="geometry" />
        </mxCell>
        <mxCell id="8xzKFLjRtHm6hBmf5HE1-369" value="" style="rounded=0;whiteSpace=wrap;html=1;strokeWidth=0.5;fillColor=#f8cecc;strokeColor=#b85450;" vertex="1" parent="1">
          <mxGeometry x="162" y="244" width="2" height="2" as="geometry" />
        </mxCell>
        <mxCell id="8xzKFLjRtHm6hBmf5HE1-370" value="" style="rounded=0;whiteSpace=wrap;html=1;strokeWidth=0.5;" vertex="1" parent="1">
          <mxGeometry x="164" y="244" width="2" height="2" as="geometry" />
        </mxCell>
        <mxCell id="8xzKFLjRtHm6hBmf5HE1-371" value="" style="rounded=0;whiteSpace=wrap;html=1;strokeWidth=0.5;" vertex="1" parent="1">
          <mxGeometry x="166" y="244" width="2" height="2" as="geometry" />
        </mxCell>
        <mxCell id="8xzKFLjRtHm6hBmf5HE1-372" value="" style="rounded=0;whiteSpace=wrap;html=1;strokeWidth=0.5;" vertex="1" parent="1">
          <mxGeometry x="152" y="246" width="2" height="2" as="geometry" />
        </mxCell>
        <mxCell id="8xzKFLjRtHm6hBmf5HE1-373" value="" style="rounded=0;whiteSpace=wrap;html=1;strokeWidth=0.5;" vertex="1" parent="1">
          <mxGeometry x="154" y="246" width="2" height="2" as="geometry" />
        </mxCell>
        <mxCell id="8xzKFLjRtHm6hBmf5HE1-374" value="" style="rounded=0;whiteSpace=wrap;html=1;strokeWidth=0.5;fillColor=#f8cecc;strokeColor=#b85450;" vertex="1" parent="1">
          <mxGeometry x="156" y="246" width="2" height="2" as="geometry" />
        </mxCell>
        <mxCell id="8xzKFLjRtHm6hBmf5HE1-375" value="" style="rounded=0;whiteSpace=wrap;html=1;strokeWidth=0.5;fillColor=#f8cecc;strokeColor=#b85450;" vertex="1" parent="1">
          <mxGeometry x="158" y="246" width="2" height="2" as="geometry" />
        </mxCell>
        <mxCell id="8xzKFLjRtHm6hBmf5HE1-376" value="" style="rounded=0;whiteSpace=wrap;html=1;strokeWidth=0.5;fillColor=#f8cecc;strokeColor=#b85450;" vertex="1" parent="1">
          <mxGeometry x="160" y="246" width="2" height="2" as="geometry" />
        </mxCell>
        <mxCell id="8xzKFLjRtHm6hBmf5HE1-377" value="" style="rounded=0;whiteSpace=wrap;html=1;strokeWidth=0.5;fillColor=#f8cecc;strokeColor=#b85450;" vertex="1" parent="1">
          <mxGeometry x="162" y="246" width="2" height="2" as="geometry" />
        </mxCell>
        <mxCell id="8xzKFLjRtHm6hBmf5HE1-378" value="" style="rounded=0;whiteSpace=wrap;html=1;strokeWidth=0.5;" vertex="1" parent="1">
          <mxGeometry x="164" y="246" width="2" height="2" as="geometry" />
        </mxCell>
        <mxCell id="8xzKFLjRtHm6hBmf5HE1-379" value="" style="rounded=0;whiteSpace=wrap;html=1;strokeWidth=0.5;" vertex="1" parent="1">
          <mxGeometry x="166" y="246" width="2" height="2" as="geometry" />
        </mxCell>
        <mxCell id="8xzKFLjRtHm6hBmf5HE1-380" value="" style="rounded=0;whiteSpace=wrap;html=1;strokeWidth=0.5;" vertex="1" parent="1">
          <mxGeometry x="152" y="248" width="2" height="2" as="geometry" />
        </mxCell>
        <mxCell id="8xzKFLjRtHm6hBmf5HE1-381" value="" style="rounded=0;whiteSpace=wrap;html=1;strokeWidth=0.5;fillColor=#f8cecc;strokeColor=#b85450;" vertex="1" parent="1">
          <mxGeometry x="154" y="248" width="2" height="2" as="geometry" />
        </mxCell>
        <mxCell id="8xzKFLjRtHm6hBmf5HE1-382" value="" style="rounded=0;whiteSpace=wrap;html=1;strokeWidth=0.5;fillColor=#f8cecc;strokeColor=#b85450;" vertex="1" parent="1">
          <mxGeometry x="156" y="248" width="2" height="2" as="geometry" />
        </mxCell>
        <mxCell id="8xzKFLjRtHm6hBmf5HE1-383" value="" style="rounded=0;whiteSpace=wrap;html=1;strokeWidth=0.5;fillColor=#f8cecc;strokeColor=#b85450;" vertex="1" parent="1">
          <mxGeometry x="158" y="248" width="2" height="2" as="geometry" />
        </mxCell>
        <mxCell id="8xzKFLjRtHm6hBmf5HE1-384" value="" style="rounded=0;whiteSpace=wrap;html=1;strokeWidth=0.5;fillColor=#f8cecc;strokeColor=#b85450;" vertex="1" parent="1">
          <mxGeometry x="160" y="248" width="2" height="2" as="geometry" />
        </mxCell>
        <mxCell id="8xzKFLjRtHm6hBmf5HE1-385" value="" style="rounded=0;whiteSpace=wrap;html=1;strokeWidth=0.5;fillColor=#f8cecc;strokeColor=#b85450;" vertex="1" parent="1">
          <mxGeometry x="162" y="248" width="2" height="2" as="geometry" />
        </mxCell>
        <mxCell id="8xzKFLjRtHm6hBmf5HE1-386" value="" style="rounded=0;whiteSpace=wrap;html=1;strokeWidth=0.5;fillColor=#f8cecc;strokeColor=#b85450;" vertex="1" parent="1">
          <mxGeometry x="164" y="248" width="2" height="2" as="geometry" />
        </mxCell>
        <mxCell id="8xzKFLjRtHm6hBmf5HE1-387" value="" style="rounded=0;whiteSpace=wrap;html=1;strokeWidth=0.5;" vertex="1" parent="1">
          <mxGeometry x="166" y="248" width="2" height="2" as="geometry" />
        </mxCell>
        <mxCell id="8xzKFLjRtHm6hBmf5HE1-388" value="" style="rounded=0;whiteSpace=wrap;html=1;strokeWidth=0.5;" vertex="1" parent="1">
          <mxGeometry x="152" y="250" width="2" height="2" as="geometry" />
        </mxCell>
        <mxCell id="8xzKFLjRtHm6hBmf5HE1-389" value="" style="rounded=0;whiteSpace=wrap;html=1;strokeWidth=0.5;fillColor=#f8cecc;strokeColor=#b85450;" vertex="1" parent="1">
          <mxGeometry x="154" y="250" width="2" height="2" as="geometry" />
        </mxCell>
        <mxCell id="8xzKFLjRtHm6hBmf5HE1-390" value="" style="rounded=0;whiteSpace=wrap;html=1;strokeWidth=0.5;fillColor=#f8cecc;strokeColor=#b85450;" vertex="1" parent="1">
          <mxGeometry x="156" y="250" width="2" height="2" as="geometry" />
        </mxCell>
        <mxCell id="8xzKFLjRtHm6hBmf5HE1-391" value="" style="rounded=0;whiteSpace=wrap;html=1;strokeWidth=0.5;fillColor=#f8cecc;strokeColor=#b85450;" vertex="1" parent="1">
          <mxGeometry x="158" y="250" width="2" height="2" as="geometry" />
        </mxCell>
        <mxCell id="8xzKFLjRtHm6hBmf5HE1-392" value="" style="rounded=0;whiteSpace=wrap;html=1;strokeWidth=0.5;fillColor=#f8cecc;strokeColor=#b85450;" vertex="1" parent="1">
          <mxGeometry x="160" y="250" width="2" height="2" as="geometry" />
        </mxCell>
        <mxCell id="8xzKFLjRtHm6hBmf5HE1-393" value="" style="rounded=0;whiteSpace=wrap;html=1;strokeWidth=0.5;fillColor=#f8cecc;strokeColor=#b85450;" vertex="1" parent="1">
          <mxGeometry x="162" y="250" width="2" height="2" as="geometry" />
        </mxCell>
        <mxCell id="8xzKFLjRtHm6hBmf5HE1-394" value="" style="rounded=0;whiteSpace=wrap;html=1;strokeWidth=0.5;fillColor=#f8cecc;strokeColor=#b85450;" vertex="1" parent="1">
          <mxGeometry x="164" y="250" width="2" height="2" as="geometry" />
        </mxCell>
        <mxCell id="8xzKFLjRtHm6hBmf5HE1-395" value="" style="rounded=0;whiteSpace=wrap;html=1;strokeWidth=0.5;" vertex="1" parent="1">
          <mxGeometry x="166" y="250" width="2" height="2" as="geometry" />
        </mxCell>
        <mxCell id="8xzKFLjRtHm6hBmf5HE1-396" value="" style="rounded=0;whiteSpace=wrap;html=1;strokeWidth=0.5;fillColor=#f8cecc;strokeColor=#b85450;" vertex="1" parent="1">
          <mxGeometry x="152" y="252" width="2" height="2" as="geometry" />
        </mxCell>
        <mxCell id="8xzKFLjRtHm6hBmf5HE1-397" value="" style="rounded=0;whiteSpace=wrap;html=1;strokeWidth=0.5;fillColor=#f8cecc;strokeColor=#b85450;" vertex="1" parent="1">
          <mxGeometry x="154" y="252" width="2" height="2" as="geometry" />
        </mxCell>
        <mxCell id="8xzKFLjRtHm6hBmf5HE1-398" value="" style="rounded=0;whiteSpace=wrap;html=1;strokeWidth=0.5;fillColor=#f8cecc;strokeColor=#b85450;" vertex="1" parent="1">
          <mxGeometry x="156" y="252" width="2" height="2" as="geometry" />
        </mxCell>
        <mxCell id="8xzKFLjRtHm6hBmf5HE1-399" value="" style="rounded=0;whiteSpace=wrap;html=1;strokeWidth=0.5;fillColor=#f8cecc;strokeColor=#b85450;" vertex="1" parent="1">
          <mxGeometry x="158" y="252" width="2" height="2" as="geometry" />
        </mxCell>
        <mxCell id="8xzKFLjRtHm6hBmf5HE1-400" value="" style="rounded=0;whiteSpace=wrap;html=1;strokeWidth=0.5;fillColor=#f8cecc;strokeColor=#b85450;" vertex="1" parent="1">
          <mxGeometry x="160" y="252" width="2" height="2" as="geometry" />
        </mxCell>
        <mxCell id="8xzKFLjRtHm6hBmf5HE1-401" value="" style="rounded=0;whiteSpace=wrap;html=1;strokeWidth=0.5;fillColor=#f8cecc;strokeColor=#b85450;" vertex="1" parent="1">
          <mxGeometry x="162" y="252" width="2" height="2" as="geometry" />
        </mxCell>
        <mxCell id="8xzKFLjRtHm6hBmf5HE1-402" value="" style="rounded=0;whiteSpace=wrap;html=1;strokeWidth=0.5;fillColor=#f8cecc;strokeColor=#b85450;" vertex="1" parent="1">
          <mxGeometry x="164" y="252" width="2" height="2" as="geometry" />
        </mxCell>
        <mxCell id="8xzKFLjRtHm6hBmf5HE1-403" value="" style="rounded=0;whiteSpace=wrap;html=1;strokeWidth=0.5;fillColor=#f8cecc;strokeColor=#b85450;" vertex="1" parent="1">
          <mxGeometry x="166" y="252" width="2" height="2" as="geometry" />
        </mxCell>
        <mxCell id="8xzKFLjRtHm6hBmf5HE1-404" value="" style="rounded=0;whiteSpace=wrap;html=1;strokeWidth=0.5;" vertex="1" parent="1">
          <mxGeometry x="232" y="237" width="2" height="2" as="geometry" />
        </mxCell>
        <mxCell id="8xzKFLjRtHm6hBmf5HE1-405" value="" style="rounded=0;whiteSpace=wrap;html=1;strokeWidth=0.5;" vertex="1" parent="1">
          <mxGeometry x="234" y="237" width="2" height="2" as="geometry" />
        </mxCell>
        <mxCell id="8xzKFLjRtHm6hBmf5HE1-406" value="" style="rounded=0;whiteSpace=wrap;html=1;strokeWidth=0.5;" vertex="1" parent="1">
          <mxGeometry x="236" y="237" width="2" height="2" as="geometry" />
        </mxCell>
        <mxCell id="8xzKFLjRtHm6hBmf5HE1-407" value="" style="rounded=0;whiteSpace=wrap;html=1;strokeWidth=0.5;" vertex="1" parent="1">
          <mxGeometry x="238" y="237" width="2" height="2" as="geometry" />
        </mxCell>
        <mxCell id="8xzKFLjRtHm6hBmf5HE1-408" value="" style="rounded=0;whiteSpace=wrap;html=1;strokeWidth=0.5;" vertex="1" parent="1">
          <mxGeometry x="240" y="237" width="2" height="2" as="geometry" />
        </mxCell>
        <mxCell id="8xzKFLjRtHm6hBmf5HE1-409" value="" style="rounded=0;whiteSpace=wrap;html=1;strokeWidth=0.5;fillColor=#f8cecc;strokeColor=#b85450;" vertex="1" parent="1">
          <mxGeometry x="242" y="237" width="2" height="2" as="geometry" />
        </mxCell>
        <mxCell id="8xzKFLjRtHm6hBmf5HE1-410" value="" style="rounded=0;whiteSpace=wrap;html=1;strokeWidth=0.5;" vertex="1" parent="1">
          <mxGeometry x="244" y="237" width="2" height="2" as="geometry" />
        </mxCell>
        <mxCell id="8xzKFLjRtHm6hBmf5HE1-411" value="" style="rounded=0;whiteSpace=wrap;html=1;strokeWidth=0.5;" vertex="1" parent="1">
          <mxGeometry x="246" y="237" width="2" height="2" as="geometry" />
        </mxCell>
        <mxCell id="8xzKFLjRtHm6hBmf5HE1-412" value="" style="rounded=0;whiteSpace=wrap;html=1;strokeWidth=0.5;" vertex="1" parent="1">
          <mxGeometry x="232" y="239" width="2" height="2" as="geometry" />
        </mxCell>
        <mxCell id="8xzKFLjRtHm6hBmf5HE1-413" value="" style="rounded=0;whiteSpace=wrap;html=1;strokeWidth=0.5;" vertex="1" parent="1">
          <mxGeometry x="234" y="239" width="2" height="2" as="geometry" />
        </mxCell>
        <mxCell id="8xzKFLjRtHm6hBmf5HE1-414" value="" style="rounded=0;whiteSpace=wrap;html=1;strokeWidth=0.5;" vertex="1" parent="1">
          <mxGeometry x="236" y="239" width="2" height="2" as="geometry" />
        </mxCell>
        <mxCell id="8xzKFLjRtHm6hBmf5HE1-415" value="" style="rounded=0;whiteSpace=wrap;html=1;strokeWidth=0.5;" vertex="1" parent="1">
          <mxGeometry x="238" y="239" width="2" height="2" as="geometry" />
        </mxCell>
        <mxCell id="8xzKFLjRtHm6hBmf5HE1-416" value="" style="rounded=0;whiteSpace=wrap;html=1;strokeWidth=0.5;fillColor=#f8cecc;strokeColor=#b85450;" vertex="1" parent="1">
          <mxGeometry x="240" y="239" width="2" height="2" as="geometry" />
        </mxCell>
        <mxCell id="8xzKFLjRtHm6hBmf5HE1-417" value="" style="rounded=0;whiteSpace=wrap;html=1;strokeWidth=0.5;fillColor=#f8cecc;strokeColor=#b85450;" vertex="1" parent="1">
          <mxGeometry x="242" y="239" width="2" height="2" as="geometry" />
        </mxCell>
        <mxCell id="8xzKFLjRtHm6hBmf5HE1-418" value="" style="rounded=0;whiteSpace=wrap;html=1;strokeWidth=0.5;" vertex="1" parent="1">
          <mxGeometry x="244" y="239" width="2" height="2" as="geometry" />
        </mxCell>
        <mxCell id="8xzKFLjRtHm6hBmf5HE1-419" value="" style="rounded=0;whiteSpace=wrap;html=1;strokeWidth=0.5;" vertex="1" parent="1">
          <mxGeometry x="246" y="239" width="2" height="2" as="geometry" />
        </mxCell>
        <mxCell id="8xzKFLjRtHm6hBmf5HE1-420" value="" style="rounded=0;whiteSpace=wrap;html=1;strokeWidth=0.5;" vertex="1" parent="1">
          <mxGeometry x="232" y="241" width="2" height="2" as="geometry" />
        </mxCell>
        <mxCell id="8xzKFLjRtHm6hBmf5HE1-421" value="" style="rounded=0;whiteSpace=wrap;html=1;strokeWidth=0.5;" vertex="1" parent="1">
          <mxGeometry x="234" y="241" width="2" height="2" as="geometry" />
        </mxCell>
        <mxCell id="8xzKFLjRtHm6hBmf5HE1-422" value="" style="rounded=0;whiteSpace=wrap;html=1;strokeWidth=0.5;" vertex="1" parent="1">
          <mxGeometry x="236" y="241" width="2" height="2" as="geometry" />
        </mxCell>
        <mxCell id="8xzKFLjRtHm6hBmf5HE1-423" value="" style="rounded=0;whiteSpace=wrap;html=1;strokeWidth=0.5;fillColor=#f8cecc;strokeColor=#b85450;" vertex="1" parent="1">
          <mxGeometry x="238" y="241" width="2" height="2" as="geometry" />
        </mxCell>
        <mxCell id="8xzKFLjRtHm6hBmf5HE1-424" value="" style="rounded=0;whiteSpace=wrap;html=1;strokeWidth=0.5;fillColor=#f8cecc;strokeColor=#b85450;" vertex="1" parent="1">
          <mxGeometry x="240" y="241" width="2" height="2" as="geometry" />
        </mxCell>
        <mxCell id="8xzKFLjRtHm6hBmf5HE1-425" value="" style="rounded=0;whiteSpace=wrap;html=1;strokeWidth=0.5;fillColor=#f8cecc;strokeColor=#b85450;" vertex="1" parent="1">
          <mxGeometry x="242" y="241" width="2" height="2" as="geometry" />
        </mxCell>
        <mxCell id="8xzKFLjRtHm6hBmf5HE1-426" value="" style="rounded=0;whiteSpace=wrap;html=1;strokeWidth=0.5;" vertex="1" parent="1">
          <mxGeometry x="244" y="241" width="2" height="2" as="geometry" />
        </mxCell>
        <mxCell id="8xzKFLjRtHm6hBmf5HE1-427" value="" style="rounded=0;whiteSpace=wrap;html=1;strokeWidth=0.5;" vertex="1" parent="1">
          <mxGeometry x="246" y="241" width="2" height="2" as="geometry" />
        </mxCell>
        <mxCell id="8xzKFLjRtHm6hBmf5HE1-428" value="" style="rounded=0;whiteSpace=wrap;html=1;strokeWidth=0.5;" vertex="1" parent="1">
          <mxGeometry x="232" y="243" width="2" height="2" as="geometry" />
        </mxCell>
        <mxCell id="8xzKFLjRtHm6hBmf5HE1-429" value="" style="rounded=0;whiteSpace=wrap;html=1;strokeWidth=0.5;" vertex="1" parent="1">
          <mxGeometry x="234" y="243" width="2" height="2" as="geometry" />
        </mxCell>
        <mxCell id="8xzKFLjRtHm6hBmf5HE1-430" value="" style="rounded=0;whiteSpace=wrap;html=1;strokeWidth=0.5;fillColor=#f8cecc;strokeColor=#b85450;" vertex="1" parent="1">
          <mxGeometry x="236" y="243" width="2" height="2" as="geometry" />
        </mxCell>
        <mxCell id="8xzKFLjRtHm6hBmf5HE1-431" value="" style="rounded=0;whiteSpace=wrap;html=1;strokeWidth=0.5;fillColor=#f8cecc;strokeColor=#b85450;" vertex="1" parent="1">
          <mxGeometry x="238" y="243" width="2" height="2" as="geometry" />
        </mxCell>
        <mxCell id="8xzKFLjRtHm6hBmf5HE1-432" value="" style="rounded=0;whiteSpace=wrap;html=1;strokeWidth=0.5;fillColor=#f8cecc;strokeColor=#b85450;" vertex="1" parent="1">
          <mxGeometry x="240" y="243" width="2" height="2" as="geometry" />
        </mxCell>
        <mxCell id="8xzKFLjRtHm6hBmf5HE1-433" value="" style="rounded=0;whiteSpace=wrap;html=1;strokeWidth=0.5;fillColor=#f8cecc;strokeColor=#b85450;" vertex="1" parent="1">
          <mxGeometry x="242" y="243" width="2" height="2" as="geometry" />
        </mxCell>
        <mxCell id="8xzKFLjRtHm6hBmf5HE1-434" value="" style="rounded=0;whiteSpace=wrap;html=1;strokeWidth=0.5;" vertex="1" parent="1">
          <mxGeometry x="244" y="243" width="2" height="2" as="geometry" />
        </mxCell>
        <mxCell id="8xzKFLjRtHm6hBmf5HE1-435" value="" style="rounded=0;whiteSpace=wrap;html=1;strokeWidth=0.5;" vertex="1" parent="1">
          <mxGeometry x="246" y="243" width="2" height="2" as="geometry" />
        </mxCell>
        <mxCell id="8xzKFLjRtHm6hBmf5HE1-436" value="" style="rounded=0;whiteSpace=wrap;html=1;strokeWidth=0.5;" vertex="1" parent="1">
          <mxGeometry x="232" y="245" width="2" height="2" as="geometry" />
        </mxCell>
        <mxCell id="8xzKFLjRtHm6hBmf5HE1-437" value="" style="rounded=0;whiteSpace=wrap;html=1;strokeWidth=0.5;fillColor=#f8cecc;strokeColor=#b85450;" vertex="1" parent="1">
          <mxGeometry x="234" y="245" width="2" height="2" as="geometry" />
        </mxCell>
        <mxCell id="8xzKFLjRtHm6hBmf5HE1-438" value="" style="rounded=0;whiteSpace=wrap;html=1;strokeWidth=0.5;fillColor=#f8cecc;strokeColor=#b85450;" vertex="1" parent="1">
          <mxGeometry x="236" y="245" width="2" height="2" as="geometry" />
        </mxCell>
        <mxCell id="8xzKFLjRtHm6hBmf5HE1-439" value="" style="rounded=0;whiteSpace=wrap;html=1;strokeWidth=0.5;fillColor=#f8cecc;strokeColor=#b85450;" vertex="1" parent="1">
          <mxGeometry x="238" y="245" width="2" height="2" as="geometry" />
        </mxCell>
        <mxCell id="8xzKFLjRtHm6hBmf5HE1-440" value="" style="rounded=0;whiteSpace=wrap;html=1;strokeWidth=0.5;fillColor=#f8cecc;strokeColor=#b85450;" vertex="1" parent="1">
          <mxGeometry x="240" y="245" width="2" height="2" as="geometry" />
        </mxCell>
        <mxCell id="8xzKFLjRtHm6hBmf5HE1-441" value="" style="rounded=0;whiteSpace=wrap;html=1;strokeWidth=0.5;fillColor=#f8cecc;strokeColor=#b85450;" vertex="1" parent="1">
          <mxGeometry x="242" y="245" width="2" height="2" as="geometry" />
        </mxCell>
        <mxCell id="8xzKFLjRtHm6hBmf5HE1-442" value="" style="rounded=0;whiteSpace=wrap;html=1;strokeWidth=0.5;" vertex="1" parent="1">
          <mxGeometry x="244" y="245" width="2" height="2" as="geometry" />
        </mxCell>
        <mxCell id="8xzKFLjRtHm6hBmf5HE1-443" value="" style="rounded=0;whiteSpace=wrap;html=1;strokeWidth=0.5;" vertex="1" parent="1">
          <mxGeometry x="246" y="245" width="2" height="2" as="geometry" />
        </mxCell>
        <mxCell id="8xzKFLjRtHm6hBmf5HE1-444" value="" style="rounded=0;whiteSpace=wrap;html=1;strokeWidth=0.5;fillColor=#f8cecc;strokeColor=#b85450;" vertex="1" parent="1">
          <mxGeometry x="232" y="247" width="2" height="2" as="geometry" />
        </mxCell>
        <mxCell id="8xzKFLjRtHm6hBmf5HE1-445" value="" style="rounded=0;whiteSpace=wrap;html=1;strokeWidth=0.5;fillColor=#f8cecc;strokeColor=#b85450;" vertex="1" parent="1">
          <mxGeometry x="234" y="247" width="2" height="2" as="geometry" />
        </mxCell>
        <mxCell id="8xzKFLjRtHm6hBmf5HE1-446" value="" style="rounded=0;whiteSpace=wrap;html=1;strokeWidth=0.5;fillColor=#f8cecc;strokeColor=#b85450;" vertex="1" parent="1">
          <mxGeometry x="236" y="247" width="2" height="2" as="geometry" />
        </mxCell>
        <mxCell id="8xzKFLjRtHm6hBmf5HE1-447" value="" style="rounded=0;whiteSpace=wrap;html=1;strokeWidth=0.5;fillColor=#f8cecc;strokeColor=#b85450;" vertex="1" parent="1">
          <mxGeometry x="238" y="247" width="2" height="2" as="geometry" />
        </mxCell>
        <mxCell id="8xzKFLjRtHm6hBmf5HE1-448" value="" style="rounded=0;whiteSpace=wrap;html=1;strokeWidth=0.5;fillColor=#f8cecc;strokeColor=#b85450;" vertex="1" parent="1">
          <mxGeometry x="240" y="247" width="2" height="2" as="geometry" />
        </mxCell>
        <mxCell id="8xzKFLjRtHm6hBmf5HE1-449" value="" style="rounded=0;whiteSpace=wrap;html=1;strokeWidth=0.5;fillColor=#f8cecc;strokeColor=#b85450;" vertex="1" parent="1">
          <mxGeometry x="242" y="247" width="2" height="2" as="geometry" />
        </mxCell>
        <mxCell id="8xzKFLjRtHm6hBmf5HE1-450" value="" style="rounded=0;whiteSpace=wrap;html=1;strokeWidth=0.5;" vertex="1" parent="1">
          <mxGeometry x="244" y="247" width="2" height="2" as="geometry" />
        </mxCell>
        <mxCell id="8xzKFLjRtHm6hBmf5HE1-451" value="" style="rounded=0;whiteSpace=wrap;html=1;strokeWidth=0.5;" vertex="1" parent="1">
          <mxGeometry x="246" y="247" width="2" height="2" as="geometry" />
        </mxCell>
        <mxCell id="8xzKFLjRtHm6hBmf5HE1-452" value="" style="rounded=0;whiteSpace=wrap;html=1;strokeWidth=0.5;" vertex="1" parent="1">
          <mxGeometry x="232" y="249" width="2" height="2" as="geometry" />
        </mxCell>
        <mxCell id="8xzKFLjRtHm6hBmf5HE1-453" value="" style="rounded=0;whiteSpace=wrap;html=1;strokeWidth=0.5;" vertex="1" parent="1">
          <mxGeometry x="234" y="249" width="2" height="2" as="geometry" />
        </mxCell>
        <mxCell id="8xzKFLjRtHm6hBmf5HE1-454" value="" style="rounded=0;whiteSpace=wrap;html=1;strokeWidth=0.5;" vertex="1" parent="1">
          <mxGeometry x="236" y="249" width="2" height="2" as="geometry" />
        </mxCell>
        <mxCell id="8xzKFLjRtHm6hBmf5HE1-455" value="" style="rounded=0;whiteSpace=wrap;html=1;strokeWidth=0.5;" vertex="1" parent="1">
          <mxGeometry x="238" y="249" width="2" height="2" as="geometry" />
        </mxCell>
        <mxCell id="8xzKFLjRtHm6hBmf5HE1-456" value="" style="rounded=0;whiteSpace=wrap;html=1;strokeWidth=0.5;" vertex="1" parent="1">
          <mxGeometry x="240" y="249" width="2" height="2" as="geometry" />
        </mxCell>
        <mxCell id="8xzKFLjRtHm6hBmf5HE1-457" value="" style="rounded=0;whiteSpace=wrap;html=1;strokeWidth=0.5;" vertex="1" parent="1">
          <mxGeometry x="242" y="249" width="2" height="2" as="geometry" />
        </mxCell>
        <mxCell id="8xzKFLjRtHm6hBmf5HE1-458" value="" style="rounded=0;whiteSpace=wrap;html=1;strokeWidth=0.5;" vertex="1" parent="1">
          <mxGeometry x="244" y="249" width="2" height="2" as="geometry" />
        </mxCell>
        <mxCell id="8xzKFLjRtHm6hBmf5HE1-459" value="" style="rounded=0;whiteSpace=wrap;html=1;strokeWidth=0.5;" vertex="1" parent="1">
          <mxGeometry x="246" y="249" width="2" height="2" as="geometry" />
        </mxCell>
        <mxCell id="8xzKFLjRtHm6hBmf5HE1-460" value="" style="rounded=0;whiteSpace=wrap;html=1;strokeWidth=0.5;" vertex="1" parent="1">
          <mxGeometry x="232" y="251" width="2" height="2" as="geometry" />
        </mxCell>
        <mxCell id="8xzKFLjRtHm6hBmf5HE1-461" value="" style="rounded=0;whiteSpace=wrap;html=1;strokeWidth=0.5;" vertex="1" parent="1">
          <mxGeometry x="234" y="251" width="2" height="2" as="geometry" />
        </mxCell>
        <mxCell id="8xzKFLjRtHm6hBmf5HE1-462" value="" style="rounded=0;whiteSpace=wrap;html=1;strokeWidth=0.5;" vertex="1" parent="1">
          <mxGeometry x="236" y="251" width="2" height="2" as="geometry" />
        </mxCell>
        <mxCell id="8xzKFLjRtHm6hBmf5HE1-463" value="" style="rounded=0;whiteSpace=wrap;html=1;strokeWidth=0.5;" vertex="1" parent="1">
          <mxGeometry x="238" y="251" width="2" height="2" as="geometry" />
        </mxCell>
        <mxCell id="8xzKFLjRtHm6hBmf5HE1-464" value="" style="rounded=0;whiteSpace=wrap;html=1;strokeWidth=0.5;" vertex="1" parent="1">
          <mxGeometry x="240" y="251" width="2" height="2" as="geometry" />
        </mxCell>
        <mxCell id="8xzKFLjRtHm6hBmf5HE1-465" value="" style="rounded=0;whiteSpace=wrap;html=1;strokeWidth=0.5;" vertex="1" parent="1">
          <mxGeometry x="242" y="251" width="2" height="2" as="geometry" />
        </mxCell>
        <mxCell id="8xzKFLjRtHm6hBmf5HE1-466" value="" style="rounded=0;whiteSpace=wrap;html=1;strokeWidth=0.5;" vertex="1" parent="1">
          <mxGeometry x="244" y="251" width="2" height="2" as="geometry" />
        </mxCell>
        <mxCell id="8xzKFLjRtHm6hBmf5HE1-467" value="" style="rounded=0;whiteSpace=wrap;html=1;strokeWidth=0.5;" vertex="1" parent="1">
          <mxGeometry x="246" y="251" width="2" height="2" as="geometry" />
        </mxCell>
        <mxCell id="8xzKFLjRtHm6hBmf5HE1-468" value="..." style="text;html=1;align=center;verticalAlign=middle;whiteSpace=wrap;rounded=0;" vertex="1" parent="1">
          <mxGeometry x="169" y="226" width="60" height="30" as="geometry" />
        </mxCell>
        <mxCell id="8xzKFLjRtHm6hBmf5HE1-471" value="" style="endArrow=classic;html=1;rounded=0;entryX=0.136;entryY=0;entryDx=0;entryDy=0;entryPerimeter=0;" edge="1" parent="1" target="8xzKFLjRtHm6hBmf5HE1-274">
          <mxGeometry width="50" height="50" relative="1" as="geometry">
            <mxPoint x="120" y="200" as="sourcePoint" />
            <mxPoint x="151.92000000000002" y="210" as="targetPoint" />
          </mxGeometry>
        </mxCell>
        <mxCell id="8xzKFLjRtHm6hBmf5HE1-472" value="" style="endArrow=classic;html=1;rounded=0;entryX=0.136;entryY=0;entryDx=0;entryDy=0;entryPerimeter=0;" edge="1" parent="1">
          <mxGeometry width="50" height="50" relative="1" as="geometry">
            <mxPoint x="200" y="200" as="sourcePoint" />
            <mxPoint x="160" y="230" as="targetPoint" />
          </mxGeometry>
        </mxCell>
        <mxCell id="8xzKFLjRtHm6hBmf5HE1-473" value="" style="endArrow=classic;html=1;rounded=0;entryX=0.136;entryY=0;entryDx=0;entryDy=0;entryPerimeter=0;" edge="1" parent="1">
          <mxGeometry width="50" height="50" relative="1" as="geometry">
            <mxPoint x="280" y="200" as="sourcePoint" />
            <mxPoint x="240" y="230" as="targetPoint" />
          </mxGeometry>
        </mxCell>
        <mxCell id="8xzKFLjRtHm6hBmf5HE1-474" value="" style="rounded=0;whiteSpace=wrap;html=1;container=0;" vertex="1" parent="1">
          <mxGeometry x="390" y="90" width="10" height="10" as="geometry" />
        </mxCell>
        <mxCell id="8xzKFLjRtHm6hBmf5HE1-477" value="" style="ellipse;whiteSpace=wrap;html=1;aspect=fixed;fillColor=#808080;strokeColor=#808080;container=0;" vertex="1" parent="1">
          <mxGeometry x="394" y="94" width="2" height="2" as="geometry" />
        </mxCell>
        <mxCell id="8xzKFLjRtHm6hBmf5HE1-480" value="" style="rounded=0;whiteSpace=wrap;html=1;container=0;" vertex="1" parent="1">
          <mxGeometry x="400" y="90" width="10" height="10" as="geometry" />
        </mxCell>
        <mxCell id="8xzKFLjRtHm6hBmf5HE1-481" value="" style="ellipse;whiteSpace=wrap;html=1;aspect=fixed;fillColor=#808080;strokeColor=#808080;container=0;" vertex="1" parent="1">
          <mxGeometry x="404" y="94" width="2" height="2" as="geometry" />
        </mxCell>
        <mxCell id="8xzKFLjRtHm6hBmf5HE1-483" value="" style="rounded=0;whiteSpace=wrap;html=1;container=0;" vertex="1" parent="1">
          <mxGeometry x="390" y="80" width="10" height="10" as="geometry" />
        </mxCell>
        <mxCell id="8xzKFLjRtHm6hBmf5HE1-484" value="" style="ellipse;whiteSpace=wrap;html=1;aspect=fixed;fillColor=#808080;strokeColor=#808080;container=0;" vertex="1" parent="1">
          <mxGeometry x="394" y="84" width="2" height="2" as="geometry" />
        </mxCell>
        <mxCell id="8xzKFLjRtHm6hBmf5HE1-486" value="" style="rounded=0;whiteSpace=wrap;html=1;container=0;" vertex="1" parent="1">
          <mxGeometry x="400" y="80" width="10" height="10" as="geometry" />
        </mxCell>
        <mxCell id="8xzKFLjRtHm6hBmf5HE1-487" value="" style="ellipse;whiteSpace=wrap;html=1;aspect=fixed;fillColor=#808080;strokeColor=#808080;container=0;" vertex="1" parent="1">
          <mxGeometry x="404" y="84" width="2" height="2" as="geometry" />
        </mxCell>
        <mxCell id="8xzKFLjRtHm6hBmf5HE1-489" value="" style="rounded=0;whiteSpace=wrap;html=1;container=0;" vertex="1" parent="1">
          <mxGeometry x="410" y="90" width="10" height="10" as="geometry" />
        </mxCell>
        <mxCell id="8xzKFLjRtHm6hBmf5HE1-490" value="" style="ellipse;whiteSpace=wrap;html=1;aspect=fixed;fillColor=#808080;strokeColor=#808080;container=0;" vertex="1" parent="1">
          <mxGeometry x="414" y="94" width="2" height="2" as="geometry" />
        </mxCell>
        <mxCell id="8xzKFLjRtHm6hBmf5HE1-492" value="" style="rounded=0;whiteSpace=wrap;html=1;container=0;" vertex="1" parent="1">
          <mxGeometry x="420" y="90" width="10" height="10" as="geometry" />
        </mxCell>
        <mxCell id="8xzKFLjRtHm6hBmf5HE1-493" value="" style="ellipse;whiteSpace=wrap;html=1;aspect=fixed;fillColor=#808080;strokeColor=#808080;container=0;" vertex="1" parent="1">
          <mxGeometry x="424" y="94" width="2" height="2" as="geometry" />
        </mxCell>
        <mxCell id="8xzKFLjRtHm6hBmf5HE1-495" value="" style="rounded=0;whiteSpace=wrap;html=1;container=0;" vertex="1" parent="1">
          <mxGeometry x="410" y="80" width="10" height="10" as="geometry" />
        </mxCell>
        <mxCell id="8xzKFLjRtHm6hBmf5HE1-496" value="" style="ellipse;whiteSpace=wrap;html=1;aspect=fixed;fillColor=#808080;strokeColor=#808080;container=0;" vertex="1" parent="1">
          <mxGeometry x="414" y="84" width="2" height="2" as="geometry" />
        </mxCell>
        <mxCell id="8xzKFLjRtHm6hBmf5HE1-498" value="" style="rounded=0;whiteSpace=wrap;html=1;container=0;" vertex="1" parent="1">
          <mxGeometry x="420" y="80" width="10" height="10" as="geometry" />
        </mxCell>
        <mxCell id="8xzKFLjRtHm6hBmf5HE1-499" value="" style="ellipse;whiteSpace=wrap;html=1;aspect=fixed;fillColor=#808080;strokeColor=#808080;container=0;" vertex="1" parent="1">
          <mxGeometry x="424" y="84" width="2" height="2" as="geometry" />
        </mxCell>
        <mxCell id="8xzKFLjRtHm6hBmf5HE1-501" value="" style="rounded=0;whiteSpace=wrap;html=1;container=0;" vertex="1" parent="1">
          <mxGeometry x="430" y="90" width="10" height="10" as="geometry" />
        </mxCell>
        <mxCell id="8xzKFLjRtHm6hBmf5HE1-502" value="" style="ellipse;whiteSpace=wrap;html=1;aspect=fixed;fillColor=#808080;strokeColor=#808080;container=0;" vertex="1" parent="1">
          <mxGeometry x="434" y="94" width="2" height="2" as="geometry" />
        </mxCell>
        <mxCell id="8xzKFLjRtHm6hBmf5HE1-504" value="" style="rounded=0;whiteSpace=wrap;html=1;container=0;" vertex="1" parent="1">
          <mxGeometry x="440" y="90" width="10" height="10" as="geometry" />
        </mxCell>
        <mxCell id="8xzKFLjRtHm6hBmf5HE1-505" value="" style="ellipse;whiteSpace=wrap;html=1;aspect=fixed;fillColor=#808080;strokeColor=#808080;container=0;" vertex="1" parent="1">
          <mxGeometry x="444" y="94" width="2" height="2" as="geometry" />
        </mxCell>
        <mxCell id="8xzKFLjRtHm6hBmf5HE1-507" value="" style="rounded=0;whiteSpace=wrap;html=1;container=0;" vertex="1" parent="1">
          <mxGeometry x="430" y="80" width="10" height="10" as="geometry" />
        </mxCell>
        <mxCell id="8xzKFLjRtHm6hBmf5HE1-508" value="" style="ellipse;whiteSpace=wrap;html=1;aspect=fixed;fillColor=#808080;strokeColor=#808080;container=0;" vertex="1" parent="1">
          <mxGeometry x="434" y="84" width="2" height="2" as="geometry" />
        </mxCell>
        <mxCell id="8xzKFLjRtHm6hBmf5HE1-510" value="" style="rounded=0;whiteSpace=wrap;html=1;container=0;" vertex="1" parent="1">
          <mxGeometry x="440" y="80" width="10" height="10" as="geometry" />
        </mxCell>
        <mxCell id="8xzKFLjRtHm6hBmf5HE1-511" value="" style="ellipse;whiteSpace=wrap;html=1;aspect=fixed;fillColor=#808080;strokeColor=#808080;container=0;" vertex="1" parent="1">
          <mxGeometry x="444" y="84" width="2" height="2" as="geometry" />
        </mxCell>
        <mxCell id="8xzKFLjRtHm6hBmf5HE1-513" value="" style="rounded=0;whiteSpace=wrap;html=1;container=0;" vertex="1" parent="1">
          <mxGeometry x="450" y="90" width="10" height="10" as="geometry" />
        </mxCell>
        <mxCell id="8xzKFLjRtHm6hBmf5HE1-514" value="" style="ellipse;whiteSpace=wrap;html=1;aspect=fixed;fillColor=#808080;strokeColor=#808080;container=0;" vertex="1" parent="1">
          <mxGeometry x="454" y="94" width="2" height="2" as="geometry" />
        </mxCell>
        <mxCell id="8xzKFLjRtHm6hBmf5HE1-516" value="" style="rounded=0;whiteSpace=wrap;html=1;container=0;" vertex="1" parent="1">
          <mxGeometry x="460" y="90" width="10" height="10" as="geometry" />
        </mxCell>
        <mxCell id="8xzKFLjRtHm6hBmf5HE1-517" value="" style="ellipse;whiteSpace=wrap;html=1;aspect=fixed;fillColor=#808080;strokeColor=#808080;container=0;" vertex="1" parent="1">
          <mxGeometry x="464" y="94" width="2" height="2" as="geometry" />
        </mxCell>
        <mxCell id="8xzKFLjRtHm6hBmf5HE1-519" value="" style="rounded=0;whiteSpace=wrap;html=1;container=0;" vertex="1" parent="1">
          <mxGeometry x="450" y="80" width="10" height="10" as="geometry" />
        </mxCell>
        <mxCell id="8xzKFLjRtHm6hBmf5HE1-520" value="" style="ellipse;whiteSpace=wrap;html=1;aspect=fixed;fillColor=#808080;strokeColor=#808080;container=0;" vertex="1" parent="1">
          <mxGeometry x="454" y="84" width="2" height="2" as="geometry" />
        </mxCell>
        <mxCell id="8xzKFLjRtHm6hBmf5HE1-522" value="" style="rounded=0;whiteSpace=wrap;html=1;container=0;" vertex="1" parent="1">
          <mxGeometry x="460" y="80" width="10" height="10" as="geometry" />
        </mxCell>
        <mxCell id="8xzKFLjRtHm6hBmf5HE1-523" value="" style="ellipse;whiteSpace=wrap;html=1;aspect=fixed;fillColor=#808080;strokeColor=#808080;container=0;" vertex="1" parent="1">
          <mxGeometry x="464" y="84" width="2" height="2" as="geometry" />
        </mxCell>
        <mxCell id="8xzKFLjRtHm6hBmf5HE1-525" value="" style="rounded=0;whiteSpace=wrap;html=1;container=0;" vertex="1" parent="1">
          <mxGeometry x="390" y="110" width="10" height="10" as="geometry" />
        </mxCell>
        <mxCell id="8xzKFLjRtHm6hBmf5HE1-526" value="" style="ellipse;whiteSpace=wrap;html=1;aspect=fixed;fillColor=#808080;strokeColor=#808080;container=0;" vertex="1" parent="1">
          <mxGeometry x="394" y="114" width="2" height="2" as="geometry" />
        </mxCell>
        <mxCell id="8xzKFLjRtHm6hBmf5HE1-528" value="" style="rounded=0;whiteSpace=wrap;html=1;container=0;" vertex="1" parent="1">
          <mxGeometry x="400" y="110" width="10" height="10" as="geometry" />
        </mxCell>
        <mxCell id="8xzKFLjRtHm6hBmf5HE1-529" value="" style="ellipse;whiteSpace=wrap;html=1;aspect=fixed;fillColor=#808080;strokeColor=#808080;container=0;" vertex="1" parent="1">
          <mxGeometry x="404" y="114" width="2" height="2" as="geometry" />
        </mxCell>
        <mxCell id="8xzKFLjRtHm6hBmf5HE1-531" value="" style="rounded=0;whiteSpace=wrap;html=1;container=0;" vertex="1" parent="1">
          <mxGeometry x="390" y="100" width="10" height="10" as="geometry" />
        </mxCell>
        <mxCell id="8xzKFLjRtHm6hBmf5HE1-532" value="" style="ellipse;whiteSpace=wrap;html=1;aspect=fixed;fillColor=#808080;strokeColor=#808080;container=0;" vertex="1" parent="1">
          <mxGeometry x="394" y="104" width="2" height="2" as="geometry" />
        </mxCell>
        <mxCell id="8xzKFLjRtHm6hBmf5HE1-534" value="" style="rounded=0;whiteSpace=wrap;html=1;container=0;" vertex="1" parent="1">
          <mxGeometry x="400" y="100" width="10" height="10" as="geometry" />
        </mxCell>
        <mxCell id="8xzKFLjRtHm6hBmf5HE1-535" value="" style="ellipse;whiteSpace=wrap;html=1;aspect=fixed;fillColor=#808080;strokeColor=#808080;container=0;" vertex="1" parent="1">
          <mxGeometry x="404" y="104" width="2" height="2" as="geometry" />
        </mxCell>
        <mxCell id="8xzKFLjRtHm6hBmf5HE1-537" value="" style="rounded=0;whiteSpace=wrap;html=1;container=0;" vertex="1" parent="1">
          <mxGeometry x="410" y="110" width="10" height="10" as="geometry" />
        </mxCell>
        <mxCell id="8xzKFLjRtHm6hBmf5HE1-538" value="" style="ellipse;whiteSpace=wrap;html=1;aspect=fixed;fillColor=#808080;strokeColor=#808080;container=0;" vertex="1" parent="1">
          <mxGeometry x="414" y="114" width="2" height="2" as="geometry" />
        </mxCell>
        <mxCell id="8xzKFLjRtHm6hBmf5HE1-540" value="" style="rounded=0;whiteSpace=wrap;html=1;container=0;" vertex="1" parent="1">
          <mxGeometry x="420" y="110" width="10" height="10" as="geometry" />
        </mxCell>
        <mxCell id="8xzKFLjRtHm6hBmf5HE1-541" value="" style="ellipse;whiteSpace=wrap;html=1;aspect=fixed;fillColor=#808080;strokeColor=#808080;container=0;" vertex="1" parent="1">
          <mxGeometry x="424" y="114" width="2" height="2" as="geometry" />
        </mxCell>
        <mxCell id="8xzKFLjRtHm6hBmf5HE1-543" value="" style="rounded=0;whiteSpace=wrap;html=1;container=0;" vertex="1" parent="1">
          <mxGeometry x="410" y="100" width="10" height="10" as="geometry" />
        </mxCell>
        <mxCell id="8xzKFLjRtHm6hBmf5HE1-544" value="" style="ellipse;whiteSpace=wrap;html=1;aspect=fixed;fillColor=#808080;strokeColor=#808080;container=0;" vertex="1" parent="1">
          <mxGeometry x="414" y="104" width="2" height="2" as="geometry" />
        </mxCell>
        <mxCell id="8xzKFLjRtHm6hBmf5HE1-546" value="" style="rounded=0;whiteSpace=wrap;html=1;container=0;" vertex="1" parent="1">
          <mxGeometry x="420" y="100" width="10" height="10" as="geometry" />
        </mxCell>
        <mxCell id="8xzKFLjRtHm6hBmf5HE1-547" value="" style="ellipse;whiteSpace=wrap;html=1;aspect=fixed;fillColor=#808080;strokeColor=#808080;container=0;" vertex="1" parent="1">
          <mxGeometry x="424" y="104" width="2" height="2" as="geometry" />
        </mxCell>
        <mxCell id="8xzKFLjRtHm6hBmf5HE1-549" value="" style="rounded=0;whiteSpace=wrap;html=1;container=0;" vertex="1" parent="1">
          <mxGeometry x="430" y="110" width="10" height="10" as="geometry" />
        </mxCell>
        <mxCell id="8xzKFLjRtHm6hBmf5HE1-550" value="" style="ellipse;whiteSpace=wrap;html=1;aspect=fixed;fillColor=#808080;strokeColor=#808080;container=0;" vertex="1" parent="1">
          <mxGeometry x="434" y="114" width="2" height="2" as="geometry" />
        </mxCell>
        <mxCell id="8xzKFLjRtHm6hBmf5HE1-552" value="" style="rounded=0;whiteSpace=wrap;html=1;container=0;" vertex="1" parent="1">
          <mxGeometry x="440" y="110" width="10" height="10" as="geometry" />
        </mxCell>
        <mxCell id="8xzKFLjRtHm6hBmf5HE1-553" value="" style="ellipse;whiteSpace=wrap;html=1;aspect=fixed;fillColor=#808080;strokeColor=#808080;container=0;" vertex="1" parent="1">
          <mxGeometry x="444" y="114" width="2" height="2" as="geometry" />
        </mxCell>
        <mxCell id="8xzKFLjRtHm6hBmf5HE1-555" value="" style="rounded=0;whiteSpace=wrap;html=1;container=0;" vertex="1" parent="1">
          <mxGeometry x="430" y="100" width="10" height="10" as="geometry" />
        </mxCell>
        <mxCell id="8xzKFLjRtHm6hBmf5HE1-556" value="" style="ellipse;whiteSpace=wrap;html=1;aspect=fixed;fillColor=#808080;strokeColor=#808080;container=0;" vertex="1" parent="1">
          <mxGeometry x="434" y="104" width="2" height="2" as="geometry" />
        </mxCell>
        <mxCell id="8xzKFLjRtHm6hBmf5HE1-558" value="" style="rounded=0;whiteSpace=wrap;html=1;container=0;" vertex="1" parent="1">
          <mxGeometry x="440" y="100" width="10" height="10" as="geometry" />
        </mxCell>
        <mxCell id="8xzKFLjRtHm6hBmf5HE1-559" value="" style="ellipse;whiteSpace=wrap;html=1;aspect=fixed;fillColor=#808080;strokeColor=#808080;container=0;" vertex="1" parent="1">
          <mxGeometry x="444" y="104" width="2" height="2" as="geometry" />
        </mxCell>
        <mxCell id="8xzKFLjRtHm6hBmf5HE1-561" value="" style="rounded=0;whiteSpace=wrap;html=1;container=0;" vertex="1" parent="1">
          <mxGeometry x="450" y="110" width="10" height="10" as="geometry" />
        </mxCell>
        <mxCell id="8xzKFLjRtHm6hBmf5HE1-562" value="" style="ellipse;whiteSpace=wrap;html=1;aspect=fixed;fillColor=#808080;strokeColor=#808080;container=0;" vertex="1" parent="1">
          <mxGeometry x="454" y="114" width="2" height="2" as="geometry" />
        </mxCell>
        <mxCell id="8xzKFLjRtHm6hBmf5HE1-564" value="" style="rounded=0;whiteSpace=wrap;html=1;container=0;" vertex="1" parent="1">
          <mxGeometry x="460" y="110" width="10" height="10" as="geometry" />
        </mxCell>
        <mxCell id="8xzKFLjRtHm6hBmf5HE1-565" value="" style="ellipse;whiteSpace=wrap;html=1;aspect=fixed;fillColor=#808080;strokeColor=#808080;container=0;" vertex="1" parent="1">
          <mxGeometry x="464" y="114" width="2" height="2" as="geometry" />
        </mxCell>
        <mxCell id="8xzKFLjRtHm6hBmf5HE1-567" value="" style="rounded=0;whiteSpace=wrap;html=1;container=0;" vertex="1" parent="1">
          <mxGeometry x="450" y="100" width="10" height="10" as="geometry" />
        </mxCell>
        <mxCell id="8xzKFLjRtHm6hBmf5HE1-568" value="" style="ellipse;whiteSpace=wrap;html=1;aspect=fixed;fillColor=#808080;strokeColor=#808080;container=0;" vertex="1" parent="1">
          <mxGeometry x="454" y="104" width="2" height="2" as="geometry" />
        </mxCell>
        <mxCell id="8xzKFLjRtHm6hBmf5HE1-570" value="" style="rounded=0;whiteSpace=wrap;html=1;container=0;" vertex="1" parent="1">
          <mxGeometry x="460" y="100" width="10" height="10" as="geometry" />
        </mxCell>
        <mxCell id="8xzKFLjRtHm6hBmf5HE1-571" value="" style="ellipse;whiteSpace=wrap;html=1;aspect=fixed;fillColor=#808080;strokeColor=#808080;container=0;" vertex="1" parent="1">
          <mxGeometry x="464" y="104" width="2" height="2" as="geometry" />
        </mxCell>
        <mxCell id="8xzKFLjRtHm6hBmf5HE1-573" value="" style="rounded=0;whiteSpace=wrap;html=1;container=0;" vertex="1" parent="1">
          <mxGeometry x="390" y="130" width="10" height="10" as="geometry" />
        </mxCell>
        <mxCell id="8xzKFLjRtHm6hBmf5HE1-574" value="" style="ellipse;whiteSpace=wrap;html=1;aspect=fixed;fillColor=#808080;strokeColor=#808080;container=0;" vertex="1" parent="1">
          <mxGeometry x="394" y="134" width="2" height="2" as="geometry" />
        </mxCell>
        <mxCell id="8xzKFLjRtHm6hBmf5HE1-576" value="" style="rounded=0;whiteSpace=wrap;html=1;container=0;" vertex="1" parent="1">
          <mxGeometry x="400" y="130" width="10" height="10" as="geometry" />
        </mxCell>
        <mxCell id="8xzKFLjRtHm6hBmf5HE1-577" value="" style="ellipse;whiteSpace=wrap;html=1;aspect=fixed;fillColor=#808080;strokeColor=#808080;container=0;" vertex="1" parent="1">
          <mxGeometry x="404" y="134" width="2" height="2" as="geometry" />
        </mxCell>
        <mxCell id="8xzKFLjRtHm6hBmf5HE1-579" value="" style="rounded=0;whiteSpace=wrap;html=1;container=0;" vertex="1" parent="1">
          <mxGeometry x="390" y="120" width="10" height="10" as="geometry" />
        </mxCell>
        <mxCell id="8xzKFLjRtHm6hBmf5HE1-580" value="" style="ellipse;whiteSpace=wrap;html=1;aspect=fixed;fillColor=#808080;strokeColor=#808080;container=0;" vertex="1" parent="1">
          <mxGeometry x="394" y="124" width="2" height="2" as="geometry" />
        </mxCell>
        <mxCell id="8xzKFLjRtHm6hBmf5HE1-582" value="" style="rounded=0;whiteSpace=wrap;html=1;container=0;" vertex="1" parent="1">
          <mxGeometry x="400" y="120" width="10" height="10" as="geometry" />
        </mxCell>
        <mxCell id="8xzKFLjRtHm6hBmf5HE1-583" value="" style="ellipse;whiteSpace=wrap;html=1;aspect=fixed;fillColor=#808080;strokeColor=#808080;container=0;" vertex="1" parent="1">
          <mxGeometry x="404" y="124" width="2" height="2" as="geometry" />
        </mxCell>
        <mxCell id="8xzKFLjRtHm6hBmf5HE1-585" value="" style="rounded=0;whiteSpace=wrap;html=1;container=0;" vertex="1" parent="1">
          <mxGeometry x="410" y="130" width="10" height="10" as="geometry" />
        </mxCell>
        <mxCell id="8xzKFLjRtHm6hBmf5HE1-586" value="" style="ellipse;whiteSpace=wrap;html=1;aspect=fixed;fillColor=#808080;strokeColor=#808080;container=0;" vertex="1" parent="1">
          <mxGeometry x="414" y="134" width="2" height="2" as="geometry" />
        </mxCell>
        <mxCell id="8xzKFLjRtHm6hBmf5HE1-588" value="" style="rounded=0;whiteSpace=wrap;html=1;container=0;" vertex="1" parent="1">
          <mxGeometry x="420" y="130" width="10" height="10" as="geometry" />
        </mxCell>
        <mxCell id="8xzKFLjRtHm6hBmf5HE1-589" value="" style="ellipse;whiteSpace=wrap;html=1;aspect=fixed;fillColor=#808080;strokeColor=#808080;container=0;" vertex="1" parent="1">
          <mxGeometry x="424" y="134" width="2" height="2" as="geometry" />
        </mxCell>
        <mxCell id="8xzKFLjRtHm6hBmf5HE1-591" value="" style="rounded=0;whiteSpace=wrap;html=1;container=0;" vertex="1" parent="1">
          <mxGeometry x="410" y="120" width="10" height="10" as="geometry" />
        </mxCell>
        <mxCell id="8xzKFLjRtHm6hBmf5HE1-592" value="" style="ellipse;whiteSpace=wrap;html=1;aspect=fixed;fillColor=#808080;strokeColor=#808080;container=0;" vertex="1" parent="1">
          <mxGeometry x="414" y="124" width="2" height="2" as="geometry" />
        </mxCell>
        <mxCell id="8xzKFLjRtHm6hBmf5HE1-594" value="" style="rounded=0;whiteSpace=wrap;html=1;container=0;" vertex="1" parent="1">
          <mxGeometry x="420" y="120" width="10" height="10" as="geometry" />
        </mxCell>
        <mxCell id="8xzKFLjRtHm6hBmf5HE1-595" value="" style="ellipse;whiteSpace=wrap;html=1;aspect=fixed;fillColor=#808080;strokeColor=#808080;container=0;" vertex="1" parent="1">
          <mxGeometry x="424" y="124" width="2" height="2" as="geometry" />
        </mxCell>
        <mxCell id="8xzKFLjRtHm6hBmf5HE1-597" value="" style="rounded=0;whiteSpace=wrap;html=1;container=0;" vertex="1" parent="1">
          <mxGeometry x="430" y="130" width="10" height="10" as="geometry" />
        </mxCell>
        <mxCell id="8xzKFLjRtHm6hBmf5HE1-598" value="" style="ellipse;whiteSpace=wrap;html=1;aspect=fixed;fillColor=#808080;strokeColor=#808080;container=0;" vertex="1" parent="1">
          <mxGeometry x="434" y="134" width="2" height="2" as="geometry" />
        </mxCell>
        <mxCell id="8xzKFLjRtHm6hBmf5HE1-600" value="" style="rounded=0;whiteSpace=wrap;html=1;container=0;" vertex="1" parent="1">
          <mxGeometry x="440" y="130" width="10" height="10" as="geometry" />
        </mxCell>
        <mxCell id="8xzKFLjRtHm6hBmf5HE1-601" value="" style="ellipse;whiteSpace=wrap;html=1;aspect=fixed;fillColor=#808080;strokeColor=#808080;container=0;" vertex="1" parent="1">
          <mxGeometry x="444" y="134" width="2" height="2" as="geometry" />
        </mxCell>
        <mxCell id="8xzKFLjRtHm6hBmf5HE1-603" value="" style="rounded=0;whiteSpace=wrap;html=1;container=0;" vertex="1" parent="1">
          <mxGeometry x="430" y="120" width="10" height="10" as="geometry" />
        </mxCell>
        <mxCell id="8xzKFLjRtHm6hBmf5HE1-604" value="" style="ellipse;whiteSpace=wrap;html=1;aspect=fixed;fillColor=#808080;strokeColor=#808080;container=0;" vertex="1" parent="1">
          <mxGeometry x="434" y="124" width="2" height="2" as="geometry" />
        </mxCell>
        <mxCell id="8xzKFLjRtHm6hBmf5HE1-606" value="" style="rounded=0;whiteSpace=wrap;html=1;container=0;" vertex="1" parent="1">
          <mxGeometry x="440" y="120" width="10" height="10" as="geometry" />
        </mxCell>
        <mxCell id="8xzKFLjRtHm6hBmf5HE1-607" value="" style="ellipse;whiteSpace=wrap;html=1;aspect=fixed;fillColor=#808080;strokeColor=#808080;container=0;" vertex="1" parent="1">
          <mxGeometry x="444" y="124" width="2" height="2" as="geometry" />
        </mxCell>
        <mxCell id="8xzKFLjRtHm6hBmf5HE1-609" value="" style="rounded=0;whiteSpace=wrap;html=1;container=0;" vertex="1" parent="1">
          <mxGeometry x="450" y="130" width="10" height="10" as="geometry" />
        </mxCell>
        <mxCell id="8xzKFLjRtHm6hBmf5HE1-610" value="" style="ellipse;whiteSpace=wrap;html=1;aspect=fixed;fillColor=#808080;strokeColor=#808080;container=0;" vertex="1" parent="1">
          <mxGeometry x="454" y="134" width="2" height="2" as="geometry" />
        </mxCell>
        <mxCell id="8xzKFLjRtHm6hBmf5HE1-612" value="" style="rounded=0;whiteSpace=wrap;html=1;container=0;" vertex="1" parent="1">
          <mxGeometry x="460" y="130" width="10" height="10" as="geometry" />
        </mxCell>
        <mxCell id="8xzKFLjRtHm6hBmf5HE1-613" value="" style="ellipse;whiteSpace=wrap;html=1;aspect=fixed;fillColor=#808080;strokeColor=#808080;container=0;" vertex="1" parent="1">
          <mxGeometry x="464" y="134" width="2" height="2" as="geometry" />
        </mxCell>
        <mxCell id="8xzKFLjRtHm6hBmf5HE1-615" value="" style="rounded=0;whiteSpace=wrap;html=1;container=0;" vertex="1" parent="1">
          <mxGeometry x="450" y="120" width="10" height="10" as="geometry" />
        </mxCell>
        <mxCell id="8xzKFLjRtHm6hBmf5HE1-616" value="" style="ellipse;whiteSpace=wrap;html=1;aspect=fixed;fillColor=#808080;strokeColor=#808080;container=0;" vertex="1" parent="1">
          <mxGeometry x="454" y="124" width="2" height="2" as="geometry" />
        </mxCell>
        <mxCell id="8xzKFLjRtHm6hBmf5HE1-618" value="" style="rounded=0;whiteSpace=wrap;html=1;container=0;" vertex="1" parent="1">
          <mxGeometry x="460" y="120" width="10" height="10" as="geometry" />
        </mxCell>
        <mxCell id="8xzKFLjRtHm6hBmf5HE1-619" value="" style="ellipse;whiteSpace=wrap;html=1;aspect=fixed;fillColor=#808080;strokeColor=#808080;container=0;" vertex="1" parent="1">
          <mxGeometry x="464" y="124" width="2" height="2" as="geometry" />
        </mxCell>
        <mxCell id="8xzKFLjRtHm6hBmf5HE1-621" value="" style="rounded=0;whiteSpace=wrap;html=1;container=0;" vertex="1" parent="1">
          <mxGeometry x="390" y="150" width="10" height="10" as="geometry" />
        </mxCell>
        <mxCell id="8xzKFLjRtHm6hBmf5HE1-622" value="" style="ellipse;whiteSpace=wrap;html=1;aspect=fixed;fillColor=#808080;strokeColor=#808080;container=0;" vertex="1" parent="1">
          <mxGeometry x="394" y="154" width="2" height="2" as="geometry" />
        </mxCell>
        <mxCell id="8xzKFLjRtHm6hBmf5HE1-624" value="" style="rounded=0;whiteSpace=wrap;html=1;container=0;" vertex="1" parent="1">
          <mxGeometry x="400" y="150" width="10" height="10" as="geometry" />
        </mxCell>
        <mxCell id="8xzKFLjRtHm6hBmf5HE1-625" value="" style="ellipse;whiteSpace=wrap;html=1;aspect=fixed;fillColor=#808080;strokeColor=#808080;container=0;" vertex="1" parent="1">
          <mxGeometry x="404" y="154" width="2" height="2" as="geometry" />
        </mxCell>
        <mxCell id="8xzKFLjRtHm6hBmf5HE1-627" value="" style="rounded=0;whiteSpace=wrap;html=1;container=0;" vertex="1" parent="1">
          <mxGeometry x="390" y="140" width="10" height="10" as="geometry" />
        </mxCell>
        <mxCell id="8xzKFLjRtHm6hBmf5HE1-628" value="" style="ellipse;whiteSpace=wrap;html=1;aspect=fixed;fillColor=#808080;strokeColor=#808080;container=0;" vertex="1" parent="1">
          <mxGeometry x="394" y="144" width="2" height="2" as="geometry" />
        </mxCell>
        <mxCell id="8xzKFLjRtHm6hBmf5HE1-630" value="" style="rounded=0;whiteSpace=wrap;html=1;container=0;" vertex="1" parent="1">
          <mxGeometry x="400" y="140" width="10" height="10" as="geometry" />
        </mxCell>
        <mxCell id="8xzKFLjRtHm6hBmf5HE1-631" value="" style="ellipse;whiteSpace=wrap;html=1;aspect=fixed;fillColor=#808080;strokeColor=#808080;container=0;" vertex="1" parent="1">
          <mxGeometry x="404" y="144" width="2" height="2" as="geometry" />
        </mxCell>
        <mxCell id="8xzKFLjRtHm6hBmf5HE1-633" value="" style="rounded=0;whiteSpace=wrap;html=1;container=0;" vertex="1" parent="1">
          <mxGeometry x="410" y="150" width="10" height="10" as="geometry" />
        </mxCell>
        <mxCell id="8xzKFLjRtHm6hBmf5HE1-634" value="" style="ellipse;whiteSpace=wrap;html=1;aspect=fixed;fillColor=#808080;strokeColor=#808080;container=0;" vertex="1" parent="1">
          <mxGeometry x="414" y="154" width="2" height="2" as="geometry" />
        </mxCell>
        <mxCell id="8xzKFLjRtHm6hBmf5HE1-636" value="" style="rounded=0;whiteSpace=wrap;html=1;container=0;" vertex="1" parent="1">
          <mxGeometry x="420" y="150" width="10" height="10" as="geometry" />
        </mxCell>
        <mxCell id="8xzKFLjRtHm6hBmf5HE1-637" value="" style="ellipse;whiteSpace=wrap;html=1;aspect=fixed;fillColor=#808080;strokeColor=#808080;container=0;" vertex="1" parent="1">
          <mxGeometry x="424" y="154" width="2" height="2" as="geometry" />
        </mxCell>
        <mxCell id="8xzKFLjRtHm6hBmf5HE1-639" value="" style="rounded=0;whiteSpace=wrap;html=1;container=0;" vertex="1" parent="1">
          <mxGeometry x="410" y="140" width="10" height="10" as="geometry" />
        </mxCell>
        <mxCell id="8xzKFLjRtHm6hBmf5HE1-640" value="" style="ellipse;whiteSpace=wrap;html=1;aspect=fixed;fillColor=#808080;strokeColor=#808080;container=0;" vertex="1" parent="1">
          <mxGeometry x="414" y="144" width="2" height="2" as="geometry" />
        </mxCell>
        <mxCell id="8xzKFLjRtHm6hBmf5HE1-642" value="" style="rounded=0;whiteSpace=wrap;html=1;container=0;" vertex="1" parent="1">
          <mxGeometry x="420" y="140" width="10" height="10" as="geometry" />
        </mxCell>
        <mxCell id="8xzKFLjRtHm6hBmf5HE1-643" value="" style="ellipse;whiteSpace=wrap;html=1;aspect=fixed;fillColor=#808080;strokeColor=#808080;container=0;" vertex="1" parent="1">
          <mxGeometry x="424" y="144" width="2" height="2" as="geometry" />
        </mxCell>
        <mxCell id="8xzKFLjRtHm6hBmf5HE1-645" value="" style="rounded=0;whiteSpace=wrap;html=1;container=0;" vertex="1" parent="1">
          <mxGeometry x="430" y="150" width="10" height="10" as="geometry" />
        </mxCell>
        <mxCell id="8xzKFLjRtHm6hBmf5HE1-646" value="" style="ellipse;whiteSpace=wrap;html=1;aspect=fixed;fillColor=#808080;strokeColor=#808080;container=0;" vertex="1" parent="1">
          <mxGeometry x="434" y="154" width="2" height="2" as="geometry" />
        </mxCell>
        <mxCell id="8xzKFLjRtHm6hBmf5HE1-648" value="" style="rounded=0;whiteSpace=wrap;html=1;container=0;" vertex="1" parent="1">
          <mxGeometry x="440" y="150" width="10" height="10" as="geometry" />
        </mxCell>
        <mxCell id="8xzKFLjRtHm6hBmf5HE1-649" value="" style="ellipse;whiteSpace=wrap;html=1;aspect=fixed;fillColor=#808080;strokeColor=#808080;container=0;" vertex="1" parent="1">
          <mxGeometry x="444" y="154" width="2" height="2" as="geometry" />
        </mxCell>
        <mxCell id="8xzKFLjRtHm6hBmf5HE1-651" value="" style="rounded=0;whiteSpace=wrap;html=1;container=0;" vertex="1" parent="1">
          <mxGeometry x="430" y="140" width="10" height="10" as="geometry" />
        </mxCell>
        <mxCell id="8xzKFLjRtHm6hBmf5HE1-652" value="" style="ellipse;whiteSpace=wrap;html=1;aspect=fixed;fillColor=#808080;strokeColor=#808080;container=0;" vertex="1" parent="1">
          <mxGeometry x="434" y="144" width="2" height="2" as="geometry" />
        </mxCell>
        <mxCell id="8xzKFLjRtHm6hBmf5HE1-654" value="" style="rounded=0;whiteSpace=wrap;html=1;container=0;" vertex="1" parent="1">
          <mxGeometry x="440" y="140" width="10" height="10" as="geometry" />
        </mxCell>
        <mxCell id="8xzKFLjRtHm6hBmf5HE1-655" value="" style="ellipse;whiteSpace=wrap;html=1;aspect=fixed;fillColor=#808080;strokeColor=#808080;container=0;" vertex="1" parent="1">
          <mxGeometry x="444" y="144" width="2" height="2" as="geometry" />
        </mxCell>
        <mxCell id="8xzKFLjRtHm6hBmf5HE1-657" value="" style="rounded=0;whiteSpace=wrap;html=1;container=0;" vertex="1" parent="1">
          <mxGeometry x="450" y="150" width="10" height="10" as="geometry" />
        </mxCell>
        <mxCell id="8xzKFLjRtHm6hBmf5HE1-658" value="" style="ellipse;whiteSpace=wrap;html=1;aspect=fixed;fillColor=#808080;strokeColor=#808080;container=0;" vertex="1" parent="1">
          <mxGeometry x="454" y="154" width="2" height="2" as="geometry" />
        </mxCell>
        <mxCell id="8xzKFLjRtHm6hBmf5HE1-660" value="" style="rounded=0;whiteSpace=wrap;html=1;container=0;" vertex="1" parent="1">
          <mxGeometry x="460" y="150" width="10" height="10" as="geometry" />
        </mxCell>
        <mxCell id="8xzKFLjRtHm6hBmf5HE1-661" value="" style="ellipse;whiteSpace=wrap;html=1;aspect=fixed;fillColor=#808080;strokeColor=#808080;container=0;" vertex="1" parent="1">
          <mxGeometry x="464" y="154" width="2" height="2" as="geometry" />
        </mxCell>
        <mxCell id="8xzKFLjRtHm6hBmf5HE1-663" value="" style="rounded=0;whiteSpace=wrap;html=1;container=0;" vertex="1" parent="1">
          <mxGeometry x="450" y="140" width="10" height="10" as="geometry" />
        </mxCell>
        <mxCell id="8xzKFLjRtHm6hBmf5HE1-664" value="" style="ellipse;whiteSpace=wrap;html=1;aspect=fixed;fillColor=#808080;strokeColor=#808080;container=0;" vertex="1" parent="1">
          <mxGeometry x="454" y="144" width="2" height="2" as="geometry" />
        </mxCell>
        <mxCell id="8xzKFLjRtHm6hBmf5HE1-666" value="" style="rounded=0;whiteSpace=wrap;html=1;container=0;" vertex="1" parent="1">
          <mxGeometry x="460" y="140" width="10" height="10" as="geometry" />
        </mxCell>
        <mxCell id="8xzKFLjRtHm6hBmf5HE1-667" value="" style="ellipse;whiteSpace=wrap;html=1;aspect=fixed;fillColor=#808080;strokeColor=#808080;container=0;" vertex="1" parent="1">
          <mxGeometry x="464" y="144" width="2" height="2" as="geometry" />
        </mxCell>
        <mxCell id="8xzKFLjRtHm6hBmf5HE1-668" value="" style="endArrow=none;html=1;rounded=0;strokeColor=#FF66B3;" edge="1" parent="1">
          <mxGeometry width="50" height="50" relative="1" as="geometry">
            <mxPoint x="390" y="140" as="sourcePoint" />
            <mxPoint x="400" y="140" as="targetPoint" />
          </mxGeometry>
        </mxCell>
        <mxCell id="8xzKFLjRtHm6hBmf5HE1-676" value="" style="endArrow=none;html=1;rounded=0;strokeColor=#FF66B3;" edge="1" parent="1">
          <mxGeometry width="50" height="50" relative="1" as="geometry">
            <mxPoint x="400" y="130" as="sourcePoint" />
            <mxPoint x="410" y="130" as="targetPoint" />
          </mxGeometry>
        </mxCell>
        <mxCell id="8xzKFLjRtHm6hBmf5HE1-677" value="" style="endArrow=none;html=1;rounded=0;strokeColor=#FF66B3;" edge="1" parent="1">
          <mxGeometry width="50" height="50" relative="1" as="geometry">
            <mxPoint x="410" y="130" as="sourcePoint" />
            <mxPoint x="420" y="130" as="targetPoint" />
          </mxGeometry>
        </mxCell>
        <mxCell id="8xzKFLjRtHm6hBmf5HE1-678" value="" style="endArrow=none;html=1;rounded=0;strokeColor=#FF66B3;" edge="1" parent="1">
          <mxGeometry width="50" height="50" relative="1" as="geometry">
            <mxPoint x="420" y="120" as="sourcePoint" />
            <mxPoint x="430" y="120" as="targetPoint" />
          </mxGeometry>
        </mxCell>
        <mxCell id="8xzKFLjRtHm6hBmf5HE1-679" value="" style="endArrow=none;html=1;rounded=0;strokeColor=#FF66B3;" edge="1" parent="1">
          <mxGeometry width="50" height="50" relative="1" as="geometry">
            <mxPoint x="430" y="120" as="sourcePoint" />
            <mxPoint x="440" y="120" as="targetPoint" />
          </mxGeometry>
        </mxCell>
        <mxCell id="8xzKFLjRtHm6hBmf5HE1-680" value="" style="endArrow=none;html=1;rounded=0;strokeColor=#FF66B3;" edge="1" parent="1">
          <mxGeometry width="50" height="50" relative="1" as="geometry">
            <mxPoint x="440" y="110" as="sourcePoint" />
            <mxPoint x="450" y="110" as="targetPoint" />
          </mxGeometry>
        </mxCell>
        <mxCell id="8xzKFLjRtHm6hBmf5HE1-681" value="" style="endArrow=none;html=1;rounded=0;strokeColor=#FF66B3;" edge="1" parent="1">
          <mxGeometry width="50" height="50" relative="1" as="geometry">
            <mxPoint x="450" y="99.87" as="sourcePoint" />
            <mxPoint x="460" y="99.87" as="targetPoint" />
          </mxGeometry>
        </mxCell>
        <mxCell id="8xzKFLjRtHm6hBmf5HE1-682" value="" style="endArrow=none;html=1;rounded=0;strokeColor=#FF66B3;" edge="1" parent="1">
          <mxGeometry width="50" height="50" relative="1" as="geometry">
            <mxPoint x="460" y="90" as="sourcePoint" />
            <mxPoint x="470" y="90" as="targetPoint" />
          </mxGeometry>
        </mxCell>
        <mxCell id="8xzKFLjRtHm6hBmf5HE1-683" value="" style="endArrow=none;html=1;rounded=0;strokeColor=#FF66B3;" edge="1" parent="1">
          <mxGeometry width="50" height="50" relative="1" as="geometry">
            <mxPoint x="420" y="130" as="sourcePoint" />
            <mxPoint x="420" y="120" as="targetPoint" />
          </mxGeometry>
        </mxCell>
        <mxCell id="8xzKFLjRtHm6hBmf5HE1-685" value="" style="endArrow=none;html=1;rounded=0;strokeColor=#FF66B3;" edge="1" parent="1">
          <mxGeometry width="50" height="50" relative="1" as="geometry">
            <mxPoint x="399.87" y="140" as="sourcePoint" />
            <mxPoint x="399.87" y="130" as="targetPoint" />
          </mxGeometry>
        </mxCell>
        <mxCell id="8xzKFLjRtHm6hBmf5HE1-686" value="" style="endArrow=none;html=1;rounded=0;strokeColor=#FF66B3;" edge="1" parent="1">
          <mxGeometry width="50" height="50" relative="1" as="geometry">
            <mxPoint x="440" y="120" as="sourcePoint" />
            <mxPoint x="440" y="110" as="targetPoint" />
          </mxGeometry>
        </mxCell>
        <mxCell id="8xzKFLjRtHm6hBmf5HE1-687" value="" style="endArrow=none;html=1;rounded=0;strokeColor=#FF66B3;" edge="1" parent="1">
          <mxGeometry width="50" height="50" relative="1" as="geometry">
            <mxPoint x="450" y="110" as="sourcePoint" />
            <mxPoint x="450" y="100" as="targetPoint" />
          </mxGeometry>
        </mxCell>
        <mxCell id="8xzKFLjRtHm6hBmf5HE1-688" value="" style="endArrow=none;html=1;rounded=0;strokeColor=#FF66B3;" edge="1" parent="1">
          <mxGeometry width="50" height="50" relative="1" as="geometry">
            <mxPoint x="460" y="100" as="sourcePoint" />
            <mxPoint x="460" y="90" as="targetPoint" />
          </mxGeometry>
        </mxCell>
        <mxCell id="8xzKFLjRtHm6hBmf5HE1-689" value="" style="endArrow=none;html=1;rounded=0;strokeColor=#0000FF;" edge="1" parent="1">
          <mxGeometry width="50" height="50" relative="1" as="geometry">
            <mxPoint x="385" y="148" as="sourcePoint" />
            <mxPoint x="485" y="82" as="targetPoint" />
          </mxGeometry>
        </mxCell>
        <mxCell id="8xzKFLjRtHm6hBmf5HE1-690" value="&lt;font color=&quot;#3333ff&quot;&gt;1 0 1&amp;nbsp;&amp;nbsp;&lt;/font&gt;" style="text;html=1;align=left;verticalAlign=middle;whiteSpace=wrap;rounded=0;" vertex="1" parent="1">
          <mxGeometry x="394" y="153" width="36" height="30" as="geometry" />
        </mxCell>
        <mxCell id="8xzKFLjRtHm6hBmf5HE1-691" value="&lt;font color=&quot;#00cc00&quot;&gt;1 1 1&amp;nbsp;&amp;nbsp;&lt;/font&gt;" style="text;html=1;align=left;verticalAlign=middle;whiteSpace=wrap;rounded=0;" vertex="1" parent="1">
          <mxGeometry x="434" y="153" width="36" height="30" as="geometry" />
        </mxCell>
        <mxCell id="8xzKFLjRtHm6hBmf5HE1-692" value="0" style="text;html=1;align=left;verticalAlign=middle;whiteSpace=wrap;rounded=0;" vertex="1" parent="1">
          <mxGeometry x="424" y="153" width="36" height="30" as="geometry" />
        </mxCell>
        <mxCell id="8xzKFLjRtHm6hBmf5HE1-693" value="" style="rounded=0;whiteSpace=wrap;html=1;container=0;" vertex="1" parent="1">
          <mxGeometry x="510" y="80" width="10" height="10" as="geometry" />
        </mxCell>
        <mxCell id="8xzKFLjRtHm6hBmf5HE1-695" value="" style="rounded=0;whiteSpace=wrap;html=1;container=0;" vertex="1" parent="1">
          <mxGeometry x="520" y="80" width="10" height="10" as="geometry" />
        </mxCell>
        <mxCell id="8xzKFLjRtHm6hBmf5HE1-697" value="" style="rounded=0;whiteSpace=wrap;html=1;container=0;" vertex="1" parent="1">
          <mxGeometry x="530" y="80" width="10" height="10" as="geometry" />
        </mxCell>
        <mxCell id="8xzKFLjRtHm6hBmf5HE1-699" value="" style="rounded=0;whiteSpace=wrap;html=1;container=0;" vertex="1" parent="1">
          <mxGeometry x="540" y="80" width="10" height="10" as="geometry" />
        </mxCell>
        <mxCell id="8xzKFLjRtHm6hBmf5HE1-701" value="" style="rounded=0;whiteSpace=wrap;html=1;container=0;" vertex="1" parent="1">
          <mxGeometry x="550" y="80" width="10" height="10" as="geometry" />
        </mxCell>
        <mxCell id="8xzKFLjRtHm6hBmf5HE1-703" value="" style="rounded=0;whiteSpace=wrap;html=1;container=0;" vertex="1" parent="1">
          <mxGeometry x="560" y="80" width="10" height="10" as="geometry" />
        </mxCell>
        <mxCell id="8xzKFLjRtHm6hBmf5HE1-705" value="" style="rounded=0;whiteSpace=wrap;html=1;container=0;" vertex="1" parent="1">
          <mxGeometry x="570" y="80" width="10" height="10" as="geometry" />
        </mxCell>
        <mxCell id="8xzKFLjRtHm6hBmf5HE1-707" value="" style="rounded=0;whiteSpace=wrap;html=1;container=0;" vertex="1" parent="1">
          <mxGeometry x="580" y="80" width="10" height="10" as="geometry" />
        </mxCell>
        <mxCell id="8xzKFLjRtHm6hBmf5HE1-710" value="" style="rounded=0;whiteSpace=wrap;html=1;container=0;" vertex="1" parent="1">
          <mxGeometry x="510" y="90" width="10" height="10" as="geometry" />
        </mxCell>
        <mxCell id="8xzKFLjRtHm6hBmf5HE1-711" value="" style="rounded=0;whiteSpace=wrap;html=1;container=0;" vertex="1" parent="1">
          <mxGeometry x="520" y="90" width="10" height="10" as="geometry" />
        </mxCell>
        <mxCell id="8xzKFLjRtHm6hBmf5HE1-712" value="" style="rounded=0;whiteSpace=wrap;html=1;container=0;" vertex="1" parent="1">
          <mxGeometry x="530" y="90" width="10" height="10" as="geometry" />
        </mxCell>
        <mxCell id="8xzKFLjRtHm6hBmf5HE1-713" value="" style="rounded=0;whiteSpace=wrap;html=1;container=0;" vertex="1" parent="1">
          <mxGeometry x="540" y="90" width="10" height="10" as="geometry" />
        </mxCell>
        <mxCell id="8xzKFLjRtHm6hBmf5HE1-714" value="" style="rounded=0;whiteSpace=wrap;html=1;container=0;" vertex="1" parent="1">
          <mxGeometry x="550" y="90" width="10" height="10" as="geometry" />
        </mxCell>
        <mxCell id="8xzKFLjRtHm6hBmf5HE1-715" value="" style="rounded=0;whiteSpace=wrap;html=1;container=0;" vertex="1" parent="1">
          <mxGeometry x="560" y="90" width="10" height="10" as="geometry" />
        </mxCell>
        <mxCell id="8xzKFLjRtHm6hBmf5HE1-716" value="" style="rounded=0;whiteSpace=wrap;html=1;container=0;" vertex="1" parent="1">
          <mxGeometry x="570" y="90" width="10" height="10" as="geometry" />
        </mxCell>
        <mxCell id="8xzKFLjRtHm6hBmf5HE1-717" value="" style="rounded=0;whiteSpace=wrap;html=1;container=0;" vertex="1" parent="1">
          <mxGeometry x="580" y="90" width="10" height="10" as="geometry" />
        </mxCell>
        <mxCell id="8xzKFLjRtHm6hBmf5HE1-718" value="" style="rounded=0;whiteSpace=wrap;html=1;container=0;" vertex="1" parent="1">
          <mxGeometry x="510" y="100" width="10" height="10" as="geometry" />
        </mxCell>
        <mxCell id="8xzKFLjRtHm6hBmf5HE1-719" value="" style="rounded=0;whiteSpace=wrap;html=1;container=0;" vertex="1" parent="1">
          <mxGeometry x="520" y="100" width="10" height="10" as="geometry" />
        </mxCell>
        <mxCell id="8xzKFLjRtHm6hBmf5HE1-720" value="" style="rounded=0;whiteSpace=wrap;html=1;container=0;" vertex="1" parent="1">
          <mxGeometry x="530" y="100" width="10" height="10" as="geometry" />
        </mxCell>
        <mxCell id="8xzKFLjRtHm6hBmf5HE1-721" value="" style="rounded=0;whiteSpace=wrap;html=1;container=0;" vertex="1" parent="1">
          <mxGeometry x="540" y="100" width="10" height="10" as="geometry" />
        </mxCell>
        <mxCell id="8xzKFLjRtHm6hBmf5HE1-722" value="" style="rounded=0;whiteSpace=wrap;html=1;container=0;" vertex="1" parent="1">
          <mxGeometry x="550" y="100" width="10" height="10" as="geometry" />
        </mxCell>
        <mxCell id="8xzKFLjRtHm6hBmf5HE1-723" value="" style="rounded=0;whiteSpace=wrap;html=1;container=0;" vertex="1" parent="1">
          <mxGeometry x="560" y="100" width="10" height="10" as="geometry" />
        </mxCell>
        <mxCell id="8xzKFLjRtHm6hBmf5HE1-724" value="" style="rounded=0;whiteSpace=wrap;html=1;container=0;" vertex="1" parent="1">
          <mxGeometry x="570" y="100" width="10" height="10" as="geometry" />
        </mxCell>
        <mxCell id="8xzKFLjRtHm6hBmf5HE1-725" value="" style="rounded=0;whiteSpace=wrap;html=1;container=0;" vertex="1" parent="1">
          <mxGeometry x="580" y="100" width="10" height="10" as="geometry" />
        </mxCell>
        <mxCell id="8xzKFLjRtHm6hBmf5HE1-726" value="" style="rounded=0;whiteSpace=wrap;html=1;container=0;" vertex="1" parent="1">
          <mxGeometry x="510" y="110" width="10" height="10" as="geometry" />
        </mxCell>
        <mxCell id="8xzKFLjRtHm6hBmf5HE1-727" value="" style="rounded=0;whiteSpace=wrap;html=1;container=0;" vertex="1" parent="1">
          <mxGeometry x="520" y="110" width="10" height="10" as="geometry" />
        </mxCell>
        <mxCell id="8xzKFLjRtHm6hBmf5HE1-728" value="" style="rounded=0;whiteSpace=wrap;html=1;container=0;" vertex="1" parent="1">
          <mxGeometry x="530" y="110" width="10" height="10" as="geometry" />
        </mxCell>
        <mxCell id="8xzKFLjRtHm6hBmf5HE1-729" value="" style="rounded=0;whiteSpace=wrap;html=1;container=0;" vertex="1" parent="1">
          <mxGeometry x="540" y="110" width="10" height="10" as="geometry" />
        </mxCell>
        <mxCell id="8xzKFLjRtHm6hBmf5HE1-730" value="" style="rounded=0;whiteSpace=wrap;html=1;container=0;" vertex="1" parent="1">
          <mxGeometry x="550" y="110" width="10" height="10" as="geometry" />
        </mxCell>
        <mxCell id="8xzKFLjRtHm6hBmf5HE1-731" value="" style="rounded=0;whiteSpace=wrap;html=1;container=0;" vertex="1" parent="1">
          <mxGeometry x="560" y="110" width="10" height="10" as="geometry" />
        </mxCell>
        <mxCell id="8xzKFLjRtHm6hBmf5HE1-732" value="" style="rounded=0;whiteSpace=wrap;html=1;container=0;" vertex="1" parent="1">
          <mxGeometry x="570" y="110" width="10" height="10" as="geometry" />
        </mxCell>
        <mxCell id="8xzKFLjRtHm6hBmf5HE1-733" value="" style="rounded=0;whiteSpace=wrap;html=1;container=0;" vertex="1" parent="1">
          <mxGeometry x="580" y="110" width="10" height="10" as="geometry" />
        </mxCell>
        <mxCell id="8xzKFLjRtHm6hBmf5HE1-734" value="" style="rounded=0;whiteSpace=wrap;html=1;container=0;" vertex="1" parent="1">
          <mxGeometry x="510" y="120" width="10" height="10" as="geometry" />
        </mxCell>
        <mxCell id="8xzKFLjRtHm6hBmf5HE1-735" value="" style="rounded=0;whiteSpace=wrap;html=1;container=0;" vertex="1" parent="1">
          <mxGeometry x="520" y="120" width="10" height="10" as="geometry" />
        </mxCell>
        <mxCell id="8xzKFLjRtHm6hBmf5HE1-736" value="" style="rounded=0;whiteSpace=wrap;html=1;container=0;" vertex="1" parent="1">
          <mxGeometry x="530" y="120" width="10" height="10" as="geometry" />
        </mxCell>
        <mxCell id="8xzKFLjRtHm6hBmf5HE1-737" value="" style="rounded=0;whiteSpace=wrap;html=1;container=0;fillColor=#FF99CC;" vertex="1" parent="1">
          <mxGeometry x="540" y="120" width="10" height="10" as="geometry" />
        </mxCell>
        <mxCell id="8xzKFLjRtHm6hBmf5HE1-738" value="" style="rounded=0;whiteSpace=wrap;html=1;container=0;" vertex="1" parent="1">
          <mxGeometry x="550" y="120" width="10" height="10" as="geometry" />
        </mxCell>
        <mxCell id="8xzKFLjRtHm6hBmf5HE1-739" value="" style="rounded=0;whiteSpace=wrap;html=1;container=0;" vertex="1" parent="1">
          <mxGeometry x="560" y="120" width="10" height="10" as="geometry" />
        </mxCell>
        <mxCell id="8xzKFLjRtHm6hBmf5HE1-740" value="" style="rounded=0;whiteSpace=wrap;html=1;container=0;" vertex="1" parent="1">
          <mxGeometry x="570" y="120" width="10" height="10" as="geometry" />
        </mxCell>
        <mxCell id="8xzKFLjRtHm6hBmf5HE1-741" value="" style="rounded=0;whiteSpace=wrap;html=1;container=0;" vertex="1" parent="1">
          <mxGeometry x="580" y="120" width="10" height="10" as="geometry" />
        </mxCell>
        <mxCell id="8xzKFLjRtHm6hBmf5HE1-742" value="" style="rounded=0;whiteSpace=wrap;html=1;container=0;" vertex="1" parent="1">
          <mxGeometry x="510" y="130" width="10" height="10" as="geometry" />
        </mxCell>
        <mxCell id="8xzKFLjRtHm6hBmf5HE1-743" value="" style="rounded=0;whiteSpace=wrap;html=1;container=0;fillColor=#FF99CC;" vertex="1" parent="1">
          <mxGeometry x="520" y="130" width="10" height="10" as="geometry" />
        </mxCell>
        <mxCell id="8xzKFLjRtHm6hBmf5HE1-744" value="" style="rounded=0;whiteSpace=wrap;html=1;container=0;fillColor=#FF99CC;" vertex="1" parent="1">
          <mxGeometry x="530" y="130" width="10" height="10" as="geometry" />
        </mxCell>
        <mxCell id="8xzKFLjRtHm6hBmf5HE1-745" value="" style="rounded=0;whiteSpace=wrap;html=1;container=0;fillColor=#FF99CC;" vertex="1" parent="1">
          <mxGeometry x="540" y="130" width="10" height="10" as="geometry" />
        </mxCell>
        <mxCell id="8xzKFLjRtHm6hBmf5HE1-746" value="" style="rounded=0;whiteSpace=wrap;html=1;container=0;" vertex="1" parent="1">
          <mxGeometry x="550" y="130" width="10" height="10" as="geometry" />
        </mxCell>
        <mxCell id="8xzKFLjRtHm6hBmf5HE1-747" value="" style="rounded=0;whiteSpace=wrap;html=1;container=0;" vertex="1" parent="1">
          <mxGeometry x="560" y="130" width="10" height="10" as="geometry" />
        </mxCell>
        <mxCell id="8xzKFLjRtHm6hBmf5HE1-748" value="" style="rounded=0;whiteSpace=wrap;html=1;container=0;" vertex="1" parent="1">
          <mxGeometry x="570" y="130" width="10" height="10" as="geometry" />
        </mxCell>
        <mxCell id="8xzKFLjRtHm6hBmf5HE1-749" value="" style="rounded=0;whiteSpace=wrap;html=1;container=0;" vertex="1" parent="1">
          <mxGeometry x="580" y="130" width="10" height="10" as="geometry" />
        </mxCell>
        <mxCell id="8xzKFLjRtHm6hBmf5HE1-750" value="" style="rounded=0;whiteSpace=wrap;html=1;container=0;fillColor=#FF99CC;" vertex="1" parent="1">
          <mxGeometry x="510" y="140" width="10" height="10" as="geometry" />
        </mxCell>
        <mxCell id="8xzKFLjRtHm6hBmf5HE1-751" value="" style="rounded=0;whiteSpace=wrap;html=1;container=0;fillColor=#FF99CC;" vertex="1" parent="1">
          <mxGeometry x="520" y="140" width="10" height="10" as="geometry" />
        </mxCell>
        <mxCell id="8xzKFLjRtHm6hBmf5HE1-752" value="" style="rounded=0;whiteSpace=wrap;html=1;container=0;fillColor=#FF99CC;" vertex="1" parent="1">
          <mxGeometry x="530" y="140" width="10" height="10" as="geometry" />
        </mxCell>
        <mxCell id="8xzKFLjRtHm6hBmf5HE1-753" value="" style="rounded=0;whiteSpace=wrap;html=1;container=0;fillColor=#FF99CC;" vertex="1" parent="1">
          <mxGeometry x="540" y="140" width="10" height="10" as="geometry" />
        </mxCell>
        <mxCell id="8xzKFLjRtHm6hBmf5HE1-754" value="" style="rounded=0;whiteSpace=wrap;html=1;container=0;" vertex="1" parent="1">
          <mxGeometry x="550" y="140" width="10" height="10" as="geometry" />
        </mxCell>
        <mxCell id="8xzKFLjRtHm6hBmf5HE1-755" value="" style="rounded=0;whiteSpace=wrap;html=1;container=0;" vertex="1" parent="1">
          <mxGeometry x="560" y="140" width="10" height="10" as="geometry" />
        </mxCell>
        <mxCell id="8xzKFLjRtHm6hBmf5HE1-756" value="" style="rounded=0;whiteSpace=wrap;html=1;container=0;" vertex="1" parent="1">
          <mxGeometry x="570" y="140" width="10" height="10" as="geometry" />
        </mxCell>
        <mxCell id="8xzKFLjRtHm6hBmf5HE1-757" value="" style="rounded=0;whiteSpace=wrap;html=1;container=0;" vertex="1" parent="1">
          <mxGeometry x="580" y="140" width="10" height="10" as="geometry" />
        </mxCell>
        <mxCell id="8xzKFLjRtHm6hBmf5HE1-758" value="" style="rounded=0;whiteSpace=wrap;html=1;container=0;fillColor=#FF99CC;" vertex="1" parent="1">
          <mxGeometry x="510" y="150" width="10" height="10" as="geometry" />
        </mxCell>
        <mxCell id="8xzKFLjRtHm6hBmf5HE1-759" value="" style="rounded=0;whiteSpace=wrap;html=1;container=0;fillColor=#FF99CC;" vertex="1" parent="1">
          <mxGeometry x="520" y="150" width="10" height="10" as="geometry" />
        </mxCell>
        <mxCell id="8xzKFLjRtHm6hBmf5HE1-760" value="" style="rounded=0;whiteSpace=wrap;html=1;container=0;fillColor=#FF99CC;" vertex="1" parent="1">
          <mxGeometry x="530" y="150" width="10" height="10" as="geometry" />
        </mxCell>
        <mxCell id="8xzKFLjRtHm6hBmf5HE1-761" value="" style="rounded=0;whiteSpace=wrap;html=1;container=0;fillColor=#FF99CC;" vertex="1" parent="1">
          <mxGeometry x="540" y="150" width="10" height="10" as="geometry" />
        </mxCell>
        <mxCell id="8xzKFLjRtHm6hBmf5HE1-762" value="" style="rounded=0;whiteSpace=wrap;html=1;container=0;" vertex="1" parent="1">
          <mxGeometry x="550" y="150" width="10" height="10" as="geometry" />
        </mxCell>
        <mxCell id="8xzKFLjRtHm6hBmf5HE1-763" value="" style="rounded=0;whiteSpace=wrap;html=1;container=0;" vertex="1" parent="1">
          <mxGeometry x="560" y="150" width="10" height="10" as="geometry" />
        </mxCell>
        <mxCell id="8xzKFLjRtHm6hBmf5HE1-764" value="" style="rounded=0;whiteSpace=wrap;html=1;container=0;" vertex="1" parent="1">
          <mxGeometry x="570" y="150" width="10" height="10" as="geometry" />
        </mxCell>
        <mxCell id="8xzKFLjRtHm6hBmf5HE1-765" value="" style="rounded=0;whiteSpace=wrap;html=1;container=0;" vertex="1" parent="1">
          <mxGeometry x="580" y="150" width="10" height="10" as="geometry" />
        </mxCell>
        <mxCell id="8xzKFLjRtHm6hBmf5HE1-766" value="&lt;font style=&quot;font-size: 10px;&quot;&gt;LUT A [2][&lt;font style=&quot;font-size: 10px;&quot; color=&quot;#0000ff&quot;&gt;101&lt;/font&gt;]&lt;/font&gt;" style="text;html=1;align=center;verticalAlign=middle;whiteSpace=wrap;rounded=0;" vertex="1" parent="1">
          <mxGeometry x="510" y="155" width="80" height="30" as="geometry" />
        </mxCell>
        <mxCell id="8xzKFLjRtHm6hBmf5HE1-767" value="" style="rounded=0;whiteSpace=wrap;html=1;container=0;" vertex="1" parent="1">
          <mxGeometry x="620" y="80" width="10" height="10" as="geometry" />
        </mxCell>
        <mxCell id="8xzKFLjRtHm6hBmf5HE1-768" value="" style="rounded=0;whiteSpace=wrap;html=1;container=0;" vertex="1" parent="1">
          <mxGeometry x="630" y="80" width="10" height="10" as="geometry" />
        </mxCell>
        <mxCell id="8xzKFLjRtHm6hBmf5HE1-769" value="" style="rounded=0;whiteSpace=wrap;html=1;container=0;" vertex="1" parent="1">
          <mxGeometry x="640" y="80" width="10" height="10" as="geometry" />
        </mxCell>
        <mxCell id="8xzKFLjRtHm6hBmf5HE1-770" value="" style="rounded=0;whiteSpace=wrap;html=1;container=0;" vertex="1" parent="1">
          <mxGeometry x="650" y="80" width="10" height="10" as="geometry" />
        </mxCell>
        <mxCell id="8xzKFLjRtHm6hBmf5HE1-771" value="" style="rounded=0;whiteSpace=wrap;html=1;container=0;" vertex="1" parent="1">
          <mxGeometry x="660" y="80" width="10" height="10" as="geometry" />
        </mxCell>
        <mxCell id="8xzKFLjRtHm6hBmf5HE1-772" value="" style="rounded=0;whiteSpace=wrap;html=1;container=0;" vertex="1" parent="1">
          <mxGeometry x="670" y="80" width="10" height="10" as="geometry" />
        </mxCell>
        <mxCell id="8xzKFLjRtHm6hBmf5HE1-773" value="" style="rounded=0;whiteSpace=wrap;html=1;container=0;" vertex="1" parent="1">
          <mxGeometry x="680" y="80" width="10" height="10" as="geometry" />
        </mxCell>
        <mxCell id="8xzKFLjRtHm6hBmf5HE1-774" value="" style="rounded=0;whiteSpace=wrap;html=1;container=0;" vertex="1" parent="1">
          <mxGeometry x="690" y="80" width="10" height="10" as="geometry" />
        </mxCell>
        <mxCell id="8xzKFLjRtHm6hBmf5HE1-775" value="" style="rounded=0;whiteSpace=wrap;html=1;container=0;" vertex="1" parent="1">
          <mxGeometry x="620" y="90" width="10" height="10" as="geometry" />
        </mxCell>
        <mxCell id="8xzKFLjRtHm6hBmf5HE1-776" value="" style="rounded=0;whiteSpace=wrap;html=1;container=0;" vertex="1" parent="1">
          <mxGeometry x="630" y="90" width="10" height="10" as="geometry" />
        </mxCell>
        <mxCell id="8xzKFLjRtHm6hBmf5HE1-777" value="" style="rounded=0;whiteSpace=wrap;html=1;container=0;" vertex="1" parent="1">
          <mxGeometry x="640" y="90" width="10" height="10" as="geometry" />
        </mxCell>
        <mxCell id="8xzKFLjRtHm6hBmf5HE1-778" value="" style="rounded=0;whiteSpace=wrap;html=1;container=0;" vertex="1" parent="1">
          <mxGeometry x="650" y="90" width="10" height="10" as="geometry" />
        </mxCell>
        <mxCell id="8xzKFLjRtHm6hBmf5HE1-779" value="" style="rounded=0;whiteSpace=wrap;html=1;container=0;" vertex="1" parent="1">
          <mxGeometry x="660" y="90" width="10" height="10" as="geometry" />
        </mxCell>
        <mxCell id="8xzKFLjRtHm6hBmf5HE1-780" value="" style="rounded=0;whiteSpace=wrap;html=1;container=0;" vertex="1" parent="1">
          <mxGeometry x="670" y="90" width="10" height="10" as="geometry" />
        </mxCell>
        <mxCell id="8xzKFLjRtHm6hBmf5HE1-781" value="" style="rounded=0;whiteSpace=wrap;html=1;container=0;" vertex="1" parent="1">
          <mxGeometry x="680" y="90" width="10" height="10" as="geometry" />
        </mxCell>
        <mxCell id="8xzKFLjRtHm6hBmf5HE1-782" value="" style="rounded=0;whiteSpace=wrap;html=1;container=0;" vertex="1" parent="1">
          <mxGeometry x="690" y="90" width="10" height="10" as="geometry" />
        </mxCell>
        <mxCell id="8xzKFLjRtHm6hBmf5HE1-783" value="" style="rounded=0;whiteSpace=wrap;html=1;container=0;" vertex="1" parent="1">
          <mxGeometry x="620" y="100" width="10" height="10" as="geometry" />
        </mxCell>
        <mxCell id="8xzKFLjRtHm6hBmf5HE1-784" value="" style="rounded=0;whiteSpace=wrap;html=1;container=0;" vertex="1" parent="1">
          <mxGeometry x="630" y="100" width="10" height="10" as="geometry" />
        </mxCell>
        <mxCell id="8xzKFLjRtHm6hBmf5HE1-785" value="" style="rounded=0;whiteSpace=wrap;html=1;container=0;" vertex="1" parent="1">
          <mxGeometry x="640" y="100" width="10" height="10" as="geometry" />
        </mxCell>
        <mxCell id="8xzKFLjRtHm6hBmf5HE1-786" value="" style="rounded=0;whiteSpace=wrap;html=1;container=0;" vertex="1" parent="1">
          <mxGeometry x="650" y="100" width="10" height="10" as="geometry" />
        </mxCell>
        <mxCell id="8xzKFLjRtHm6hBmf5HE1-787" value="" style="rounded=0;whiteSpace=wrap;html=1;container=0;" vertex="1" parent="1">
          <mxGeometry x="660" y="100" width="10" height="10" as="geometry" />
        </mxCell>
        <mxCell id="8xzKFLjRtHm6hBmf5HE1-788" value="" style="rounded=0;whiteSpace=wrap;html=1;container=0;" vertex="1" parent="1">
          <mxGeometry x="670" y="100" width="10" height="10" as="geometry" />
        </mxCell>
        <mxCell id="8xzKFLjRtHm6hBmf5HE1-789" value="" style="rounded=0;whiteSpace=wrap;html=1;container=0;" vertex="1" parent="1">
          <mxGeometry x="680" y="100" width="10" height="10" as="geometry" />
        </mxCell>
        <mxCell id="8xzKFLjRtHm6hBmf5HE1-790" value="" style="rounded=0;whiteSpace=wrap;html=1;container=0;" vertex="1" parent="1">
          <mxGeometry x="690" y="100" width="10" height="10" as="geometry" />
        </mxCell>
        <mxCell id="8xzKFLjRtHm6hBmf5HE1-791" value="" style="rounded=0;whiteSpace=wrap;html=1;container=0;" vertex="1" parent="1">
          <mxGeometry x="620" y="110" width="10" height="10" as="geometry" />
        </mxCell>
        <mxCell id="8xzKFLjRtHm6hBmf5HE1-792" value="" style="rounded=0;whiteSpace=wrap;html=1;container=0;" vertex="1" parent="1">
          <mxGeometry x="630" y="110" width="10" height="10" as="geometry" />
        </mxCell>
        <mxCell id="8xzKFLjRtHm6hBmf5HE1-793" value="" style="rounded=0;whiteSpace=wrap;html=1;container=0;" vertex="1" parent="1">
          <mxGeometry x="640" y="110" width="10" height="10" as="geometry" />
        </mxCell>
        <mxCell id="8xzKFLjRtHm6hBmf5HE1-794" value="" style="rounded=0;whiteSpace=wrap;html=1;container=0;" vertex="1" parent="1">
          <mxGeometry x="650" y="110" width="10" height="10" as="geometry" />
        </mxCell>
        <mxCell id="8xzKFLjRtHm6hBmf5HE1-795" value="" style="rounded=0;whiteSpace=wrap;html=1;container=0;" vertex="1" parent="1">
          <mxGeometry x="660" y="110" width="10" height="10" as="geometry" />
        </mxCell>
        <mxCell id="8xzKFLjRtHm6hBmf5HE1-796" value="" style="rounded=0;whiteSpace=wrap;html=1;container=0;" vertex="1" parent="1">
          <mxGeometry x="670" y="110" width="10" height="10" as="geometry" />
        </mxCell>
        <mxCell id="8xzKFLjRtHm6hBmf5HE1-797" value="" style="rounded=0;whiteSpace=wrap;html=1;container=0;" vertex="1" parent="1">
          <mxGeometry x="680" y="110" width="10" height="10" as="geometry" />
        </mxCell>
        <mxCell id="8xzKFLjRtHm6hBmf5HE1-798" value="" style="rounded=0;whiteSpace=wrap;html=1;container=0;" vertex="1" parent="1">
          <mxGeometry x="690" y="110" width="10" height="10" as="geometry" />
        </mxCell>
        <mxCell id="8xzKFLjRtHm6hBmf5HE1-799" value="" style="rounded=0;whiteSpace=wrap;html=1;container=0;" vertex="1" parent="1">
          <mxGeometry x="620" y="120" width="10" height="10" as="geometry" />
        </mxCell>
        <mxCell id="8xzKFLjRtHm6hBmf5HE1-800" value="" style="rounded=0;whiteSpace=wrap;html=1;container=0;" vertex="1" parent="1">
          <mxGeometry x="630" y="120" width="10" height="10" as="geometry" />
        </mxCell>
        <mxCell id="8xzKFLjRtHm6hBmf5HE1-801" value="" style="rounded=0;whiteSpace=wrap;html=1;container=0;" vertex="1" parent="1">
          <mxGeometry x="640" y="120" width="10" height="10" as="geometry" />
        </mxCell>
        <mxCell id="8xzKFLjRtHm6hBmf5HE1-802" value="" style="rounded=0;whiteSpace=wrap;html=1;container=0;fillColor=#FF99CC;" vertex="1" parent="1">
          <mxGeometry x="650" y="120" width="10" height="10" as="geometry" />
        </mxCell>
        <mxCell id="8xzKFLjRtHm6hBmf5HE1-803" value="" style="rounded=0;whiteSpace=wrap;html=1;container=0;" vertex="1" parent="1">
          <mxGeometry x="660" y="120" width="10" height="10" as="geometry" />
        </mxCell>
        <mxCell id="8xzKFLjRtHm6hBmf5HE1-804" value="" style="rounded=0;whiteSpace=wrap;html=1;container=0;" vertex="1" parent="1">
          <mxGeometry x="670" y="120" width="10" height="10" as="geometry" />
        </mxCell>
        <mxCell id="8xzKFLjRtHm6hBmf5HE1-805" value="" style="rounded=0;whiteSpace=wrap;html=1;container=0;" vertex="1" parent="1">
          <mxGeometry x="680" y="120" width="10" height="10" as="geometry" />
        </mxCell>
        <mxCell id="8xzKFLjRtHm6hBmf5HE1-806" value="" style="rounded=0;whiteSpace=wrap;html=1;container=0;" vertex="1" parent="1">
          <mxGeometry x="690" y="120" width="10" height="10" as="geometry" />
        </mxCell>
        <mxCell id="8xzKFLjRtHm6hBmf5HE1-807" value="" style="rounded=0;whiteSpace=wrap;html=1;container=0;" vertex="1" parent="1">
          <mxGeometry x="620" y="130" width="10" height="10" as="geometry" />
        </mxCell>
        <mxCell id="8xzKFLjRtHm6hBmf5HE1-808" value="" style="rounded=0;whiteSpace=wrap;html=1;container=0;fillColor=#FF99CC;" vertex="1" parent="1">
          <mxGeometry x="630" y="130" width="10" height="10" as="geometry" />
        </mxCell>
        <mxCell id="8xzKFLjRtHm6hBmf5HE1-809" value="" style="rounded=0;whiteSpace=wrap;html=1;container=0;fillColor=#FF99CC;" vertex="1" parent="1">
          <mxGeometry x="640" y="130" width="10" height="10" as="geometry" />
        </mxCell>
        <mxCell id="8xzKFLjRtHm6hBmf5HE1-810" value="" style="rounded=0;whiteSpace=wrap;html=1;container=0;fillColor=#FF99CC;" vertex="1" parent="1">
          <mxGeometry x="650" y="130" width="10" height="10" as="geometry" />
        </mxCell>
        <mxCell id="8xzKFLjRtHm6hBmf5HE1-811" value="" style="rounded=0;whiteSpace=wrap;html=1;container=0;" vertex="1" parent="1">
          <mxGeometry x="660" y="130" width="10" height="10" as="geometry" />
        </mxCell>
        <mxCell id="8xzKFLjRtHm6hBmf5HE1-812" value="" style="rounded=0;whiteSpace=wrap;html=1;container=0;" vertex="1" parent="1">
          <mxGeometry x="670" y="130" width="10" height="10" as="geometry" />
        </mxCell>
        <mxCell id="8xzKFLjRtHm6hBmf5HE1-813" value="" style="rounded=0;whiteSpace=wrap;html=1;container=0;" vertex="1" parent="1">
          <mxGeometry x="680" y="130" width="10" height="10" as="geometry" />
        </mxCell>
        <mxCell id="8xzKFLjRtHm6hBmf5HE1-814" value="" style="rounded=0;whiteSpace=wrap;html=1;container=0;" vertex="1" parent="1">
          <mxGeometry x="690" y="130" width="10" height="10" as="geometry" />
        </mxCell>
        <mxCell id="8xzKFLjRtHm6hBmf5HE1-815" value="" style="rounded=0;whiteSpace=wrap;html=1;container=0;fillColor=#FF99CC;" vertex="1" parent="1">
          <mxGeometry x="620" y="140" width="10" height="10" as="geometry" />
        </mxCell>
        <mxCell id="8xzKFLjRtHm6hBmf5HE1-816" value="" style="rounded=0;whiteSpace=wrap;html=1;container=0;fillColor=#FF99CC;" vertex="1" parent="1">
          <mxGeometry x="630" y="140" width="10" height="10" as="geometry" />
        </mxCell>
        <mxCell id="8xzKFLjRtHm6hBmf5HE1-817" value="" style="rounded=0;whiteSpace=wrap;html=1;container=0;fillColor=#FF99CC;" vertex="1" parent="1">
          <mxGeometry x="640" y="140" width="10" height="10" as="geometry" />
        </mxCell>
        <mxCell id="8xzKFLjRtHm6hBmf5HE1-818" value="" style="rounded=0;whiteSpace=wrap;html=1;container=0;fillColor=#FF99CC;" vertex="1" parent="1">
          <mxGeometry x="650" y="140" width="10" height="10" as="geometry" />
        </mxCell>
        <mxCell id="8xzKFLjRtHm6hBmf5HE1-819" value="" style="rounded=0;whiteSpace=wrap;html=1;container=0;" vertex="1" parent="1">
          <mxGeometry x="660" y="140" width="10" height="10" as="geometry" />
        </mxCell>
        <mxCell id="8xzKFLjRtHm6hBmf5HE1-820" value="" style="rounded=0;whiteSpace=wrap;html=1;container=0;" vertex="1" parent="1">
          <mxGeometry x="670" y="140" width="10" height="10" as="geometry" />
        </mxCell>
        <mxCell id="8xzKFLjRtHm6hBmf5HE1-821" value="" style="rounded=0;whiteSpace=wrap;html=1;container=0;" vertex="1" parent="1">
          <mxGeometry x="680" y="140" width="10" height="10" as="geometry" />
        </mxCell>
        <mxCell id="8xzKFLjRtHm6hBmf5HE1-822" value="" style="rounded=0;whiteSpace=wrap;html=1;container=0;" vertex="1" parent="1">
          <mxGeometry x="690" y="140" width="10" height="10" as="geometry" />
        </mxCell>
        <mxCell id="8xzKFLjRtHm6hBmf5HE1-823" value="" style="rounded=0;whiteSpace=wrap;html=1;container=0;fillColor=#FF99CC;" vertex="1" parent="1">
          <mxGeometry x="620" y="150" width="10" height="10" as="geometry" />
        </mxCell>
        <mxCell id="8xzKFLjRtHm6hBmf5HE1-824" value="" style="rounded=0;whiteSpace=wrap;html=1;container=0;fillColor=#FF99CC;" vertex="1" parent="1">
          <mxGeometry x="630" y="150" width="10" height="10" as="geometry" />
        </mxCell>
        <mxCell id="8xzKFLjRtHm6hBmf5HE1-825" value="" style="rounded=0;whiteSpace=wrap;html=1;container=0;fillColor=#FF99CC;" vertex="1" parent="1">
          <mxGeometry x="640" y="150" width="10" height="10" as="geometry" />
        </mxCell>
        <mxCell id="8xzKFLjRtHm6hBmf5HE1-826" value="" style="rounded=0;whiteSpace=wrap;html=1;container=0;fillColor=#FF99CC;" vertex="1" parent="1">
          <mxGeometry x="650" y="150" width="10" height="10" as="geometry" />
        </mxCell>
        <mxCell id="8xzKFLjRtHm6hBmf5HE1-827" value="" style="rounded=0;whiteSpace=wrap;html=1;container=0;" vertex="1" parent="1">
          <mxGeometry x="660" y="150" width="10" height="10" as="geometry" />
        </mxCell>
        <mxCell id="8xzKFLjRtHm6hBmf5HE1-828" value="" style="rounded=0;whiteSpace=wrap;html=1;container=0;" vertex="1" parent="1">
          <mxGeometry x="670" y="150" width="10" height="10" as="geometry" />
        </mxCell>
        <mxCell id="8xzKFLjRtHm6hBmf5HE1-829" value="" style="rounded=0;whiteSpace=wrap;html=1;container=0;" vertex="1" parent="1">
          <mxGeometry x="680" y="150" width="10" height="10" as="geometry" />
        </mxCell>
        <mxCell id="8xzKFLjRtHm6hBmf5HE1-830" value="" style="rounded=0;whiteSpace=wrap;html=1;container=0;" vertex="1" parent="1">
          <mxGeometry x="690" y="150" width="10" height="10" as="geometry" />
        </mxCell>
        <mxCell id="8xzKFLjRtHm6hBmf5HE1-831" value="&lt;font style=&quot;font-size: 10px;&quot;&gt;LUT B [2+2][&lt;font style=&quot;font-size: 10px;&quot; color=&quot;#0000ff&quot;&gt;111&lt;/font&gt;]&lt;/font&gt;" style="text;html=1;align=center;verticalAlign=middle;whiteSpace=wrap;rounded=0;" vertex="1" parent="1">
          <mxGeometry x="615" y="155" width="90" height="30" as="geometry" />
        </mxCell>
      </root>
    </mxGraphModel>
  </diagram>
</mxfile>
